<svg width="16" height="17" viewBox="0 0 16 17" fill="none" xmlns="http://www.w3.org/2000/svg">
<g clip-path="url(#clip0_227_2325)">
<path d="M8 1.61523C11.8661 1.61523 15 4.74913 15 8.61523C15 12.4813 11.8661 15.6152 8 15.6152C4.1339 15.6152 1 12.4813 1 8.61523C1 4.74913 4.1339 1.61523 8 1.61523ZM8 3.01523C6.51479 3.01523 5.09041 3.60523 4.0402 4.65544C2.99 5.70564 2.4 7.13002 2.4 8.61523C2.4 10.1004 2.99 11.5248 4.0402 12.575C5.09041 13.6252 6.51479 14.2152 8 14.2152C9.48521 14.2152 10.9096 13.6252 11.9598 12.575C13.01 11.5248 13.6 10.1004 13.6 8.61523C13.6 7.13002 13.01 5.70564 11.9598 4.65544C10.9096 3.60523 9.48521 3.01523 8 3.01523ZM8 4.41523C8.17145 4.41526 8.33694 4.4782 8.46506 4.59213C8.59318 4.70607 8.67504 4.86306 8.6951 5.03333L8.7 5.11523V8.32543L10.5949 10.2203C10.7204 10.3463 10.7933 10.5153 10.7988 10.6931C10.8042 10.8709 10.7417 11.044 10.6241 11.1774C10.5065 11.3108 10.3425 11.3944 10.1655 11.4113C9.98842 11.4282 9.81159 11.377 9.6709 11.2682L9.6051 11.2101L7.5051 9.11013C7.39631 9.00125 7.32643 8.85954 7.3063 8.70693L7.3 8.61523V5.11523C7.3 4.92958 7.37375 4.75154 7.50503 4.62026C7.6363 4.48898 7.81435 4.41523 8 4.41523Z" fill="#ACB5B7"/>
</g>
<defs>
<clipPath id="clip0_227_2325">
<rect width="16" height="16" fill="white" transform="translate(0 0.615234)"/>
</clipPath>
</defs>
</svg>
