<svg width="20" height="20" viewBox="0 0 20 20" fill="none" xmlns="http://www.w3.org/2000/svg">
<path d="M6.01562 0.0625H0.8125C0.397656 0.0625 0.0625 0.397656 0.0625 0.8125V6.0625C0.0625 6.26875 0.23125 6.4375 0.4375 6.4375H1.5625C1.76875 6.4375 1.9375 6.26875 1.9375 6.0625V1.9375H6.01562C6.22188 1.9375 6.39062 1.76875 6.39062 1.5625V0.4375C6.39062 0.23125 6.22188 0.0625 6.01562 0.0625ZM19.5625 13.5625H18.4375C18.2313 13.5625 18.0625 13.7312 18.0625 13.9375V18.0625H13.9844C13.7781 18.0625 13.6094 18.2313 13.6094 18.4375V19.5625C13.6094 19.7687 13.7781 19.9375 13.9844 19.9375H19.1875C19.6023 19.9375 19.9375 19.6023 19.9375 19.1875V13.9375C19.9375 13.7312 19.7687 13.5625 19.5625 13.5625ZM6.01562 18.0625H1.9375V13.9375C1.9375 13.7312 1.76875 13.5625 1.5625 13.5625H0.4375C0.23125 13.5625 0.0625 13.7312 0.0625 13.9375V19.1875C0.0625 19.6023 0.397656 19.9375 0.8125 19.9375H6.01562C6.22188 19.9375 6.39062 19.7687 6.39062 19.5625V18.4375C6.39062 18.2313 6.22188 18.0625 6.01562 18.0625ZM19.1875 0.0625H13.9844C13.7781 0.0625 13.6094 0.23125 13.6094 0.4375V1.5625C13.6094 1.76875 13.7781 1.9375 13.9844 1.9375H18.0625V6.0625C18.0625 6.26875 18.2313 6.4375 18.4375 6.4375H19.5625C19.7687 6.4375 19.9375 6.26875 19.9375 6.0625V0.8125C19.9375 0.397656 19.6023 0.0625 19.1875 0.0625Z" fill="#ADAEB5"/>
</svg>
