<svg width="14" height="14" viewBox="0 0 14 14" fill="none" xmlns="http://www.w3.org/2000/svg">
<path d="M4.99327 5.65882C5.54463 5.65882 5.99159 5.21185 5.99159 4.6605C5.99159 4.10914 5.54463 3.66218 4.99327 3.66218C4.44192 3.66218 3.99495 4.10914 3.99495 4.6605C3.99495 5.21185 4.44192 5.65882 4.99327 5.65882Z" fill="#ADAEB5"/>
<path fillRule="evenodd" clipRule="evenodd" d="M12.9798 2.33109V8.6134L13 8.63358L12.9798 8.65377V11.6487C12.9798 12.3839 12.3839 12.9798 11.6487 12.9798H9.65209L9.6319 13L9.61172 12.9798H2.33109C1.59595 12.9798 1 12.3839 1 11.6487V2.33109C1 1.59595 1.59595 1 2.33109 1H11.6487C12.3839 1 12.9798 1.59595 12.9798 2.33109ZM2.33109 1.99832H11.6487C11.8325 1.99832 11.9815 2.14731 11.9815 2.33109V7.61508L10.4515 6.08512C10.0135 5.6471 9.30926 5.62858 8.84882 6.04298L6.34245 8.29871L5.81684 7.77311C5.362 7.31826 4.62455 7.31826 4.1697 7.77311L1.99832 9.94449V2.33109C1.99832 2.14731 2.14731 1.99832 2.33109 1.99832ZM9.74562 6.79104L11.9815 9.02692V11.6487C11.9815 11.8325 11.8325 11.9815 11.6487 11.9815H10.0252L7.04934 9.00561L9.51666 6.78502C9.58244 6.72582 9.68305 6.72847 9.74562 6.79104ZM1.99832 11.316V11.6487C1.99832 11.8325 2.14731 11.9815 2.33109 11.9815H8.6134L5.11092 8.47902C5.04595 8.41404 4.9406 8.41404 4.87562 8.47902L2.0185 11.3361L1.99832 11.316Z" fill="#ADAEB5"/>
<path d="M4.99327 5.65882C5.54463 5.65882 5.99159 5.21185 5.99159 4.6605C5.99159 4.10914 5.54463 3.66218 4.99327 3.66218C4.44192 3.66218 3.99495 4.10914 3.99495 4.6605C3.99495 5.21185 4.44192 5.65882 4.99327 5.65882Z" stroke="#ADAEB5" strokeWidth="0.25"/>
<path fillRule="evenodd" clipRule="evenodd" d="M12.9798 2.33109V8.6134L13 8.63358L12.9798 8.65377V11.6487C12.9798 12.3839 12.3839 12.9798 11.6487 12.9798H9.65209L9.6319 13L9.61172 12.9798H2.33109C1.59595 12.9798 1 12.3839 1 11.6487V2.33109C1 1.59595 1.59595 1 2.33109 1H11.6487C12.3839 1 12.9798 1.59595 12.9798 2.33109ZM2.33109 1.99832H11.6487C11.8325 1.99832 11.9815 2.14731 11.9815 2.33109V7.61508L10.4515 6.08512C10.0135 5.6471 9.30926 5.62858 8.84882 6.04298L6.34245 8.29871L5.81684 7.77311C5.362 7.31826 4.62455 7.31826 4.1697 7.77311L1.99832 9.94449V2.33109C1.99832 2.14731 2.14731 1.99832 2.33109 1.99832ZM9.74562 6.79104L11.9815 9.02692V11.6487C11.9815 11.8325 11.8325 11.9815 11.6487 11.9815H10.0252L7.04934 9.00561L9.51666 6.78502C9.58244 6.72582 9.68305 6.72847 9.74562 6.79104ZM1.99832 11.316V11.6487C1.99832 11.8325 2.14731 11.9815 2.33109 11.9815H8.6134L5.11092 8.47902C5.04595 8.41404 4.9406 8.41404 4.87562 8.47902L2.0185 11.3361L1.99832 11.316Z" stroke="#ADAEB5" strokeWidth="0.25"/>
</svg>
