<svg width="40" height="40" viewBox="0 0 40 40" fill="none" xmlns="http://www.w3.org/2000/svg">
<rect x="0.5" y="0.5" width="39" height="39" rx="19.5" fill="white"/>
<rect x="0.5" y="0.5" width="39" height="39" rx="19.5" stroke="#D8D8D8"/>
<path d="M25.6307 13.7319L13.1319 14.4821C12.6391 14.5126 12.1677 14.6943 11.782 15.0025C11.3963 15.3106 11.115 15.7303 10.9765 16.2041C10.838 16.678 10.8491 17.1831 11.0081 17.6505C11.1671 18.1179 11.4665 18.5248 11.8652 18.8159L15.6758 21.5762C15.7655 21.6443 15.8406 21.7297 15.8969 21.8272C15.9533 21.9247 15.9896 22.0325 16.0038 22.1442L16.489 26.8244C16.5308 27.2222 16.6714 27.6031 16.8979 27.9327C17.1244 28.2623 17.4297 28.53 17.786 28.7116C18.1423 28.8932 18.5383 28.9829 18.9381 28.9725C19.3379 28.9621 19.7287 28.8519 20.0751 28.652C20.3976 28.4615 20.6734 28.2013 20.8824 27.8904L27.7815 17.4412C28.0256 17.0695 28.1616 16.6373 28.1744 16.1928C28.1872 15.7483 28.0762 15.309 27.8539 14.9239C27.6316 14.5387 27.3066 14.223 26.9152 14.0118C26.5239 13.8006 26.0816 13.7023 25.6376 13.7279L25.6307 13.7319ZM26.442 16.5611L19.5429 27.0103C19.4509 27.145 19.3198 27.2483 19.1674 27.3064C19.015 27.3645 18.8484 27.3746 18.69 27.3354C18.5317 27.2961 18.3891 27.2094 18.2815 27.0868C18.1738 26.9643 18.1062 26.8117 18.0877 26.6496L17.5956 21.9734C17.5883 21.9114 17.5774 21.8498 17.563 21.789L22.3363 19.0332C22.52 18.9271 22.6541 18.7524 22.709 18.5474C22.7639 18.3425 22.7351 18.1242 22.6291 17.9404C22.523 17.7567 22.3483 17.6226 22.1433 17.5677C21.9384 17.5128 21.72 17.5415 21.5363 17.6476L16.763 20.4035C16.7176 20.3606 16.6697 20.3204 16.6196 20.2831L12.816 17.5188C12.6849 17.4217 12.5866 17.2869 12.5342 17.1323C12.4819 16.9778 12.4781 16.811 12.5233 16.6542C12.5685 16.4975 12.6605 16.3583 12.7871 16.2553C12.9136 16.1524 13.0686 16.0905 13.2313 16.0782L25.7301 15.328C25.8771 15.3206 26.0233 15.3539 26.1526 15.4243C26.282 15.4947 26.3893 15.5994 26.4629 15.7269C26.5366 15.8544 26.5736 15.9998 26.5699 16.147C26.5662 16.2941 26.5219 16.4375 26.442 16.5611Z" fill="#606060"/>
</svg>
