<svg width="12" height="14" viewBox="0 0 12 14" fill="none" xmlns="http://www.w3.org/2000/svg">
<path d="M10 5.66634L9.06 4.71967L4.66667 9.11301L2.94 7.39301L2 8.33301L4.66667 10.9997L10 5.66634ZM10.6667 1.66634H7.88C7.6 0.893008 6.86667 0.333008 6 0.333008C5.13333 0.333008 4.4 0.893008 4.12 1.66634H1.33333C1.24 1.66634 1.15333 1.67301 1.06667 1.69301C0.854343 1.73756 0.656027 1.83304 0.488794 1.97124C0.321561 2.10944 0.190421 2.28621 0.106667 2.48634C0.0400001 2.63967 0 2.81301 0 2.99967V12.333C0 12.513 0.0400001 12.693 0.106667 12.853C0.173333 13.013 0.273333 13.153 0.393333 13.2797C0.573333 13.4597 0.806667 13.593 1.06667 13.6463C1.15333 13.6597 1.24 13.6663 1.33333 13.6663H10.6667C11.4 13.6663 12 13.0663 12 12.333V2.99967C12 2.26634 11.4 1.66634 10.6667 1.66634ZM6 1.49967C6.27333 1.49967 6.5 1.72634 6.5 1.99967C6.5 2.27301 6.27333 2.49967 6 2.49967C5.72667 2.49967 5.5 2.27301 5.5 1.99967C5.5 1.72634 5.72667 1.49967 6 1.49967ZM10.6667 12.333H1.33333V2.99967H10.6667V12.333Z" fill="#ADAEB5"/>
</svg>
