<svg width="36" height="36" viewBox="0 0 36 36" fill="none" xmlns="http://www.w3.org/2000/svg">
<rect width="36" height="36" rx="18" fill="white"/>
<path fillRule="evenodd" clipRule="evenodd" d="M22.5455 9.81818C21.5414 9.81818 20.7274 10.6322 20.7274 11.6364C20.7274 12.6405 21.5414 13.4545 22.5455 13.4545C23.5497 13.4545 24.3637 12.6405 24.3637 11.6364C24.3637 10.6322 23.5497 9.81818 22.5455 9.81818ZM18.9092 11.6364C18.9092 9.62806 20.5372 8 22.5455 8C24.5539 8 26.1819 9.62806 26.1819 11.6364C26.1819 13.6447 24.5539 15.2727 22.5455 15.2727C20.5372 15.2727 18.9092 13.6447 18.9092 11.6364Z" fill="#606060"/>
<path fillRule="evenodd" clipRule="evenodd" d="M11.6364 16.1815C10.6322 16.1815 9.81818 16.9955 9.81818 17.9996C9.81818 19.0038 10.6322 19.8178 11.6364 19.8178C12.6405 19.8178 13.4545 19.0038 13.4545 17.9996C13.4545 16.9955 12.6405 16.1815 11.6364 16.1815ZM8 17.9996C8 15.9913 9.62806 14.3633 11.6364 14.3633C13.6447 14.3633 15.2727 15.9913 15.2727 17.9996C15.2727 20.008 13.6447 21.636 11.6364 21.636C9.62806 21.636 8 20.008 8 17.9996Z" fill="#606060"/>
<path fillRule="evenodd" clipRule="evenodd" d="M22.5455 22.5457C21.5414 22.5457 20.7274 23.3597 20.7274 24.3639C20.7274 25.3681 21.5414 26.1821 22.5455 26.1821C23.5497 26.1821 24.3637 25.3681 24.3637 24.3639C24.3637 23.3597 23.5497 22.5457 22.5455 22.5457ZM18.9092 24.3639C18.9092 22.3556 20.5372 20.7275 22.5455 20.7275C24.5539 20.7275 26.1819 22.3556 26.1819 24.3639C26.1819 26.3722 24.5539 28.0003 22.5455 28.0003C20.5372 28.0003 18.9092 26.3722 18.9092 24.3639Z" fill="#606060"/>
<path fillRule="evenodd" clipRule="evenodd" d="M13.2058 18.9154C13.4586 18.4816 14.0152 18.3349 14.449 18.5876L20.6581 22.2058C21.0919 22.4586 21.2386 23.0152 20.9858 23.449C20.733 23.8828 20.1765 24.0295 19.7427 23.7768L13.5336 20.1586C13.0998 19.9058 12.953 19.3492 13.2058 18.9154Z" fill="#606060"/>
<path fillRule="evenodd" clipRule="evenodd" d="M20.9764 12.5516C21.2295 12.9853 21.0831 13.5419 20.6495 13.795L14.4495 17.4132C14.0158 17.6662 13.4592 17.5199 13.2061 17.0862C12.953 16.6526 13.0994 16.0959 13.5331 15.8428L19.7331 12.2247C20.1667 11.9716 20.7234 12.118 20.9764 12.5516Z" fill="#606060"/>
</svg>
