<svg width="14" height="14" viewBox="0 0 14 14" fill="none" xmlns="http://www.w3.org/2000/svg">
<path d="M6.99996 0.334961C10.682 0.334961 13.6666 3.31963 13.6666 7.00163C13.6666 10.6836 10.682 13.6683 6.99996 13.6683C3.31796 13.6683 0.333298 10.6836 0.333298 7.00163C0.333298 3.31963 3.31796 0.334961 6.99996 0.334961ZM6.99996 1.66829C5.58548 1.66829 4.22892 2.2302 3.22873 3.23039C2.22853 4.23059 1.66663 5.58714 1.66663 7.00163C1.66663 8.41611 2.22853 9.77267 3.22873 10.7729C4.22892 11.7731 5.58548 12.335 6.99996 12.335C8.41445 12.335 9.77101 11.7731 10.7712 10.7729C11.7714 9.77267 12.3333 8.41611 12.3333 7.00163C12.3333 5.58714 11.7714 4.23059 10.7712 3.23039C9.77101 2.2302 8.41445 1.66829 6.99996 1.66829ZM6.99996 3.00163C7.16325 3.00165 7.32086 3.0616 7.44288 3.1701C7.5649 3.27861 7.64286 3.42813 7.66196 3.59029L7.66663 3.66829V6.72563L9.4713 8.53029C9.59086 8.65027 9.66028 8.81125 9.66545 8.98055C9.67062 9.14985 9.61115 9.31477 9.49913 9.44181C9.38711 9.56886 9.23093 9.6485 9.06231 9.66456C8.8937 9.68062 8.72529 9.6319 8.5913 9.52829L8.52863 9.47296L6.52863 7.47296C6.42502 7.36926 6.35847 7.2343 6.3393 7.08896L6.3333 7.00163V3.66829C6.3333 3.49148 6.40354 3.32191 6.52856 3.19689C6.65358 3.07187 6.82315 3.00163 6.99996 3.00163Z" fill="#506CF0"/>
</svg>
