<svg width="14" height="14" viewBox="0 0 14 14" fill="none" xmlns="http://www.w3.org/2000/svg">
<path fill-rule="evenodd" clip-rule="evenodd" d="M3.11111 0.00390625C3.8009 0.00399799 4.47112 0.233214 5.0165 0.655552C5.56187 1.07789 5.95152 1.66942 6.12422 2.33724H12.4444V3.89279H6.12422C5.9331 4.62429 5.48227 5.26121 4.85592 5.68464C4.22957 6.10807 3.47052 6.28905 2.72049 6.1938C1.97047 6.09855 1.28076 5.73357 0.780132 5.16701C0.27951 4.60046 0.00220578 3.87106 0 3.11502C0 2.2899 0.327777 1.49858 0.911223 0.915129C1.49467 0.331683 2.28599 0.00390625 3.11111 0.00390625ZM3.11111 4.67057C3.52367 4.67057 3.91933 4.50668 4.21105 4.21496C4.50278 3.92324 4.66667 3.52758 4.66667 3.11502C4.66667 2.70246 4.50278 2.3068 4.21105 2.01507C3.91933 1.72335 3.52367 1.55946 3.11111 1.55946C2.69855 1.55946 2.30289 1.72335 2.01117 2.01507C1.71944 2.3068 1.55556 2.70246 1.55556 3.11502C1.55556 3.52758 1.71944 3.92324 2.01117 4.21496C2.30289 4.50668 2.69855 4.67057 3.11111 4.67057ZM10.8889 13.2261C10.1991 13.226 9.52888 12.9968 8.9835 12.5745C8.43813 12.1521 8.04848 11.5606 7.87578 10.8928H1.55556V9.33724H7.87578C8.0669 8.60575 8.51773 7.96882 9.14408 7.54539C9.77043 7.12197 10.5295 6.94098 11.2795 7.03623C12.0295 7.13149 12.7192 7.49647 13.2199 8.06302C13.7205 8.62957 13.9978 9.35897 14 10.115C14 10.9401 13.6722 11.7315 13.0888 12.3149C12.5053 12.8983 11.714 13.2261 10.8889 13.2261ZM10.8889 11.6706C11.3014 11.6706 11.6971 11.5067 11.9888 11.215C12.2806 10.9232 12.4444 10.5276 12.4444 10.115C12.4444 9.70246 12.2806 9.3068 11.9888 9.01507C11.6971 8.72335 11.3014 8.55946 10.8889 8.55946C10.4763 8.55946 10.0807 8.72335 9.78895 9.01507C9.49722 9.3068 9.33333 9.70246 9.33333 10.115C9.33333 10.5276 9.49722 10.9232 9.78895 11.215C10.0807 11.5067 10.4763 11.6706 10.8889 11.6706Z" fill="#ACB5B7"/>
</svg>
