<svg width="28" height="26" viewBox="0 0 28 26" fill="none" xmlns="http://www.w3.org/2000/svg">
<rect x="0.961914" width="26.0486" height="26" rx="5" fill="white"/>
<path d="M12.279 18.3412C12.279 20.3617 10.641 21.9998 8.62048 21.9998C6.59993 21.9998 4.96191 20.3617 4.96191 18.3412C4.96191 16.3206 6.59993 14.6826 8.62048 14.6826C10.641 14.6826 12.279 16.3206 12.279 18.3412Z" fill="white" fill-opacity="0.01" stroke="#A72C32" stroke-width="1.75"/>
<path d="M23.0105 8.14638C23.0105 10.4363 21.1541 12.2928 18.8642 12.2928C16.5742 12.2928 14.7178 10.4363 14.7178 8.14638C14.7178 5.8564 16.5742 4 18.8642 4C21.1541 4 23.0105 5.8564 23.0105 8.14638Z" fill="#A72C32"/>
<path d="M11.1562 15.7575L16.7173 10.4404" stroke="#A72C32" stroke-width="1.75"/>
</svg>
