<svg width="16" height="17" viewBox="0 0 16 17" fill="none" xmlns="http://www.w3.org/2000/svg">
<path d="M15 14.2819C15 12.927 13.7011 11.7751 11.8889 11.3473M10.3333 14.2819C10.3333 12.563 8.24422 11.1708 5.66667 11.1708C3.08911 11.1708 1 12.563 1 14.2819M10.3333 8.83746C11.1585 8.83746 11.9498 8.50968 12.5332 7.92623C13.1167 7.34279 13.4444 6.55146 13.4444 5.72635C13.4444 4.90123 13.1167 4.1099 12.5332 3.52646C11.9498 2.94301 11.1585 2.61523 10.3333 2.61523M5.66667 8.83746C4.84155 8.83746 4.05023 8.50968 3.46678 7.92623C2.88333 7.34279 2.55556 6.55146 2.55556 5.72635C2.55556 4.90123 2.88333 4.1099 3.46678 3.52646C4.05023 2.94301 4.84155 2.61523 5.66667 2.61523C6.49178 2.61523 7.28311 2.94301 7.86655 3.52646C8.45 4.1099 8.77778 4.90123 8.77778 5.72635C8.77778 6.55146 8.45 7.34279 7.86655 7.92623C7.28311 8.50968 6.49178 8.83746 5.66667 8.83746Z" stroke="#ACB5B7" stroke-width="1.5" stroke-linecap="round" stroke-linejoin="round"/>
</svg>
