<svg width="12" height="12" viewBox="0 0 12 12" fill="none" xmlns="http://www.w3.org/2000/svg">
<path fill-rule="evenodd" clip-rule="evenodd" d="M10.8 6.68453e-08C11.1027 -0.000106386 11.3943 0.126938 11.6163 0.355665C11.8383 0.584392 11.9743 0.897896 11.997 1.23333L12 1.33333V10.6667C12.0001 11.0031 11.8858 11.327 11.6799 11.5737C11.474 11.8204 11.1919 11.9714 10.89 11.9967L10.8 12H1.2C0.897254 12.0001 0.60566 11.8731 0.383671 11.6443C0.161682 11.4156 0.0257061 11.1021 0.00300013 10.7667L6.01608e-08 10.6667V1.33333C-9.57475e-05 0.996949 0.114244 0.672956 0.320098 0.426301C0.525952 0.179647 0.808107 0.0285623 1.11 0.00333348L1.2 6.68453e-08H10.8ZM10.8 1.33333H1.2V10.6667H10.8V1.33333ZM5.004 3.092L5.3148 3.24533L5.5176 3.352L5.7498 3.47867L6.0078 3.624L6.2898 3.79067L6.594 3.97733L6.7536 4.07867L7.0644 4.282L7.3488 4.47667L7.6068 4.65867L7.8348 4.82733L8.1228 5.04733L8.3412 5.22267L8.3982 5.26933C8.4908 5.34589 8.566 5.44544 8.61781 5.56003C8.66963 5.67462 8.69661 5.80109 8.69661 5.92933C8.69661 6.05758 8.66963 6.18404 8.61781 6.29864C8.566 6.41323 8.4908 6.51278 8.3982 6.58933L8.2044 6.746L7.9404 6.95133L7.7268 7.11067L7.4838 7.286L7.212 7.47467L6.9126 7.67467L6.5922 7.88067L6.2868 8.06867L6.0042 8.23533L5.7462 8.382L5.5146 8.50733L5.1414 8.69933L5.0034 8.766C4.89745 8.81673 4.78231 8.83924 4.66714 8.83176C4.55197 8.82427 4.43997 8.78698 4.34007 8.72287C4.24018 8.65876 4.15515 8.56959 4.09176 8.46249C4.02838 8.35539 3.98839 8.23332 3.975 8.106L3.9402 7.72933L3.921 7.48L3.8958 7.03733L3.882 6.69867L3.873 6.32867C3.87193 6.26334 3.87113 6.198 3.8706 6.13267L3.8694 5.92933C3.8694 5.79133 3.8706 5.658 3.873 5.52933L3.882 5.15933L3.8958 4.82133L3.912 4.51667L3.93 4.24933L3.975 3.75333C3.98831 3.62588 4.02825 3.50364 4.09163 3.39639C4.15501 3.28913 4.24008 3.19981 4.34004 3.13557C4.44 3.07132 4.55209 3.03393 4.66737 3.02636C4.78265 3.0188 4.89793 3.04127 5.004 3.092ZM5.3706 4.75933L5.109 4.614L5.0916 4.93867L5.0784 5.306L5.0706 5.71267L5.0694 5.92933L5.0706 6.146L5.0784 6.552L5.0844 6.74067L5.1 7.08733L5.109 7.244L5.3694 7.09867L5.6616 6.928L5.9826 6.732L6.153 6.624L6.4836 6.40667L6.78 6.20267L7.0416 6.016L7.1592 5.92933L6.915 5.74933L6.6354 5.55333C6.4763 5.4439 6.31568 5.33722 6.1536 5.23333L5.9838 5.126L5.6634 4.93L5.3706 4.75933Z" fill="#ADAEB5"/>
</svg>
