<svg width="28" height="28" viewBox="0 0 28 28" fill="none" xmlns="http://www.w3.org/2000/svg">
<path d="M12.5 4.375V4.125H12.25H8.75C7.9875 4.125 7.25624 4.4279 6.71707 4.96707C6.1779 5.50624 5.875 6.2375 5.875 7V21C5.875 21.7625 6.1779 22.4938 6.71707 23.0329C7.25624 23.5721 7.9875 23.875 8.75 23.875H19.25C20.0125 23.875 20.7438 23.5721 21.2829 23.0329C21.8221 22.4938 22.125 21.7625 22.125 21V14V13.75H21.875H17.5C16.1739 13.75 14.9021 13.2232 13.9645 12.2855C13.0268 11.3479 12.5 10.0761 12.5 8.75V4.375ZM21.5303 11.625H21.9601L21.7476 11.2514C21.6208 11.0285 21.4648 10.8236 21.2838 10.642L21.2835 10.6417L15.6083 4.96647L15.608 4.96624C15.4265 4.78514 15.2215 4.62915 14.9985 4.50241L14.625 4.29006V4.71975V8.75C14.625 9.5125 14.9279 10.2438 15.4671 10.7829C16.0062 11.3221 16.7375 11.625 17.5 11.625H21.5303ZM13.5747 2H13.5748C14.2316 1.99992 14.882 2.12926 15.4889 2.38063C16.0957 2.632 16.6471 3.00048 17.1114 3.465L17.1115 3.46503L22.7832 9.13678L22.7833 9.13685L22.785 9.13855C23.2495 9.60294 23.618 10.1543 23.8694 10.7611C24.1207 11.368 24.2501 12.0184 24.25 12.6752V21C24.25 22.3261 23.7232 23.5979 22.7855 24.5355C21.8479 25.4732 20.5761 26 19.25 26H8.75C7.42392 26 6.15215 25.4732 5.21447 24.5355C4.27678 23.5979 3.75 22.3261 3.75 21V7C3.75 5.67392 4.27678 4.40215 5.21447 3.46447C6.15215 2.52678 7.42392 2 8.75 2H13.5747Z" fill="#506CF0" stroke="white" stroke-width="0.5"/>
</svg>
