<svg width="175" height="175" viewBox="0 0 175 175" fill="none" xmlns="http://www.w3.org/2000/svg">
<g filter="url(#filter0_d_242_17255)">
<path d="M33.4939 90.2793C25.4891 60.4052 43.2177 29.6984 73.0918 21.6936V21.6936C102.966 13.6889 133.673 31.4175 141.678 61.2916V61.2916C149.682 91.1657 131.954 121.873 102.08 129.877V129.877C72.2055 137.882 41.4986 120.153 33.4939 90.2793V90.2793Z" fill="white"/>
</g>
<g clipPath="url(#clip0_242_17255)">
<path d="M63.6209 82.7036L60.93 85.3944C60.5585 85.766 60.5585 86.3684 60.93 86.7399C61.3016 87.1115 61.904 87.1115 62.2756 86.7399L64.9666 84.0489C65.3381 83.6774 65.3381 83.075 64.9666 82.7034C64.595 82.3318 63.9925 82.332 63.6209 82.7036Z" fill="url(#paint0_linear_242_17255)"/>
<path d="M58.9696 81.974L56.2787 84.665C55.9071 85.0366 55.9071 85.6389 56.2787 86.0105C56.6503 86.3821 57.2526 86.3821 57.6242 86.0105L60.3151 83.3195C60.6867 82.9479 60.6867 82.3456 60.3151 81.974C59.9435 81.6024 59.3411 81.6024 58.9696 81.974Z" fill="url(#paint1_linear_242_17255)"/>
<path d="M73.6989 68.5902C73.3273 68.2186 72.7249 68.2186 72.3534 68.5902L63.0062 77.9373C62.6346 78.3089 62.6346 78.9113 63.0062 79.2828C63.3778 79.6544 63.9802 79.6544 64.3517 79.2828L73.6989 69.9357C74.0704 69.5641 74.0704 68.9618 73.6989 68.5902Z" fill="url(#paint2_linear_242_17255)"/>
<path d="M73.6989 68.5902C73.3273 68.2186 72.7249 68.2186 72.3534 68.5902L63.0062 77.9373C62.6346 78.3089 62.6346 78.9113 63.0062 79.2828C63.3778 79.6544 63.9802 79.6544 64.3517 79.2828L73.6989 69.9357C74.0704 69.5641 74.0704 68.9618 73.6989 68.5902Z" fill="url(#paint3_linear_242_17255)"/>
<path d="M59.672 78.5803L61.0774 77.175C61.449 76.8034 61.449 76.201 61.0774 75.8295C60.7058 75.4579 60.1035 75.4579 59.7319 75.8295L58.3265 77.2348C57.955 77.6064 57.955 78.2088 58.3265 78.5803C58.6981 78.9518 59.3005 78.9518 59.672 78.5803Z" fill="url(#paint4_linear_242_17255)"/>
<path d="M87.1299 103.685L84.4388 106.376C84.0673 106.747 84.0673 107.35 84.4388 107.721C84.8104 108.093 85.4128 108.093 85.7843 107.721L88.4754 105.03C88.8469 104.659 88.8469 104.056 88.4754 103.685C88.1038 103.313 87.5013 103.313 87.1299 103.685Z" fill="url(#paint5_linear_242_17255)"/>
<path d="M82.4785 102.955L79.7875 105.646C79.4159 106.018 79.4159 106.62 79.7875 106.992C80.159 107.364 80.7614 107.364 81.133 106.992L83.8239 104.301C84.1954 103.929 84.1954 103.327 83.8239 102.956C83.4525 102.584 82.8501 102.584 82.4785 102.955Z" fill="url(#paint6_linear_242_17255)"/>
<path d="M97.2077 89.5717C96.8361 89.2001 96.2337 89.2001 95.8621 89.5717L86.515 98.9188C86.1434 99.2904 86.1434 99.8927 86.515 100.264C86.8866 100.636 87.4889 100.636 87.8605 100.264L97.2077 90.9172C97.5792 90.5456 97.5792 89.9432 97.2077 89.5717Z" fill="url(#paint7_linear_242_17255)"/>
<path d="M80.8381 101.905L82.2434 100.499C82.615 100.128 82.615 99.5253 82.2434 99.1537C81.8718 98.7821 81.2695 98.7821 80.8979 99.1537L79.4925 100.559C79.121 100.931 79.121 101.533 79.4925 101.905C79.8641 102.276 80.4665 102.276 80.8381 101.905Z" fill="url(#paint8_linear_242_17255)"/>
<path d="M73.3537 79.4078C68.2676 79.6767 65.6427 84.0341 64.7268 85.959C64.6256 86.1715 64.912 86.4729 65.1316 86.3828C65.1392 86.3797 65.147 86.3765 65.1547 86.3735C65.2457 86.3373 65.3418 86.3287 65.4372 86.3424C66.0163 86.4252 66.1246 87.2168 65.6036 87.483C65.0249 87.7786 64.4318 88.1934 63.853 88.7723C60.7344 91.8908 61.7196 94.5634 60.5634 96.0203C60.4815 96.1234 60.6123 96.3115 60.7562 96.2989C60.977 96.2796 61.2649 96.2442 61.6022 96.1793C61.7669 96.1476 61.954 96.3261 61.933 96.4954C61.6964 98.3922 61.2336 100.843 62.3018 101.911C64.0038 103.613 68.1376 102.506 71.1352 101.433C71.5416 101.288 72.0608 101.81 71.9018 102.209C71.8994 102.215 71.8969 102.221 71.8944 102.227C71.8233 102.4 72.0612 102.626 72.2287 102.546C72.7811 102.283 73.5875 101.842 74.4 101.194C75.4365 100.367 76.603 99.7158 77.8639 99.3058C79.1803 98.8777 80.642 98.1272 82.1906 96.5788C85.2528 93.5165 84.6958 90.1416 84.6484 89.0905C84.3992 86.9079 83.2886 84.5906 81.3878 82.6898C79.0025 80.3042 75.9614 79.1617 73.3537 79.4078Z" fill="url(#paint9_linear_242_17255)"/>
<path d="M71.1356 101.433C71.5421 101.288 72.0613 101.81 71.9023 102.209C71.8999 102.215 71.8974 102.221 71.8949 102.227C71.8238 102.4 72.0616 102.626 72.2292 102.546C72.7816 102.283 73.588 101.842 74.4005 101.193C75.4369 100.366 76.6035 99.7156 77.8644 99.3057C79.1808 98.8776 80.6425 98.1271 82.1911 96.5786C85.2533 93.5164 84.6962 90.1415 84.6489 89.0904C84.3997 86.9077 83.2891 84.5904 81.3883 82.6896C79.003 80.3043 75.9617 79.1617 73.3541 79.4078C71.3571 79.5133 69.7397 80.2493 68.4561 81.2209V102.273C69.3859 102.031 70.3045 101.731 71.1356 101.433Z" fill="url(#paint10_linear_242_17255)"/>
<path d="M64.0985 92.8014C64.02 92.9002 64.1453 93.0804 64.2833 93.0683C64.4949 93.0499 64.7707 93.0159 65.0938 92.9537C65.2517 92.9234 65.431 93.0945 65.4108 93.2565C65.1842 95.0742 64.7406 97.4225 65.7643 98.4462C67.3953 100.077 71.3564 99.0162 74.229 97.9885C74.6186 97.8492 75.116 98.3496 74.9637 98.7314C74.9614 98.7372 74.959 98.7431 74.9566 98.7489C74.8886 98.9148 75.1164 99.1313 75.277 99.0548C76.7318 98.3626 80.025 96.3787 80.2282 92.5349C80.4142 90.564 79.5507 88.2656 77.7479 86.4628C76.3113 85.0261 74.5599 84.1869 72.9104 83.9985C72.116 83.9627 69.5653 83.5417 67.2509 85.8561C64.2623 88.8443 65.2065 91.4053 64.0985 92.8014Z" fill="url(#paint11_linear_242_17255)"/>
<path d="M82.1905 96.5786C85.2527 93.5164 84.6957 90.1415 84.6484 89.0904C84.3991 86.9077 83.2886 84.5904 81.3878 82.6896C79.0024 80.3043 75.9612 79.1617 73.3535 79.4078C69.9634 79.587 67.6672 81.5827 66.2412 83.4637L80.6632 97.8855C81.161 97.5276 81.6709 97.0983 82.1905 96.5786Z" fill="url(#paint12_linear_242_17255)"/>
<path d="M96.3406 82.7387L94.1848 80.583L83.1093 91.6585L85.7496 94.2988L84.1474 95.9011L84.1489 95.9026L83.2191 96.8324C82.8475 97.2039 82.8475 97.8063 83.2191 98.1779C83.5804 98.5392 84.1593 98.5481 84.5326 98.2069L87.0953 95.6442L91.1333 99.6822L89.8697 100.946C89.4981 101.317 89.4981 101.92 89.8697 102.291C90.2413 102.663 90.8436 102.663 91.2152 102.291L92.4915 101.015C93.5579 101.868 95.1175 101.802 96.1057 100.813L96.3409 100.578C101.267 95.652 101.267 87.665 96.3406 82.7387Z" fill="url(#paint13_linear_242_17255)"/>
<path d="M96.3406 82.7387L94.1848 80.583L83.1093 91.6585L85.7496 94.2988L84.1474 95.9011L84.1489 95.9026L83.2191 96.8324C82.8475 97.2039 82.8475 97.8063 83.2191 98.1779C83.5804 98.5392 84.1593 98.5481 84.5326 98.2069L87.0953 95.6442L91.1333 99.6822L89.8697 100.946C89.4981 101.317 89.4981 101.92 89.8697 102.291C90.2413 102.663 90.8436 102.663 91.2152 102.291L92.4915 101.015C93.5579 101.868 95.1175 101.802 96.1057 100.813L96.3409 100.578C101.267 95.652 101.267 87.665 96.3406 82.7387Z" fill="url(#paint14_linear_242_17255)"/>
<path d="M92.4908 101.015C93.5572 101.868 95.1168 101.802 96.1051 100.813L96.3402 100.578C100.639 96.2791 101.186 89.6494 97.982 84.7568L87.0947 95.6441L92.4908 101.015Z" fill="url(#paint15_linear_242_17255)"/>
<path d="M83.4174 69.8152L81.2618 67.6595C76.3355 62.7333 68.3484 62.7333 63.4222 67.6595L63.187 67.8947C62.1264 68.9553 62.1264 70.6752 63.187 71.7358L63.5048 72.0536L62.9813 72.577L62.9829 72.5785L62.0531 73.5082C61.6815 73.8798 61.6815 74.4822 62.0531 74.8538C62.4144 75.215 62.9933 75.2239 63.3666 74.8827L64.8503 73.3991L68.8883 77.4371L67.6579 78.6675C67.2863 79.0391 67.2863 79.6415 67.6579 80.013C68.0294 80.3846 68.6318 80.3846 69.0034 80.013L70.2338 78.7826L72.3422 80.891L83.4174 69.8152Z" fill="url(#paint16_linear_242_17255)"/>
<path d="M72.3424 80.8905L83.4179 69.8149L81.2622 67.6593C79.2613 65.6583 76.7553 64.4702 74.1547 64.0947L64.8506 73.3988L72.3424 80.8905Z" fill="url(#paint17_linear_242_17255)"/>
<path d="M81.767 91.6387C82.9392 92.8109 84.5797 93.2583 86.2281 93.0832C90.0391 92.6784 97.0681 90.3817 97.0681 90.3817C110.553 84.6039 120 71.2123 120 55.613V48.3155C120 45.932 118.068 44 115.684 44H108.387C92.7874 44 79.3958 53.4468 73.6181 66.9315C73.6181 66.9315 71.3214 73.9605 70.9166 77.7714C70.7414 79.4199 71.1889 81.0604 72.3611 82.2326L81.767 91.6387Z" fill="url(#paint18_linear_242_17255)"/>
<path d="M120 55.6126V48.3151C120 47.1234 119.517 46.0446 118.736 45.2637L77.0645 86.9355L81.7674 91.6384C82.9397 92.8106 84.5802 93.3835 86.2286 93.2085C105.212 91.1917 120 75.1305 120 55.6126Z" fill="url(#paint19_linear_242_17255)"/>
<path d="M115.889 72.7718L103.559 60.4414L89.0801 74.9201L101.988 87.8279C107.893 84.1912 112.723 78.9771 115.889 72.7718Z" fill="url(#paint20_linear_242_17255)"/>
<path d="M73.6189 66.9316C72.1677 70.3189 71.1956 73.9602 70.7908 77.7711C70.6156 79.4195 71.1886 81.0601 72.3608 82.2323L81.7668 91.6383C82.939 92.8105 84.5795 93.3833 86.228 93.2083C90.039 92.8035 93.6803 91.8314 97.0674 90.3801L73.6189 66.9316Z" fill="url(#paint21_linear_242_17255)"/>
<path d="M115.685 44H108.387C103.874 44 99.5466 44.7921 95.5342 46.2425L117.757 68.4658C119.208 64.4533 120 60.1259 120 55.613V48.3155C120 45.932 118.068 44 115.685 44Z" fill="url(#paint22_linear_242_17255)"/>
<path d="M96.319 77.9193C101.973 77.9193 106.557 73.3356 106.557 67.6814C106.557 62.0271 101.973 57.4434 96.319 57.4434C90.6648 57.4434 86.0811 62.0271 86.0811 67.6814C86.0811 73.3356 90.6648 77.9193 96.319 77.9193Z" fill="url(#paint23_linear_242_17255)"/>
<path d="M96.3187 76.6531C101.274 76.6531 105.291 72.6362 105.291 67.681C105.291 62.7259 101.274 58.709 96.3187 58.709C91.3636 58.709 87.3467 62.7259 87.3467 67.681C87.3467 72.6362 91.3636 76.6531 96.3187 76.6531Z" fill="url(#paint24_linear_242_17255)"/>
<path d="M96.3194 75.1476C100.443 75.1476 103.785 71.805 103.785 67.6817C103.785 63.5584 100.443 60.2158 96.3194 60.2158C92.1961 60.2158 88.8535 63.5584 88.8535 67.6817C88.8535 71.805 92.1961 75.1476 96.3194 75.1476Z" fill="url(#paint25_linear_242_17255)"/>
<path d="M96.3189 74.0616C99.8427 74.0616 102.699 71.205 102.699 67.6812C102.699 64.1574 99.8427 61.3008 96.3189 61.3008C92.7951 61.3008 89.9385 64.1574 89.9385 67.6812C89.9385 71.205 92.7951 74.0616 96.3189 74.0616Z" fill="url(#paint26_linear_242_17255)"/>
<path d="M96.3189 74.0616C99.8427 74.0616 102.699 71.205 102.699 67.6812C102.699 64.1574 99.8427 61.3008 96.3189 61.3008C92.7951 61.3008 89.9385 64.1574 89.9385 67.6812C89.9385 71.205 92.7951 74.0616 96.3189 74.0616Z" fill="url(#paint27_linear_242_17255)"/>
<path d="M96.3189 74.0616C99.8427 74.0616 102.699 71.205 102.699 67.6812C102.699 64.1574 99.8427 61.3008 96.3189 61.3008C92.7951 61.3008 89.9385 64.1574 89.9385 67.6812C89.9385 71.205 92.7951 74.0616 96.3189 74.0616Z" fill="url(#paint28_linear_242_17255)"/>
<path d="M97.0676 90.3795C93.6806 91.8315 90.0389 92.804 86.2277 93.2081C84.5801 93.3838 82.9386 92.8103 81.7666 91.6382L77.0645 86.9361L85.3443 78.6562L97.0676 90.3795Z" fill="url(#paint29_linear_242_17255)"/>
<path d="M120 48.3156V55.6128C120 60.1255 119.208 64.4536 117.757 68.4656L106.646 57.3547L118.736 45.2637C119.517 46.0455 120 47.1247 120 48.3156Z" fill="url(#paint30_linear_242_17255)"/>
<path d="M92.5605 98.2543L89.8695 100.945C89.4979 101.317 89.4979 101.919 89.8695 102.291C90.2411 102.662 90.8434 102.662 91.215 102.291L93.906 99.5998C94.2776 99.2282 94.2776 98.6258 93.906 98.2543C93.5344 97.8827 92.9321 97.8827 92.5605 98.2543Z" fill="url(#paint31_linear_242_17255)"/>
<path d="M84.5325 98.2067L87.5916 95.1476C87.9631 94.7761 87.9631 94.1737 87.5916 93.8021C87.22 93.4305 86.6176 93.4305 86.2461 93.8021L84.1474 95.9009L84.1489 95.9024L83.2191 96.8322C82.8475 97.2038 82.8475 97.8061 83.2191 98.1777C83.5803 98.539 84.1592 98.548 84.5325 98.2067Z" fill="url(#paint32_linear_242_17255)"/>
<path d="M70.3486 75.9759L67.6576 78.667C67.286 79.0385 67.286 79.6409 67.6576 80.0125C68.0292 80.384 68.6315 80.384 69.0031 80.0125L71.6941 77.3215C72.0657 76.9499 72.0657 76.3475 71.6941 75.9759C71.3225 75.6044 70.7202 75.6044 70.3486 75.9759Z" fill="url(#paint33_linear_242_17255)"/>
<path d="M63.3666 74.8825L66.4257 71.8234C66.7973 71.4518 66.7973 70.8495 66.4257 70.4779C66.0541 70.1063 65.4517 70.1063 65.0802 70.4779L62.9813 72.5767L62.9829 72.5782L62.0531 73.508C61.6815 73.8796 61.6815 74.4819 62.0531 74.8535C62.4144 75.2148 62.9933 75.2238 63.3666 74.8825Z" fill="url(#paint34_linear_242_17255)"/>
<path d="M73.6986 68.5902C73.327 68.2186 72.7246 68.2186 72.3531 68.5902L66.1973 74.746L67.5428 76.0915L73.6986 69.9357C74.0701 69.5641 74.0701 68.9618 73.6986 68.5902Z" fill="url(#paint35_linear_242_17255)"/>
<path d="M96.1055 100.813L96.3406 100.578C98.3013 98.6171 99.4789 96.1713 99.8787 93.627L92.4912 101.014C93.5576 101.868 95.1173 101.801 96.1055 100.813Z" fill="url(#paint36_linear_242_17255)"/>
</g>
<defs>
<filter id="filter0_d_242_17255" x="0.677834" y="0.462464" width="173.816" height="173.817" filterUnits="userSpaceOnUse" color-interpolation-filters="sRGB">
<feFlood flood-opacity="0" result="BackgroundImageFix"/>
<feColorMatrix in="SourceAlpha" type="matrix" values="0 0 0 0 0 0 0 0 0 0 0 0 0 0 0 0 0 0 127 0" result="hardAlpha"/>
<feOffset dy="11.5854"/>
<feGaussianBlur stdDeviation="15.4472"/>
<feComposite in2="hardAlpha" operator="out"/>
<feColorMatrix type="matrix" values="0 0 0 0 0 0 0 0 0 0 0 0 0 0 0 0 0 0 0.15 0"/>
<feBlend mode="normal" in2="BackgroundImageFix" result="effect1_dropShadow_242_17255"/>
<feBlend mode="normal" in="SourceGraphic" in2="effect1_dropShadow_242_17255" result="shape"/>
</filter>
<linearGradient id="paint0_linear_242_17255" x1="54.3951" y1="79.6984" x2="64.9363" y2="85.8894" gradientUnits="userSpaceOnUse">
<stop stop-color="#DEECF1"/>
<stop offset="1" stop-color="#D9B1EE"/>
</linearGradient>
<linearGradient id="paint1_linear_242_17255" x1="53.5213" y1="81.1875" x2="64.0625" y2="87.3784" gradientUnits="userSpaceOnUse">
<stop stop-color="#DEECF1"/>
<stop offset="1" stop-color="#D9B1EE"/>
</linearGradient>
<linearGradient id="paint2_linear_242_17255" x1="60.4915" y1="69.3197" x2="71.0327" y2="75.5105" gradientUnits="userSpaceOnUse">
<stop stop-color="#DEECF1"/>
<stop offset="1" stop-color="#D9B1EE"/>
</linearGradient>
<linearGradient id="paint3_linear_242_17255" x1="65.2648" y1="77.0243" x2="67.1263" y2="75.1628" gradientUnits="userSpaceOnUse">
<stop stop-color="#8379C1" stop-opacity="0"/>
<stop offset="0.2831" stop-color="#8374BE" stop-opacity="0.283"/>
<stop offset="0.5864" stop-color="#8268B5" stop-opacity="0.586"/>
<stop offset="0.898" stop-color="#8152A6" stop-opacity="0.898"/>
<stop offset="1" stop-color="#814AA0"/>
</linearGradient>
<linearGradient id="paint4_linear_242_17255" x1="56.8455" y1="75.5273" x2="67.3867" y2="81.7181" gradientUnits="userSpaceOnUse">
<stop stop-color="#DEECF1"/>
<stop offset="1" stop-color="#D9B1EE"/>
</linearGradient>
<linearGradient id="paint5_linear_242_17255" x1="79.112" y1="102.164" x2="91.2218" y2="107.999" gradientUnits="userSpaceOnUse">
<stop stop-color="#DEECF1"/>
<stop offset="1" stop-color="#D9B1EE"/>
</linearGradient>
<linearGradient id="paint6_linear_242_17255" x1="78.5214" y1="103.391" x2="90.6312" y2="109.226" gradientUnits="userSpaceOnUse">
<stop stop-color="#DEECF1"/>
<stop offset="1" stop-color="#D9B1EE"/>
</linearGradient>
<linearGradient id="paint7_linear_242_17255" x1="84.3488" y1="91.2979" x2="96.4586" y2="97.1332" gradientUnits="userSpaceOnUse">
<stop stop-color="#DEECF1"/>
<stop offset="1" stop-color="#D9B1EE"/>
</linearGradient>
<linearGradient id="paint8_linear_242_17255" x1="80.0825" y1="100.151" x2="92.1923" y2="105.986" gradientUnits="userSpaceOnUse">
<stop stop-color="#DEECF1"/>
<stop offset="1" stop-color="#D9B1EE"/>
</linearGradient>
<linearGradient id="paint9_linear_242_17255" x1="66.2681" y1="87.7256" x2="74.0519" y2="94.0629" gradientUnits="userSpaceOnUse">
<stop stop-color="#FFF5C6"/>
<stop offset="1" stop-color="#FEE45A"/>
</linearGradient>
<linearGradient id="paint10_linear_242_17255" x1="74.4447" y1="92.0476" x2="81.6775" y2="97.6271" gradientUnits="userSpaceOnUse">
<stop stop-color="#FEA613" stop-opacity="0"/>
<stop offset="0.174" stop-color="#FDA016" stop-opacity="0.174"/>
<stop offset="0.3957" stop-color="#F9911E" stop-opacity="0.396"/>
<stop offset="0.6432" stop-color="#F4772B" stop-opacity="0.643"/>
<stop offset="0.9076" stop-color="#EC523D" stop-opacity="0.908"/>
<stop offset="1" stop-color="#E94444"/>
</linearGradient>
<linearGradient id="paint11_linear_242_17255" x1="58.2815" y1="90.5004" x2="78.8777" y2="92.4291" gradientUnits="userSpaceOnUse">
<stop stop-color="#FEA613" stop-opacity="0"/>
<stop offset="0.174" stop-color="#FDA016" stop-opacity="0.174"/>
<stop offset="0.3957" stop-color="#F9911E" stop-opacity="0.396"/>
<stop offset="0.6432" stop-color="#F4772B" stop-opacity="0.643"/>
<stop offset="0.9076" stop-color="#EC523D" stop-opacity="0.908"/>
<stop offset="1" stop-color="#E94444"/>
</linearGradient>
<linearGradient id="paint12_linear_242_17255" x1="74.2262" y1="89.9269" x2="77.6126" y2="86.5404" gradientUnits="userSpaceOnUse">
<stop stop-color="#FEA613" stop-opacity="0"/>
<stop offset="0.174" stop-color="#FDA016" stop-opacity="0.174"/>
<stop offset="0.3957" stop-color="#F9911E" stop-opacity="0.396"/>
<stop offset="0.6432" stop-color="#F4772B" stop-opacity="0.643"/>
<stop offset="0.9076" stop-color="#EC523D" stop-opacity="0.908"/>
<stop offset="1" stop-color="#E94444"/>
</linearGradient>
<linearGradient id="paint13_linear_242_17255" x1="87.6846" y1="88.363" x2="96.7526" y2="97.4311" gradientUnits="userSpaceOnUse">
<stop stop-color="#9BE69D"/>
<stop offset="1" stop-color="#0BB494"/>
</linearGradient>
<linearGradient id="paint14_linear_242_17255" x1="92.0983" y1="96.1548" x2="90.9689" y2="91.8464" gradientUnits="userSpaceOnUse">
<stop stop-color="#01525A" stop-opacity="0"/>
<stop offset="1" stop-color="#01525A"/>
</linearGradient>
<linearGradient id="paint15_linear_242_17255" x1="90.1593" y1="94.2182" x2="85.7672" y2="94.9711" gradientUnits="userSpaceOnUse">
<stop stop-color="#01525A" stop-opacity="0"/>
<stop offset="1" stop-color="#01525A"/>
</linearGradient>
<linearGradient id="paint16_linear_242_17255" x1="66.5141" y1="66.1134" x2="74.944" y2="74.5432" gradientUnits="userSpaceOnUse">
<stop stop-color="#9BE69D"/>
<stop offset="1" stop-color="#0BB494"/>
</linearGradient>
<linearGradient id="paint17_linear_242_17255" x1="68.7585" y1="72.4925" x2="62.9428" y2="72.4925" gradientUnits="userSpaceOnUse">
<stop stop-color="#01525A" stop-opacity="0"/>
<stop offset="1" stop-color="#01525A"/>
</linearGradient>
<linearGradient id="paint18_linear_242_17255" x1="92.5038" y1="60.7037" x2="104.15" y2="72.3496" gradientUnits="userSpaceOnUse">
<stop stop-color="#DEECF1"/>
<stop offset="1" stop-color="#8EBAC5"/>
</linearGradient>
<linearGradient id="paint19_linear_242_17255" x1="104.112" y1="72.3113" x2="111.15" y2="79.3488" gradientUnits="userSpaceOnUse">
<stop stop-color="#678D98" stop-opacity="0"/>
<stop offset="0.2265" stop-color="#638892" stop-opacity="0.227"/>
<stop offset="0.5216" stop-color="#597B82" stop-opacity="0.522"/>
<stop offset="0.8533" stop-color="#476567" stop-opacity="0.853"/>
<stop offset="1" stop-color="#3E5959"/>
</linearGradient>
<linearGradient id="paint20_linear_242_17255" x1="105.104" y1="76.4651" x2="94.0187" y2="65.3801" gradientUnits="userSpaceOnUse">
<stop stop-color="#678D98" stop-opacity="0"/>
<stop offset="0.2265" stop-color="#638892" stop-opacity="0.227"/>
<stop offset="0.5216" stop-color="#597B82" stop-opacity="0.522"/>
<stop offset="0.8533" stop-color="#476567" stop-opacity="0.853"/>
<stop offset="1" stop-color="#3E5959"/>
</linearGradient>
<linearGradient id="paint21_linear_242_17255" x1="76.3721" y1="77.9642" x2="85.6503" y2="87.2425" gradientUnits="userSpaceOnUse">
<stop stop-color="#FE7860"/>
<stop offset="1" stop-color="#E42346"/>
</linearGradient>
<linearGradient id="paint22_linear_242_17255" x1="108.236" y1="46.8541" x2="115.791" y2="54.4097" gradientUnits="userSpaceOnUse">
<stop stop-color="#FE7860"/>
<stop offset="1" stop-color="#E42346"/>
</linearGradient>
<linearGradient id="paint23_linear_242_17255" x1="90.5047" y1="61.8669" x2="103.926" y2="75.2886" gradientUnits="userSpaceOnUse">
<stop stop-color="#9BE69D"/>
<stop offset="1" stop-color="#0BB494"/>
</linearGradient>
<linearGradient id="paint24_linear_242_17255" x1="96.3189" y1="59.8747" x2="96.3189" y2="77.5025" gradientUnits="userSpaceOnUse">
<stop stop-color="#9BE69D"/>
<stop offset="1" stop-color="#0BB494"/>
</linearGradient>
<linearGradient id="paint25_linear_242_17255" x1="101.465" y1="72.8268" x2="93.6396" y2="65.0018" gradientUnits="userSpaceOnUse">
<stop stop-color="#9BE69D"/>
<stop offset="1" stop-color="#0BB494"/>
</linearGradient>
<linearGradient id="paint26_linear_242_17255" x1="93.1818" y1="64.5439" x2="100.444" y2="71.8061" gradientUnits="userSpaceOnUse">
<stop stop-color="#A6E7F0"/>
<stop offset="0.1713" stop-color="#90E2ED"/>
<stop offset="0.5295" stop-color="#56D7E7"/>
<stop offset="1" stop-color="#02C7DD"/>
</linearGradient>
<linearGradient id="paint27_linear_242_17255" x1="93.7028" y1="67.363" x2="89.0597" y2="66.7983" gradientUnits="userSpaceOnUse">
<stop stop-color="#0199B1" stop-opacity="0"/>
<stop offset="1" stop-color="#0199B1"/>
</linearGradient>
<linearGradient id="paint28_linear_242_17255" x1="94.8956" y1="65.2576" x2="92.574" y2="61.3047" gradientUnits="userSpaceOnUse">
<stop stop-color="#0199B1" stop-opacity="0"/>
<stop offset="1" stop-color="#0199B1"/>
</linearGradient>
<linearGradient id="paint29_linear_242_17255" x1="85.4113" y1="84.6775" x2="88.5068" y2="92.1232" gradientUnits="userSpaceOnUse">
<stop stop-color="#FD4755" stop-opacity="0"/>
<stop offset="0.2586" stop-color="#F74453" stop-opacity="0.259"/>
<stop offset="0.6211" stop-color="#E53B4C" stop-opacity="0.621"/>
<stop offset="1" stop-color="#CA2E43"/>
</linearGradient>
<linearGradient id="paint30_linear_242_17255" x1="114.241" y1="55.3551" x2="120.013" y2="57.5302" gradientUnits="userSpaceOnUse">
<stop stop-color="#FD4755" stop-opacity="0"/>
<stop offset="0.2586" stop-color="#F74453" stop-opacity="0.259"/>
<stop offset="0.6211" stop-color="#E53B4C" stop-opacity="0.621"/>
<stop offset="1" stop-color="#CA2E43"/>
</linearGradient>
<linearGradient id="paint31_linear_242_17255" x1="92.6204" y1="99.1952" x2="90.487" y2="102.332" gradientUnits="userSpaceOnUse">
<stop stop-color="#DEECF1" stop-opacity="0"/>
<stop offset="1" stop-color="#D9B1EE"/>
</linearGradient>
<linearGradient id="paint32_linear_242_17255" x1="86.1961" y1="94.8271" x2="84.0628" y2="97.9644" gradientUnits="userSpaceOnUse">
<stop stop-color="#DEECF1" stop-opacity="0"/>
<stop offset="1" stop-color="#D9B1EE"/>
</linearGradient>
<linearGradient id="paint33_linear_242_17255" x1="70.6952" y1="76.9749" x2="67.1357" y2="80.5344" gradientUnits="userSpaceOnUse">
<stop stop-color="#DEECF1" stop-opacity="0"/>
<stop offset="1" stop-color="#D9B1EE"/>
</linearGradient>
<linearGradient id="paint34_linear_242_17255" x1="65.3118" y1="71.5918" x2="61.7524" y2="75.1513" gradientUnits="userSpaceOnUse">
<stop stop-color="#DEECF1" stop-opacity="0"/>
<stop offset="1" stop-color="#D9B1EE"/>
</linearGradient>
<linearGradient id="paint35_linear_242_17255" x1="70.1168" y1="72.1719" x2="66.4348" y2="75.854" gradientUnits="userSpaceOnUse">
<stop stop-color="#8379C1" stop-opacity="0"/>
<stop offset="0.2831" stop-color="#8374BE" stop-opacity="0.283"/>
<stop offset="0.5864" stop-color="#8268B5" stop-opacity="0.586"/>
<stop offset="0.898" stop-color="#8152A6" stop-opacity="0.898"/>
<stop offset="1" stop-color="#814AA0"/>
</linearGradient>
<linearGradient id="paint36_linear_242_17255" x1="95.8221" y1="97.6174" x2="89.2581" y2="97.6174" gradientUnits="userSpaceOnUse">
<stop stop-color="#01525A" stop-opacity="0"/>
<stop offset="1" stop-color="#01525A"/>
</linearGradient>
<clipPath id="clip0_242_17255">
<rect width="64" height="64" fill="white" transform="translate(56 44)"/>
</clipPath>
</defs>
</svg>
