<svg width="588" height="149" viewBox="0 0 588 149" fill="none" xmlns="http://www.w3.org/2000/svg">
<g filter="url(#filter0_d_267_13701)">
<path d="M38 46.1098C38 33.8989 47.8989 24 60.1098 24L527.89 24C540.101 24 550 33.8989 550 46.1098L550 73.8902C550 86.1011 540.101 96 527.89 96L60.1098 96C47.8989 96 38 86.1011 38 73.8902L38 46.1098Z" fill="white"/>
</g>
<rect x="69" y="40" width="141" height="40" rx="20" fill="#506CF0"/>
<path d="M92.2188 52.7812L92.2188 67L89.5332 67L89.5332 52.7812L92.2188 52.7812ZM97.6111 58.6895L97.6111 67L95.0329 67L95.0329 56.4336L97.4548 56.4336L97.6111 58.6895ZM97.2009 61.3359L96.4392 61.3359C96.4457 60.5677 96.5499 59.8711 96.7517 59.2461C96.9535 58.6211 97.2367 58.084 97.6013 57.6348C97.9724 57.1855 98.4118 56.8405 98.9196 56.5996C99.4275 56.3587 99.9939 56.2383 100.619 56.2383C101.127 56.2383 101.586 56.3099 101.996 56.4531C102.406 56.5964 102.758 56.8242 103.051 57.1367C103.35 57.4492 103.578 57.8594 103.734 58.3672C103.897 58.8685 103.978 59.487 103.978 60.2227L103.978 67L101.381 67L101.381 60.2031C101.381 59.7214 101.309 59.3405 101.166 59.0605C101.029 58.7806 100.827 58.582 100.56 58.4648C100.3 58.3477 99.9776 58.2891 99.5935 58.2891C99.1963 58.2891 98.848 58.3704 98.5486 58.5332C98.2556 58.6895 98.0082 58.9076 97.8064 59.1875C97.6111 59.4674 97.4613 59.7897 97.3571 60.1543C97.253 60.5189 97.2009 60.9128 97.2009 61.3359ZM114.128 58.4648L114.128 71.0625L111.54 71.0625L111.54 56.4336L113.933 56.4336L114.128 58.4648ZM120.915 61.6094L120.915 61.8145C120.915 62.5827 120.824 63.2956 120.642 63.9531C120.466 64.6042 120.206 65.1738 119.86 65.6621C119.515 66.1439 119.086 66.5215 118.571 66.7949C118.064 67.0618 117.478 67.1953 116.814 67.1953C116.163 67.1953 115.596 67.0716 115.114 66.8242C114.633 66.5703 114.226 66.2122 113.894 65.75C113.562 65.2878 113.295 64.7507 113.093 64.1387C112.898 63.5202 112.751 62.8464 112.653 62.1172L112.653 61.4629C112.751 60.6882 112.898 59.985 113.093 59.3535C113.295 58.7155 113.562 58.1654 113.894 57.7031C114.226 57.2344 114.629 56.873 115.105 56.6191C115.586 56.3652 116.15 56.2383 116.794 56.2383C117.465 56.2383 118.054 56.3652 118.562 56.6191C119.076 56.873 119.509 57.2376 119.86 57.7129C120.212 58.1882 120.476 58.7546 120.652 59.4121C120.827 60.0697 120.915 60.8021 120.915 61.6094ZM118.327 61.8145L118.327 61.6094C118.327 61.1406 118.285 60.7077 118.2 60.3105C118.116 59.9069 117.985 59.5553 117.81 59.2559C117.634 58.9499 117.406 58.7122 117.126 58.543C116.846 58.3737 116.508 58.2891 116.11 58.2891C115.713 58.2891 115.372 58.3542 115.085 58.4844C114.799 58.6146 114.564 58.8001 114.382 59.041C114.2 59.2819 114.056 59.5684 113.952 59.9004C113.855 60.2259 113.79 60.5872 113.757 60.9844L113.757 62.6055C113.816 63.0872 113.93 63.5202 114.099 63.9043C114.268 64.2884 114.515 64.5944 114.841 64.8223C115.173 65.0501 115.603 65.1641 116.13 65.1641C116.527 65.1641 116.866 65.0762 117.146 64.9004C117.426 64.7246 117.653 64.4837 117.829 64.1777C118.005 63.8652 118.132 63.5072 118.21 63.1035C118.288 62.6999 118.327 62.2702 118.327 61.8145ZM125.536 58.5918L125.536 67L122.958 67L122.958 56.4336L125.399 56.4336L125.536 58.5918ZM128.749 56.3652L128.71 58.7676C128.567 58.7415 128.404 58.722 128.222 58.709C128.046 58.696 127.88 58.6895 127.724 58.6895C127.326 58.6895 126.978 58.7448 126.679 58.8555C126.379 58.9596 126.128 59.1126 125.927 59.3145C125.731 59.5163 125.582 59.7637 125.477 60.0566C125.373 60.3431 125.315 60.6686 125.302 61.0332L124.745 60.9648C124.745 60.2943 124.813 59.6725 124.95 59.0996C125.087 58.5267 125.285 58.0254 125.546 57.5957C125.806 57.166 126.132 56.834 126.522 56.5996C126.919 56.3587 127.375 56.2383 127.89 56.2383C128.033 56.2383 128.186 56.2513 128.349 56.2773C128.518 56.2969 128.651 56.3262 128.749 56.3652ZM129.59 61.8242L129.59 61.6191C129.59 60.8444 129.701 60.1315 129.922 59.4805C130.144 58.8229 130.466 58.2533 130.889 57.7715C131.312 57.2897 131.83 56.9154 132.442 56.6484C133.054 56.375 133.751 56.2383 134.532 56.2383C135.326 56.2383 136.029 56.375 136.641 56.6484C137.26 56.9154 137.781 57.2897 138.204 57.7715C138.627 58.2533 138.949 58.8229 139.17 59.4805C139.392 60.1315 139.503 60.8444 139.503 61.6191L139.503 61.8242C139.503 62.5924 139.392 63.3053 139.17 63.9629C138.949 64.6139 138.627 65.1836 138.204 65.6719C137.781 66.1536 137.263 66.528 136.651 66.7949C136.039 67.0618 135.339 67.1953 134.551 67.1953C133.77 67.1953 133.07 67.0618 132.452 66.7949C131.833 66.528 131.312 66.1536 130.889 65.6719C130.466 65.1836 130.144 64.6139 129.922 63.9629C129.701 63.3053 129.59 62.5924 129.59 61.8242ZM132.169 61.6191L132.169 61.8242C132.169 62.2865 132.214 62.7194 132.305 63.123C132.396 63.5267 132.536 63.8815 132.725 64.1875C132.914 64.4935 133.158 64.7344 133.458 64.9102C133.764 65.0794 134.128 65.1641 134.551 65.1641C134.968 65.1641 135.326 65.0794 135.626 64.9102C135.925 64.7344 136.169 64.4935 136.358 64.1875C136.553 63.8815 136.697 63.5267 136.788 63.123C136.879 62.7194 136.924 62.2865 136.924 61.8242L136.924 61.6191C136.924 61.1634 136.879 60.737 136.788 60.3398C136.697 59.9362 136.553 59.5814 136.358 59.2754C136.169 58.9629 135.922 58.7187 135.616 58.543C135.316 58.3607 134.955 58.2695 134.532 58.2695C134.115 58.2695 133.757 58.3607 133.458 58.543C133.158 58.7187 132.914 58.9629 132.725 59.2754C132.536 59.5814 132.396 59.9362 132.305 60.3398C132.214 60.737 132.169 61.1634 132.169 61.6191ZM148.254 56.4336L150.598 56.4336L150.598 66.6777C150.598 67.6348 150.39 68.4453 149.973 69.1094C149.563 69.7799 148.987 70.2878 148.244 70.6328C147.502 70.9844 146.64 71.1602 145.657 71.1602C145.233 71.1602 144.774 71.1016 144.28 70.9844C143.791 70.8672 143.319 70.6816 142.864 70.4277C142.414 70.1803 142.04 69.8581 141.741 69.4609L142.903 67.9375C143.254 68.3477 143.651 68.6569 144.094 68.8652C144.537 69.0801 145.015 69.1875 145.53 69.1875C146.05 69.1875 146.493 69.0898 146.858 68.8945C147.229 68.7057 147.512 68.4258 147.707 68.0547C147.909 67.6901 148.01 67.2409 148.01 66.707L148.01 58.8457L148.254 56.4336ZM141.116 61.8437L141.116 61.6387C141.116 60.8314 141.213 60.099 141.408 59.4414C141.604 58.7773 141.884 58.2077 142.248 57.7324C142.619 57.2572 143.065 56.8893 143.586 56.6289C144.114 56.3685 144.706 56.2383 145.364 56.2383C146.06 56.2383 146.646 56.3652 147.121 56.6191C147.603 56.873 148 57.2344 148.313 57.7031C148.632 58.1719 148.879 58.7285 149.055 59.373C149.237 60.0111 149.377 60.7142 149.475 61.4824L149.475 62.0391C149.384 62.7878 149.237 63.4746 149.035 64.0996C148.84 64.7246 148.58 65.2715 148.254 65.7402C147.929 66.2025 147.525 66.5605 147.043 66.8145C146.561 67.0684 145.995 67.1953 145.344 67.1953C144.693 67.1953 144.107 67.0618 143.586 66.7949C143.065 66.528 142.619 66.1536 142.248 65.6719C141.884 65.1901 141.604 64.6237 141.408 63.9727C141.213 63.3216 141.116 62.612 141.116 61.8437ZM143.694 61.6387L143.694 61.8437C143.694 62.2995 143.739 62.7259 143.83 63.123C143.922 63.5202 144.061 63.8717 144.25 64.1777C144.439 64.4772 144.677 64.7116 144.963 64.8809C145.25 65.0501 145.591 65.1348 145.989 65.1348C146.522 65.1348 146.959 65.0241 147.297 64.8027C147.642 64.5749 147.903 64.2656 148.078 63.875C148.261 63.4779 148.378 63.0319 148.43 62.5371L148.43 61.0039C148.397 60.6133 148.326 60.252 148.215 59.9199C148.111 59.5879 147.964 59.3014 147.776 59.0605C147.587 58.8197 147.346 58.6309 147.053 58.4941C146.76 58.3574 146.412 58.2891 146.008 58.2891C145.617 58.2891 145.276 58.377 144.983 58.5527C144.69 58.722 144.449 58.9596 144.26 59.2656C144.071 59.5716 143.928 59.9264 143.83 60.3301C143.739 60.7337 143.694 61.1699 143.694 61.6387ZM155.658 58.5918L155.658 67L153.08 67L153.08 56.4336L155.522 56.4336L155.658 58.5918ZM158.871 56.3652L158.832 58.7676C158.689 58.7415 158.526 58.722 158.344 58.709C158.168 58.696 158.002 58.6895 157.846 58.6895C157.449 58.6895 157.1 58.7448 156.801 58.8555C156.501 58.9596 156.251 59.1126 156.049 59.3145C155.854 59.5163 155.704 59.7637 155.6 60.0566C155.495 60.3431 155.437 60.6686 155.424 61.0332L154.867 60.9648C154.867 60.2943 154.936 59.6725 155.072 59.0996C155.209 58.5267 155.408 58.0254 155.668 57.5957C155.928 57.166 156.254 56.834 156.645 56.5996C157.042 56.3587 157.497 56.2383 158.012 56.2383C158.155 56.2383 158.308 56.2513 158.471 56.2773C158.64 56.2969 158.773 56.3262 158.871 56.3652ZM164.996 67.1953C164.195 67.1953 163.476 67.0651 162.838 66.8047C162.2 66.5443 161.656 66.1829 161.207 65.7207C160.764 65.252 160.422 64.7083 160.181 64.0898C159.947 63.4648 159.83 62.7943 159.83 62.0781L159.83 61.6875C159.83 60.8737 159.947 60.1348 160.181 59.4707C160.416 58.8001 160.748 58.224 161.177 57.7422C161.607 57.2604 162.121 56.8893 162.72 56.6289C163.319 56.3685 163.98 56.2383 164.703 56.2383C165.452 56.2383 166.112 56.3652 166.685 56.6191C167.258 56.8665 167.737 57.2181 168.121 57.6738C168.505 58.1296 168.795 58.6764 168.99 59.3145C169.185 59.946 169.283 60.6458 169.283 61.4141L169.283 62.498L161.002 62.498L161.002 60.7207L166.744 60.7207L166.744 60.5254C166.731 60.1152 166.653 59.7409 166.51 59.4023C166.366 59.0573 166.145 58.7839 165.845 58.582C165.546 58.3737 165.159 58.2695 164.683 58.2695C164.299 58.2695 163.964 58.3542 163.677 58.5234C163.398 58.6862 163.163 58.9206 162.974 59.2266C162.792 59.526 162.655 59.8841 162.564 60.3008C162.473 60.7174 162.427 61.1797 162.427 61.6875L162.427 62.0781C162.427 62.5208 162.486 62.931 162.603 63.3086C162.727 63.6862 162.906 64.015 163.14 64.2949C163.381 64.5684 163.668 64.7832 164 64.9395C164.338 65.0892 164.722 65.1641 165.152 65.1641C165.692 65.1641 166.181 65.0599 166.617 64.8516C167.06 64.6367 167.444 64.321 167.769 63.9043L169.068 65.252C168.847 65.5775 168.547 65.89 168.17 66.1895C167.799 66.4889 167.349 66.7331 166.822 66.9219C166.295 67.1042 165.686 67.1953 164.996 67.1953ZM176.98 64.1094C176.98 63.888 176.921 63.6895 176.804 63.5137C176.687 63.3379 176.466 63.1784 176.14 63.0352C175.821 62.8854 175.352 62.7454 174.734 62.6152C174.187 62.498 173.682 62.3516 173.22 62.1758C172.758 62 172.361 61.7884 172.029 61.541C171.697 61.2871 171.436 60.9909 171.248 60.6523C171.065 60.3073 170.974 59.9102 170.974 59.4609C170.974 59.0247 171.068 58.6146 171.257 58.2305C171.446 57.8398 171.72 57.498 172.078 57.2051C172.436 56.9056 172.872 56.6712 173.386 56.502C173.901 56.3262 174.48 56.2383 175.124 56.2383C176.023 56.2383 176.794 56.3848 177.439 56.6777C178.09 56.9707 178.588 57.3743 178.933 57.8887C179.278 58.3965 179.451 58.9694 179.451 59.6074L176.873 59.6074C176.873 59.3275 176.807 59.0736 176.677 58.8457C176.554 58.6178 176.361 58.4355 176.101 58.2988C175.841 58.1556 175.512 58.084 175.115 58.084C174.757 58.084 174.454 58.1426 174.206 58.2598C173.966 58.377 173.783 58.5299 173.66 58.7187C173.536 58.9076 173.474 59.1159 173.474 59.3437C173.474 59.513 173.507 59.666 173.572 59.8027C173.643 59.9329 173.757 60.0534 173.914 60.1641C174.07 60.2747 174.281 60.3757 174.548 60.4668C174.822 60.5579 175.157 60.6458 175.554 60.7305C176.342 60.8867 177.029 61.0951 177.615 61.3555C178.207 61.6094 178.669 61.9479 179.001 62.3711C179.333 62.7943 179.499 63.3346 179.499 63.9922C179.499 64.4609 179.399 64.8906 179.197 65.2812C178.995 65.6654 178.702 66.0007 178.318 66.2871C177.934 66.5736 177.475 66.7982 176.941 66.9609C176.407 67.1172 175.805 67.1953 175.134 67.1953C174.164 67.1953 173.344 67.0228 172.673 66.6777C172.003 66.3262 171.495 65.8835 171.15 65.3496C170.805 64.8092 170.632 64.2493 170.632 63.6699L173.103 63.6699C173.123 64.0801 173.233 64.4089 173.435 64.6562C173.637 64.9036 173.891 65.0827 174.197 65.1934C174.509 65.2975 174.838 65.3496 175.183 65.3496C175.574 65.3496 175.902 65.2975 176.169 65.1934C176.436 65.0827 176.638 64.9362 176.775 64.7539C176.912 64.5651 176.98 64.3503 176.98 64.1094ZM187.431 64.1094C187.431 63.888 187.372 63.6895 187.255 63.5137C187.138 63.3379 186.917 63.1784 186.591 63.0352C186.272 62.8854 185.803 62.7454 185.185 62.6152C184.638 62.498 184.133 62.3516 183.671 62.1758C183.209 62 182.812 61.7884 182.48 61.541C182.148 61.2871 181.887 60.9909 181.698 60.6523C181.516 60.3073 181.425 59.9102 181.425 59.4609C181.425 59.0247 181.519 58.6146 181.708 58.2305C181.897 57.8398 182.17 57.498 182.528 57.2051C182.887 56.9056 183.323 56.6712 183.837 56.502C184.351 56.3262 184.931 56.2383 185.575 56.2383C186.474 56.2383 187.245 56.3848 187.89 56.6777C188.541 56.9707 189.039 57.3743 189.384 57.8887C189.729 58.3965 189.902 58.9694 189.902 59.6074L187.323 59.6074C187.323 59.3275 187.258 59.0736 187.128 58.8457C187.004 58.6178 186.812 58.4355 186.552 58.2988C186.292 58.1556 185.963 58.084 185.566 58.084C185.208 58.084 184.905 58.1426 184.657 58.2598C184.417 58.377 184.234 58.5299 184.111 58.7187C183.987 58.9076 183.925 59.1159 183.925 59.3437C183.925 59.513 183.958 59.666 184.023 59.8027C184.094 59.9329 184.208 60.0534 184.364 60.1641C184.521 60.2747 184.732 60.3757 184.999 60.4668C185.273 60.5579 185.608 60.6458 186.005 60.7305C186.793 60.8867 187.48 61.0951 188.066 61.3555C188.658 61.6094 189.12 61.9479 189.452 62.3711C189.784 62.7943 189.95 63.3346 189.95 63.9922C189.95 64.4609 189.849 64.8906 189.648 65.2812C189.446 65.6654 189.153 66.0007 188.769 66.2871C188.385 66.5736 187.926 66.7982 187.392 66.9609C186.858 67.1172 186.256 67.1953 185.585 67.1953C184.615 67.1953 183.795 67.0228 183.124 66.6777C182.454 66.3262 181.946 65.8835 181.601 65.3496C181.256 64.8092 181.083 64.2493 181.083 63.6699L183.554 63.6699C183.573 64.0801 183.684 64.4089 183.886 64.6562C184.088 64.9036 184.342 65.0827 184.648 65.1934C184.96 65.2975 185.289 65.3496 185.634 65.3496C186.025 65.3496 186.353 65.2975 186.62 65.1934C186.887 65.0827 187.089 64.9362 187.226 64.7539C187.362 64.5651 187.431 64.3503 187.431 64.1094Z" fill="white"/>
<rect x="225" y="40" width="141" height="40" rx="20" fill="#ACB5B7"/>
<path d="M256.783 52.7812L256.783 67L254.088 67L248.043 57.1367L248.043 67L245.357 67L245.357 52.7812L248.043 52.7812L254.107 62.6543L254.107 52.7812L256.783 52.7812ZM259.021 61.8242L259.021 61.6191C259.021 60.8444 259.132 60.1315 259.353 59.4805C259.575 58.8229 259.897 58.2533 260.32 57.7715C260.743 57.2897 261.261 56.9154 261.873 56.6484C262.485 56.375 263.181 56.2383 263.963 56.2383C264.757 56.2383 265.46 56.375 266.072 56.6484C266.69 56.9154 267.211 57.2897 267.634 57.7715C268.058 58.2533 268.38 58.8229 268.601 59.4805C268.823 60.1315 268.933 60.8444 268.933 61.6191L268.933 61.8242C268.933 62.5924 268.823 63.3053 268.601 63.9629C268.38 64.6139 268.058 65.1836 267.634 65.6719C267.211 66.1536 266.694 66.528 266.082 66.7949C265.47 67.0618 264.77 67.1953 263.982 67.1953C263.201 67.1953 262.501 67.0618 261.883 66.7949C261.264 66.528 260.743 66.1536 260.32 65.6719C259.897 65.1836 259.575 64.6139 259.353 63.9629C259.132 63.3053 259.021 62.5924 259.021 61.8242ZM261.599 61.6191L261.599 61.8242C261.599 62.2865 261.645 62.7194 261.736 63.123C261.827 63.5267 261.967 63.8815 262.156 64.1875C262.345 64.4935 262.589 64.7344 262.888 64.9102C263.194 65.0794 263.559 65.1641 263.982 65.1641C264.399 65.1641 264.757 65.0794 265.056 64.9102C265.356 64.7344 265.6 64.4935 265.789 64.1875C265.984 63.8815 266.127 63.5267 266.218 63.123C266.31 62.7194 266.355 62.2865 266.355 61.8242L266.355 61.6191C266.355 61.1634 266.31 60.737 266.218 60.3398C266.127 59.9362 265.984 59.5814 265.789 59.2754C265.6 58.9629 265.353 58.7187 265.047 58.543C264.747 58.3607 264.386 58.2695 263.963 58.2695C263.546 58.2695 263.188 58.3607 262.888 58.543C262.589 58.7187 262.345 58.9629 262.156 59.2754C261.967 59.5814 261.827 59.9362 261.736 60.3398C261.645 60.737 261.599 61.1634 261.599 61.6191ZM275.966 56.4336L275.966 58.2891L269.912 58.2891L269.912 56.4336L275.966 56.4336ZM271.533 53.8359L274.121 53.8359L274.121 63.9531C274.121 64.2656 274.163 64.5065 274.247 64.6758C274.332 64.8451 274.459 64.959 274.628 65.0176C274.798 65.0762 274.999 65.1055 275.234 65.1055C275.403 65.1055 275.559 65.0957 275.703 65.0762C275.846 65.0566 275.966 65.0371 276.064 65.0176L276.074 66.9512C275.859 67.0228 275.615 67.0814 275.341 67.127C275.074 67.1725 274.772 67.1953 274.433 67.1953C273.854 67.1953 273.346 67.0977 272.91 66.9023C272.473 66.7005 272.135 66.3783 271.894 65.9355C271.653 65.4863 271.533 64.8939 271.533 64.1582L271.533 53.8359ZM288.792 64.1094C288.792 63.888 288.733 63.6895 288.616 63.5137C288.499 63.3379 288.278 63.1784 287.952 63.0352C287.633 62.8854 287.164 62.7454 286.546 62.6152C285.999 62.498 285.494 62.3516 285.032 62.1758C284.57 62 284.173 61.7884 283.841 61.541C283.509 61.2871 283.248 60.9909 283.059 60.6523C282.877 60.3073 282.786 59.9102 282.786 59.4609C282.786 59.0247 282.88 58.6146 283.069 58.2305C283.258 57.8398 283.531 57.498 283.89 57.2051C284.248 56.9056 284.684 56.6712 285.198 56.502C285.712 56.3262 286.292 56.2383 286.936 56.2383C287.835 56.2383 288.606 56.3848 289.251 56.6777C289.902 56.9707 290.4 57.3743 290.745 57.8887C291.09 58.3965 291.263 58.9694 291.263 59.6074L288.684 59.6074C288.684 59.3275 288.619 59.0736 288.489 58.8457C288.365 58.6178 288.173 58.4355 287.913 58.2988C287.653 58.1556 287.324 58.084 286.927 58.084C286.569 58.084 286.266 58.1426 286.018 58.2598C285.778 58.377 285.595 58.5299 285.472 58.7187C285.348 58.9076 285.286 59.1159 285.286 59.3437C285.286 59.513 285.319 59.666 285.384 59.8027C285.455 59.9329 285.569 60.0534 285.725 60.1641C285.882 60.2747 286.093 60.3757 286.36 60.4668C286.634 60.5579 286.969 60.6458 287.366 60.7305C288.154 60.8867 288.841 61.0951 289.427 61.3555C290.019 61.6094 290.481 61.9479 290.813 62.3711C291.145 62.7943 291.311 63.3346 291.311 63.9922C291.311 64.4609 291.21 64.8906 291.009 65.2812C290.807 65.6654 290.514 66.0007 290.13 66.2871C289.746 66.5736 289.287 66.7982 288.753 66.9609C288.219 67.1172 287.617 67.1953 286.946 67.1953C285.976 67.1953 285.156 67.0228 284.485 66.6777C283.815 66.3262 283.307 65.8835 282.962 65.3496C282.617 64.8092 282.444 64.2493 282.444 63.6699L284.915 63.6699C284.934 64.0801 285.045 64.4089 285.247 64.6562C285.449 64.9036 285.703 65.0827 286.009 65.1934C286.321 65.2975 286.65 65.3496 286.995 65.3496C287.386 65.3496 287.714 65.2975 287.981 65.1934C288.248 65.0827 288.45 64.9362 288.587 64.7539C288.724 64.5651 288.792 64.3503 288.792 64.1094ZM298.432 56.4336L298.432 58.2891L292.378 58.2891L292.378 56.4336L298.432 56.4336ZM293.999 53.8359L296.587 53.8359L296.587 63.9531C296.587 64.2656 296.629 64.5065 296.713 64.6758C296.798 64.8451 296.925 64.959 297.094 65.0176C297.264 65.0762 297.465 65.1055 297.7 65.1055C297.869 65.1055 298.025 65.0957 298.169 65.0762C298.312 65.0566 298.432 65.0371 298.53 65.0176L298.54 66.9512C298.325 67.0228 298.081 67.0814 297.807 67.127C297.54 67.1725 297.238 67.1953 296.899 67.1953C296.32 67.1953 295.812 67.0977 295.376 66.9023C294.939 66.7005 294.601 66.3783 294.36 65.9355C294.119 65.4863 293.999 64.8939 293.999 64.1582L293.999 53.8359ZM306.129 64.7539L306.129 59.8809C306.129 59.5228 306.067 59.2135 305.944 58.9531C305.82 58.6927 305.631 58.4909 305.377 58.3477C305.123 58.2044 304.801 58.1328 304.41 58.1328C304.065 58.1328 303.763 58.1914 303.502 58.3086C303.248 58.4258 303.053 58.5918 302.916 58.8066C302.78 59.015 302.711 59.2559 302.711 59.5293L300.123 59.5293C300.123 59.0931 300.228 58.6797 300.436 58.2891C300.644 57.8919 300.94 57.5404 301.325 57.2344C301.715 56.9219 302.181 56.6777 302.721 56.502C303.268 56.3262 303.88 56.2383 304.557 56.2383C305.358 56.2383 306.071 56.375 306.696 56.6484C307.327 56.9154 307.822 57.319 308.18 57.8594C308.545 58.3997 308.727 59.0801 308.727 59.9004L308.727 64.5098C308.727 65.0371 308.759 65.4896 308.825 65.8672C308.896 66.2383 309 66.5605 309.137 66.834L309.137 67L306.51 67C306.386 66.7331 306.292 66.3945 306.227 65.9844C306.162 65.5677 306.129 65.1576 306.129 64.7539ZM306.491 60.5645L306.51 62.0977L304.879 62.0977C304.476 62.0977 304.121 62.14 303.815 62.2246C303.509 62.3027 303.258 62.4199 303.063 62.5762C302.867 62.7259 302.721 62.9082 302.623 63.123C302.526 63.3314 302.477 63.569 302.477 63.8359C302.477 64.0964 302.535 64.3307 302.653 64.5391C302.776 64.7474 302.952 64.9134 303.18 65.0371C303.414 65.1543 303.688 65.2129 304 65.2129C304.456 65.2129 304.853 65.1217 305.192 64.9395C305.53 64.7507 305.794 64.5228 305.983 64.2559C306.172 63.9889 306.272 63.735 306.285 63.4941L307.028 64.6074C306.936 64.8743 306.8 65.1576 306.617 65.457C306.435 65.7565 306.201 66.0365 305.914 66.2969C305.628 66.5573 305.283 66.7721 304.879 66.9414C304.476 67.1107 304.007 67.1953 303.473 67.1953C302.789 67.1953 302.177 67.0586 301.637 66.7852C301.097 66.5117 300.67 66.1374 300.358 65.6621C300.045 65.1868 299.889 64.6465 299.889 64.041C299.889 63.4811 299.993 62.9863 300.201 62.5566C300.41 62.127 300.719 61.7656 301.129 61.4727C301.539 61.1732 302.047 60.9486 302.653 60.7988C303.265 60.6426 303.964 60.5645 304.752 60.5645L306.491 60.5645ZM313.787 58.5918L313.787 67L311.209 67L311.209 56.4336L313.65 56.4336L313.787 58.5918ZM317 56.3652L316.961 58.7676C316.818 58.7415 316.655 58.722 316.473 58.709C316.297 58.696 316.131 58.6895 315.975 58.6895C315.577 58.6895 315.229 58.7448 314.93 58.8555C314.63 58.9596 314.38 59.1126 314.178 59.3145C313.982 59.5163 313.833 59.7637 313.729 60.0566C313.624 60.3431 313.566 60.6686 313.553 61.0332L312.996 60.9648C312.996 60.2943 313.064 59.6725 313.201 59.0996C313.338 58.5267 313.536 58.0254 313.797 57.5957C314.057 57.166 314.383 56.834 314.773 56.5996C315.171 56.3587 315.626 56.2383 316.141 56.2383C316.284 56.2383 316.437 56.2513 316.6 56.2773C316.769 56.2969 316.902 56.3262 317 56.3652ZM324.062 56.4336L324.062 58.2891L318.008 58.2891L318.008 56.4336L324.062 56.4336ZM319.629 53.8359L322.217 53.8359L322.217 63.9531C322.217 64.2656 322.259 64.5065 322.343 64.6758C322.428 64.8451 322.555 64.959 322.724 65.0176C322.894 65.0762 323.095 65.1055 323.33 65.1055C323.499 65.1055 323.655 65.0957 323.799 65.0762C323.942 65.0566 324.062 65.0371 324.16 65.0176L324.17 66.9512C323.955 67.0228 323.711 67.0814 323.437 67.127C323.17 67.1725 322.868 67.1953 322.529 67.1953C321.95 67.1953 321.442 67.0977 321.006 66.9023C320.569 66.7005 320.231 66.3783 319.99 65.9355C319.749 65.4863 319.629 64.8939 319.629 64.1582L319.629 53.8359ZM330.685 67.1953C329.884 67.1953 329.165 67.0651 328.527 66.8047C327.889 66.5443 327.345 66.1829 326.896 65.7207C326.453 65.252 326.111 64.7083 325.871 64.0898C325.636 63.4648 325.519 62.7943 325.519 62.0781L325.519 61.6875C325.519 60.8737 325.636 60.1348 325.871 59.4707C326.105 58.8001 326.437 58.224 326.867 57.7422C327.296 57.2604 327.811 56.8893 328.41 56.6289C329.009 56.3685 329.669 56.2383 330.392 56.2383C331.141 56.2383 331.802 56.3652 332.374 56.6191C332.947 56.8665 333.426 57.2181 333.81 57.6738C334.194 58.1296 334.484 58.6764 334.679 59.3145C334.874 59.946 334.972 60.6458 334.972 61.4141L334.972 62.498L326.691 62.498L326.691 60.7207L332.433 60.7207L332.433 60.5254C332.42 60.1152 332.342 59.7409 332.199 59.4023C332.055 59.0573 331.834 58.7839 331.535 58.582C331.235 58.3737 330.848 58.2695 330.373 58.2695C329.988 58.2695 329.653 58.3542 329.367 58.5234C329.087 58.6862 328.852 58.9206 328.664 59.2266C328.481 59.526 328.345 59.8841 328.253 60.3008C328.162 60.7174 328.117 61.1797 328.117 61.6875L328.117 62.0781C328.117 62.5208 328.175 62.931 328.292 63.3086C328.416 63.6862 328.595 64.015 328.83 64.2949C329.07 64.5684 329.357 64.7832 329.689 64.9395C330.027 65.0892 330.412 65.1641 330.841 65.1641C331.382 65.1641 331.87 65.0599 332.306 64.8516C332.749 64.6367 333.133 64.321 333.458 63.9043L334.757 65.252C334.536 65.5775 334.236 65.89 333.859 66.1895C333.488 66.4889 333.039 66.7331 332.511 66.9219C331.984 67.1042 331.375 67.1953 330.685 67.1953ZM343.196 64.7539L343.196 52L345.794 52L345.794 67L343.45 67L343.196 64.7539ZM336.409 61.8437L336.409 61.6387C336.409 60.8314 336.5 60.099 336.683 59.4414C336.872 58.7773 337.145 58.2077 337.503 57.7324C337.861 57.2572 338.294 56.8893 338.802 56.6289C339.316 56.3685 339.899 56.2383 340.55 56.2383C341.181 56.2383 341.732 56.3652 342.2 56.6191C342.676 56.873 343.079 57.2344 343.411 57.7031C343.75 58.1719 344.02 58.7285 344.222 59.373C344.424 60.0111 344.57 60.7142 344.661 61.4824L344.661 62.0391C344.57 62.7878 344.424 63.4746 344.222 64.0996C344.02 64.7246 343.75 65.2715 343.411 65.7402C343.079 66.2025 342.676 66.5605 342.2 66.8145C341.725 67.0684 341.168 67.1953 340.53 67.1953C339.886 67.1953 339.306 67.0618 338.792 66.7949C338.284 66.528 337.851 66.1536 337.493 65.6719C337.142 65.1901 336.872 64.6237 336.683 63.9727C336.5 63.3216 336.409 62.612 336.409 61.8437ZM338.997 61.6387L338.997 61.8437C338.997 62.2995 339.036 62.7259 339.114 63.123C339.193 63.5202 339.32 63.8717 339.495 64.1777C339.671 64.4772 339.896 64.7116 340.169 64.8809C340.449 65.0501 340.788 65.1348 341.185 65.1348C341.693 65.1348 342.109 65.0241 342.435 64.8027C342.767 64.5749 343.024 64.2656 343.206 63.875C343.389 63.4779 343.506 63.0319 343.558 62.5371L343.558 61.0039C343.532 60.6133 343.463 60.252 343.353 59.9199C343.249 59.5879 343.099 59.3014 342.903 59.0605C342.715 58.8197 342.48 58.6309 342.2 58.4941C341.92 58.3574 341.588 58.2891 341.204 58.2891C340.807 58.2891 340.469 58.377 340.189 58.5527C339.909 58.722 339.681 58.9596 339.505 59.2656C339.329 59.5716 339.199 59.9264 339.114 60.3301C339.036 60.7337 338.997 61.1699 338.997 61.6387Z" fill="white"/>
<rect x="381" y="40" width="138" height="40" rx="20" fill="#00CF7C"/>
<path d="M409.678 62.3223L412.363 62.3223C412.292 63.2728 412.028 64.1159 411.572 64.8516C411.117 65.5807 410.482 66.1536 409.668 66.5703C408.854 66.987 407.868 67.1953 406.709 67.1953C405.817 67.1953 405.013 67.0391 404.297 66.7266C403.587 66.4076 402.979 65.9551 402.471 65.3691C401.969 64.7767 401.585 64.0671 401.318 63.2402C401.051 62.4069 400.918 61.4727 400.918 60.4375L400.918 59.3535C400.918 58.3184 401.055 57.3841 401.328 56.5508C401.602 55.7174 401.992 55.0078 402.5 54.4219C403.014 53.8294 403.63 53.3737 404.346 53.0547C405.068 52.7357 405.876 52.5762 406.768 52.5762C407.926 52.5762 408.906 52.791 409.707 53.2207C410.508 53.6439 411.13 54.2266 411.572 54.9687C412.015 55.7109 412.282 56.5638 412.373 57.5273L409.688 57.5273C409.635 56.9284 409.505 56.4206 409.297 56.0039C409.095 55.5872 408.789 55.2715 408.379 55.0566C407.975 54.8353 407.438 54.7246 406.768 54.7246C406.247 54.7246 405.788 54.8223 405.391 55.0176C405 55.2129 404.674 55.5059 404.414 55.8965C404.154 56.2806 403.958 56.7624 403.828 57.3418C403.698 57.9147 403.633 58.5788 403.633 59.334L403.633 60.4375C403.633 61.1602 403.691 61.8079 403.809 62.3809C403.926 62.9538 404.108 63.4388 404.355 63.8359C404.603 64.2331 404.922 64.5358 405.313 64.7441C405.703 64.9525 406.169 65.0566 406.709 65.0566C407.367 65.0566 407.9 64.9525 408.311 64.7441C408.727 64.5358 409.043 64.2298 409.258 63.8262C409.479 63.4225 409.619 62.9212 409.678 62.3223ZM413.947 61.8242L413.947 61.6191C413.947 60.8444 414.058 60.1315 414.279 59.4805C414.5 58.8229 414.823 58.2533 415.246 57.7715C415.669 57.2897 416.187 56.9154 416.799 56.6484C417.411 56.375 418.107 56.2383 418.888 56.2383C419.683 56.2383 420.386 56.375 420.998 56.6484C421.616 56.9154 422.137 57.2897 422.56 57.7715C422.983 58.2533 423.306 58.8229 423.527 59.4805C423.748 60.1315 423.859 60.8444 423.859 61.6191L423.859 61.8242C423.859 62.5924 423.748 63.3053 423.527 63.9629C423.306 64.6139 422.983 65.1836 422.56 65.6719C422.137 66.1536 421.62 66.528 421.008 66.7949C420.396 67.0618 419.696 67.1953 418.908 67.1953C418.127 67.1953 417.427 67.0618 416.808 66.7949C416.19 66.528 415.669 66.1536 415.246 65.6719C414.823 65.1836 414.5 64.6139 414.279 63.9629C414.058 63.3053 413.947 62.5924 413.947 61.8242ZM416.525 61.6191L416.525 61.8242C416.525 62.2865 416.571 62.7194 416.662 63.123C416.753 63.5267 416.893 63.8815 417.082 64.1875C417.271 64.4935 417.515 64.7344 417.814 64.9102C418.12 65.0794 418.485 65.1641 418.908 65.1641C419.325 65.1641 419.683 65.0794 419.982 64.9102C420.282 64.7344 420.526 64.4935 420.715 64.1875C420.91 63.8815 421.053 63.5267 421.144 63.123C421.235 62.7194 421.281 62.2865 421.281 61.8242L421.281 61.6191C421.281 61.1634 421.235 60.737 421.144 60.3398C421.053 59.9362 420.91 59.5814 420.715 59.2754C420.526 58.9629 420.278 58.7187 419.972 58.543C419.673 58.3607 419.312 58.2695 418.888 58.2695C418.472 58.2695 418.114 58.3607 417.814 58.543C417.515 58.7187 417.271 58.9629 417.082 59.2754C416.893 59.5814 416.753 59.9362 416.662 60.3398C416.571 60.737 416.525 61.1634 416.525 61.6191ZM428.46 58.6016L428.46 67L425.882 67L425.882 56.4336L428.314 56.4336L428.46 58.6016ZM428.08 61.3359L427.289 61.3359C427.289 60.6003 427.376 59.9232 427.552 59.3047C427.734 58.6862 428.001 58.1491 428.353 57.6934C428.705 57.2311 429.137 56.873 429.652 56.6191C430.173 56.3652 430.775 56.2383 431.458 56.2383C431.934 56.2383 432.37 56.3099 432.767 56.4531C433.164 56.5898 433.506 56.8079 433.792 57.1074C434.085 57.4004 434.31 57.7845 434.466 58.2598C434.622 58.7285 434.701 59.2917 434.701 59.9492L434.701 67L432.122 67L432.122 60.2129C432.122 59.7181 432.051 59.3307 431.908 59.0508C431.771 58.7708 431.572 58.5755 431.312 58.4648C431.052 58.3477 430.739 58.2891 430.374 58.2891C429.971 58.2891 429.622 58.3704 429.33 58.5332C429.043 58.6895 428.805 58.9076 428.617 59.1875C428.434 59.4674 428.298 59.7897 428.206 60.1543C428.122 60.5189 428.08 60.9128 428.08 61.3359ZM434.505 60.8574L433.441 61.0527C433.447 60.3887 433.539 59.7669 433.714 59.1875C433.89 58.6016 434.147 58.0905 434.486 57.6543C434.831 57.2116 435.257 56.8665 435.765 56.6191C436.279 56.3652 436.872 56.2383 437.542 56.2383C438.063 56.2383 438.532 56.3132 438.949 56.4629C439.372 56.6061 439.733 56.8372 440.033 57.1562C440.332 57.4687 440.56 57.8757 440.716 58.377C440.879 58.8783 440.96 59.4902 440.96 60.2129L440.96 67L438.363 67L438.363 60.2031C438.363 59.6888 438.291 59.2949 438.148 59.0215C438.011 58.748 437.813 58.5592 437.552 58.4551C437.292 58.3444 436.986 58.2891 436.634 58.2891C436.276 58.2891 435.964 58.3574 435.697 58.4941C435.436 58.6243 435.215 58.8066 435.033 59.041C434.857 59.2754 434.723 59.5488 434.632 59.8613C434.548 60.1673 434.505 60.4993 434.505 60.8574ZM446.011 58.4648L446.011 71.0625L443.423 71.0625L443.423 56.4336L445.816 56.4336L446.011 58.4648ZM452.798 61.6094L452.798 61.8145C452.798 62.5827 452.707 63.2956 452.525 63.9531C452.349 64.6042 452.088 65.1738 451.743 65.6621C451.398 66.1439 450.969 66.5215 450.454 66.7949C449.946 67.0618 449.361 67.1953 448.696 67.1953C448.045 67.1953 447.479 67.0716 446.997 66.8242C446.515 66.5703 446.109 66.2122 445.777 65.75C445.444 65.2878 445.178 64.7507 444.976 64.1387C444.78 63.5202 444.634 62.8464 444.536 62.1172L444.536 61.4629C444.634 60.6882 444.78 59.985 444.976 59.3535C445.178 58.7155 445.444 58.1654 445.777 57.7031C446.109 57.2344 446.512 56.873 446.987 56.6191C447.469 56.3652 448.032 56.2383 448.677 56.2383C449.347 56.2383 449.937 56.3652 450.444 56.6191C450.959 56.873 451.392 57.2376 451.743 57.7129C452.095 58.1882 452.359 58.7546 452.534 59.4121C452.71 60.0697 452.798 60.8021 452.798 61.6094ZM450.21 61.8145L450.21 61.6094C450.21 61.1406 450.168 60.7077 450.083 60.3105C449.999 59.9069 449.868 59.5553 449.693 59.2559C449.517 58.9499 449.289 58.7122 449.009 58.543C448.729 58.3737 448.39 58.2891 447.993 58.2891C447.596 58.2891 447.254 58.3542 446.968 58.4844C446.681 58.6146 446.447 58.8001 446.265 59.041C446.083 59.2819 445.939 59.5684 445.835 59.9004C445.737 60.2259 445.672 60.5872 445.64 60.9844L445.64 62.6055C445.698 63.0872 445.812 63.5202 445.982 63.9043C446.151 64.2884 446.398 64.5944 446.724 64.8223C447.056 65.0501 447.486 65.1641 448.013 65.1641C448.41 65.1641 448.749 65.0762 449.028 64.9004C449.308 64.7246 449.536 64.4837 449.712 64.1777C449.888 63.8652 450.015 63.5072 450.093 63.1035C450.171 62.6999 450.21 62.2702 450.21 61.8145ZM457.575 52L457.575 67L454.987 67L454.987 52L457.575 52ZM464.94 67.1953C464.139 67.1953 463.42 67.0651 462.782 66.8047C462.144 66.5443 461.6 66.1829 461.151 65.7207C460.708 65.252 460.366 64.7083 460.126 64.0898C459.891 63.4648 459.774 62.7943 459.774 62.0781L459.774 61.6875C459.774 60.8737 459.891 60.1348 460.126 59.4707C460.36 58.8001 460.692 58.224 461.122 57.7422C461.551 57.2604 462.066 56.8893 462.665 56.6289C463.264 56.3685 463.924 56.2383 464.647 56.2383C465.396 56.2383 466.057 56.3652 466.629 56.6191C467.202 56.8665 467.681 57.2181 468.065 57.6738C468.449 58.1296 468.739 58.6764 468.934 59.3145C469.129 59.946 469.227 60.6458 469.227 61.4141L469.227 62.498L460.946 62.498L460.946 60.7207L466.688 60.7207L466.688 60.5254C466.675 60.1152 466.597 59.7409 466.454 59.4023C466.31 59.0573 466.089 58.7839 465.79 58.582C465.49 58.3737 465.103 58.2695 464.628 58.2695C464.243 58.2695 463.908 58.3542 463.622 58.5234C463.342 58.6862 463.107 58.9206 462.919 59.2266C462.736 59.526 462.6 59.8841 462.508 60.3008C462.417 60.7174 462.372 61.1797 462.372 61.6875L462.372 62.0781C462.372 62.5208 462.43 62.931 462.547 63.3086C462.671 63.6862 462.85 64.015 463.085 64.2949C463.325 64.5684 463.612 64.7832 463.944 64.9395C464.282 65.0892 464.667 65.1641 465.096 65.1641C465.637 65.1641 466.125 65.0599 466.561 64.8516C467.004 64.6367 467.388 64.321 467.713 63.9043L469.012 65.252C468.791 65.5775 468.491 65.89 468.114 66.1895C467.743 66.4889 467.294 66.7331 466.766 66.9219C466.239 67.1042 465.63 67.1953 464.94 67.1953ZM476.114 56.4336L476.114 58.2891L470.059 58.2891L470.059 56.4336L476.114 56.4336ZM471.68 53.8359L474.268 53.8359L474.268 63.9531C474.268 64.2656 474.31 64.5065 474.395 64.6758C474.479 64.8451 474.606 64.959 474.776 65.0176C474.945 65.0762 475.147 65.1055 475.381 65.1055C475.55 65.1055 475.707 65.0957 475.85 65.0762C475.993 65.0566 476.114 65.0371 476.211 65.0176L476.221 66.9512C476.006 67.0228 475.762 67.0814 475.489 67.127C475.222 67.1725 474.919 67.1953 474.58 67.1953C474.001 67.1953 473.493 67.0977 473.057 66.9023C472.621 66.7005 472.282 66.3783 472.041 65.9355C471.8 65.4863 471.68 64.8939 471.68 64.1582L471.68 53.8359ZM482.736 67.1953C481.936 67.1953 481.216 67.0651 480.578 66.8047C479.94 66.5443 479.397 66.1829 478.947 65.7207C478.505 65.252 478.163 64.7083 477.922 64.0898C477.688 63.4648 477.57 62.7943 477.57 62.0781L477.57 61.6875C477.57 60.8737 477.688 60.1348 477.922 59.4707C478.156 58.8001 478.488 58.224 478.918 57.7422C479.348 57.2604 479.862 56.8893 480.461 56.6289C481.06 56.3685 481.721 56.2383 482.443 56.2383C483.192 56.2383 483.853 56.3652 484.426 56.6191C484.999 56.8665 485.477 57.2181 485.861 57.6738C486.245 58.1296 486.535 58.6764 486.73 59.3145C486.926 59.946 487.023 60.6458 487.023 61.4141L487.023 62.498L478.742 62.498L478.742 60.7207L484.484 60.7207L484.484 60.5254C484.471 60.1152 484.393 59.7409 484.25 59.4023C484.107 59.0573 483.885 58.7839 483.586 58.582C483.286 58.3737 482.899 58.2695 482.424 58.2695C482.04 58.2695 481.704 58.3542 481.418 58.5234C481.138 58.6862 480.904 58.9206 480.715 59.2266C480.533 59.526 480.396 59.8841 480.305 60.3008C480.214 60.7174 480.168 61.1797 480.168 61.6875L480.168 62.0781C480.168 62.5208 480.227 62.931 480.344 63.3086C480.467 63.6862 480.647 64.015 480.881 64.2949C481.122 64.5684 481.408 64.7832 481.74 64.9395C482.079 65.0892 482.463 65.1641 482.893 65.1641C483.433 65.1641 483.921 65.0599 484.357 64.8516C484.8 64.6367 485.184 64.321 485.51 63.9043L486.809 65.252C486.587 65.5775 486.288 65.89 485.91 66.1895C485.539 66.4889 485.09 66.7331 484.563 66.9219C484.035 67.1042 483.426 67.1953 482.736 67.1953ZM495.248 64.7539L495.248 52L497.845 52L497.845 67L495.502 67L495.248 64.7539ZM488.461 61.8437L488.461 61.6387C488.461 60.8314 488.552 60.099 488.734 59.4414C488.923 58.7773 489.196 58.2077 489.554 57.7324C489.913 57.2572 490.345 56.8893 490.853 56.6289C491.368 56.3685 491.95 56.2383 492.601 56.2383C493.233 56.2383 493.783 56.3652 494.252 56.6191C494.727 56.873 495.131 57.2344 495.463 57.7031C495.801 58.1719 496.071 58.7285 496.273 59.373C496.475 60.0111 496.621 60.7142 496.713 61.4824L496.713 62.0391C496.621 62.7878 496.475 63.4746 496.273 64.0996C496.071 64.7246 495.801 65.2715 495.463 65.7402C495.131 66.2025 494.727 66.5605 494.252 66.8145C493.776 67.0684 493.22 67.1953 492.582 67.1953C491.937 67.1953 491.358 67.0618 490.843 66.7949C490.336 66.528 489.903 66.1536 489.545 65.6719C489.193 65.1901 488.923 64.6237 488.734 63.9727C488.552 63.3216 488.461 62.612 488.461 61.8437ZM491.049 61.6387L491.049 61.8437C491.049 62.2995 491.088 62.7259 491.166 63.123C491.244 63.5202 491.371 63.8717 491.547 64.1777C491.722 64.4772 491.947 64.7116 492.22 64.8809C492.5 65.0501 492.839 65.1348 493.236 65.1348C493.744 65.1348 494.161 65.0241 494.486 64.8027C494.818 64.5749 495.075 64.2656 495.258 63.875C495.44 63.4779 495.557 63.0319 495.609 62.5371L495.609 61.0039C495.583 60.6133 495.515 60.252 495.404 59.9199C495.3 59.5879 495.15 59.3014 494.955 59.0605C494.766 58.8197 494.532 58.6309 494.252 58.4941C493.972 58.3574 493.64 58.2891 493.256 58.2891C492.858 58.2891 492.52 58.377 492.24 58.5527C491.96 58.722 491.732 58.9596 491.556 59.2656C491.381 59.5716 491.25 59.9264 491.166 60.3301C491.088 60.7337 491.049 61.1699 491.049 61.6387Z" fill="white"/>
<defs>
<filter id="filter0_d_267_13701" x="0.0975533" y="0.31097" width="587.805" height="147.805" filterUnits="userSpaceOnUse" color-interpolation-filters="sRGB">
<feFlood flood-opacity="0" result="BackgroundImageFix"/>
<feColorMatrix in="SourceAlpha" type="matrix" values="0 0 0 0 0 0 0 0 0 0 0 0 0 0 0 0 0 0 127 0" result="hardAlpha"/>
<feOffset dy="14.2134"/>
<feGaussianBlur stdDeviation="18.9512"/>
<feComposite in2="hardAlpha" operator="out"/>
<feColorMatrix type="matrix" values="0 0 0 0 0 0 0 0 0 0 0 0 0 0 0 0 0 0 0.18 0"/>
<feBlend mode="normal" in2="BackgroundImageFix" result="effect1_dropShadow_267_13701"/>
<feBlend mode="normal" in="SourceGraphic" in2="effect1_dropShadow_267_13701" result="shape"/>
</filter>
</defs>
</svg>
