<svg width="380" height="380" viewBox="0 0 380 380" fill="none" xmlns="http://www.w3.org/2000/svg">
<g clip-path="url(#clip0_242_16417)">
<path d="M190.041 379.628C277.763 379.628 348.876 352.016 348.876 317.955C348.876 283.894 277.763 256.282 190.041 256.282C102.319 256.282 31.2061 283.894 31.2061 317.955C31.2061 352.016 102.319 379.628 190.041 379.628Z" fill="#BB9FFF"/>
<path d="M190.041 380C147.57 380 107.635 373.576 77.5935 361.911C47.4407 350.203 30.835 334.593 30.835 317.956C30.835 301.319 47.4407 285.708 77.5935 274C107.635 262.335 147.569 255.911 190.041 255.911C232.513 255.911 272.447 262.335 302.488 274C332.641 285.708 349.247 301.319 349.247 317.956C349.247 334.593 332.641 350.203 302.488 361.911C272.447 373.576 232.512 380 190.041 380ZM190.041 256.653C102.664 256.653 31.5771 284.154 31.5771 317.956C31.5771 351.758 102.664 379.257 190.041 379.257C277.418 379.257 348.505 351.758 348.505 317.956C348.505 284.154 277.418 256.653 190.041 256.653Z" fill="black"/>
<path d="M322.204 169.092C322.086 171.325 321.916 173.543 321.694 175.736C319.423 197.851 311.659 218.209 299.836 235.502C275.177 271.577 232.886 294.311 186.071 291.898C149.882 290.028 117.934 273.494 95.6739 248.342C79.5202 230.082 68.4749 207.286 64.6237 182.263C63.3034 173.649 62.8313 164.772 63.2945 155.732C66.5823 91.9427 115.426 41.3107 176.684 33.733C179.132 33.4302 181.599 33.1941 184.094 33.0338C189.135 32.6946 194.252 32.6583 199.429 32.9255C226.893 34.3393 251.91 44.2104 272.113 59.8802C286.301 70.8928 298.11 84.7576 306.707 100.576C317.736 120.864 323.48 144.346 322.204 169.092Z" fill="#FFBE32"/>
<path d="M192.754 292.441C190.521 292.441 188.287 292.384 186.05 292.269C150.914 290.452 118.718 274.94 95.3952 248.587C78.811 229.84 68.0434 206.926 64.2567 182.319C62.9164 173.571 62.4673 164.619 62.9238 155.712C64.5069 125.002 76.9571 95.7693 97.9803 73.399C118.761 51.2862 146.695 37.0682 176.637 33.3654C179.137 33.0559 181.637 32.8191 184.07 32.664C189.102 32.3248 194.275 32.2877 199.447 32.5557C226.104 33.928 251.309 43.2758 272.339 59.5876C286.698 70.733 298.37 84.4643 307.031 100.399C318.435 121.377 323.81 145.137 322.574 169.111V169.112C322.454 171.351 322.282 173.593 322.061 175.774C319.858 197.233 312.278 217.959 300.141 235.711C287.786 253.785 270.941 268.569 251.428 278.464C233.3 287.656 213.145 292.441 192.754 292.441ZM192.636 33.1205C189.77 33.1205 186.923 33.2155 184.119 33.404C181.7 33.5591 179.214 33.7936 176.729 34.1009C146.957 37.7836 119.183 51.9193 98.5206 73.9066C77.6176 96.15 65.2387 125.216 63.6652 155.75C63.211 164.606 63.6571 173.507 64.99 182.206C68.7551 206.671 79.4612 229.455 95.9511 248.095C119.141 274.297 151.153 289.721 186.089 291.527C208.611 292.689 231.095 287.941 251.094 277.801C270.496 267.963 287.245 253.263 299.529 235.291C311.597 217.64 319.133 197.033 321.324 175.698C321.543 173.529 321.714 171.3 321.833 169.073C323.062 145.235 317.718 121.61 306.38 100.753C297.768 84.9081 286.163 71.2548 271.884 60.1725C250.976 43.9542 225.914 34.6598 199.409 33.2949C197.148 33.1791 194.885 33.1205 192.636 33.1205Z" fill="black"/>
<path d="M79.5055 158.279C79.36 157.814 79.1106 157.414 78.7566 157.079L77.7858 156.165C77.5268 155.902 77.224 155.721 76.8781 155.62C76.5434 155.456 76.1849 155.388 75.8049 155.413C75.4235 155.41 75.0709 155.501 74.7458 155.684C74.4059 155.806 74.115 156.006 73.8723 156.284C73.7335 156.475 73.5954 156.666 73.4567 156.857C73.2192 157.296 73.1078 157.766 73.1212 158.266C73.162 158.51 73.2021 158.754 73.2422 158.999C73.3876 159.463 73.6378 159.863 73.991 160.199C74.3146 160.503 74.6382 160.808 74.9618 161.113C75.2208 161.375 75.5236 161.556 75.8702 161.658C76.205 161.821 76.5627 161.89 76.9435 161.864C77.3249 161.867 77.6782 161.777 78.0026 161.594C78.3425 161.472 78.6334 161.271 78.8761 160.994L79.2917 160.421C79.5292 159.981 79.6406 159.512 79.6272 159.012C79.5864 158.767 79.5456 158.523 79.5055 158.279Z" fill="white"/>
<path d="M246.839 265.973C246.694 265.509 246.444 265.109 246.09 264.774C245.767 264.469 245.443 264.165 245.12 263.859C244.861 263.597 244.558 263.416 244.212 263.314C243.876 263.151 243.519 263.082 243.138 263.108C242.756 263.105 242.404 263.195 242.079 263.379C241.739 263.5 241.448 263.701 241.205 263.977L240.79 264.551C240.552 264.991 240.441 265.46 240.454 265.96C240.494 266.204 240.535 266.448 240.575 266.692C240.721 267.157 240.97 267.557 241.324 267.893L242.295 268.807C242.554 269.069 242.857 269.251 243.203 269.352C243.538 269.516 243.896 269.584 244.276 269.559C244.657 269.562 245.01 269.471 245.335 269.288C245.674 269.166 245.966 268.966 246.208 268.689L246.624 268.115C246.861 267.676 246.973 267.207 246.959 266.707C246.919 266.462 246.879 266.217 246.839 265.973Z" fill="white"/>
<path d="M228.269 259.468C228.124 259.003 227.874 258.603 227.52 258.268C227.197 257.963 226.873 257.659 226.55 257.354C226.29 257.092 225.988 256.91 225.642 256.808C225.306 256.645 224.949 256.576 224.569 256.602C224.187 256.599 223.835 256.69 223.51 256.873C223.17 256.995 222.879 257.195 222.636 257.472L222.22 258.046C221.983 258.485 221.872 258.954 221.885 259.454C221.925 259.698 221.966 259.943 222.006 260.188C222.151 260.652 222.401 261.052 222.755 261.387L223.725 262.301C223.985 262.563 224.287 262.745 224.633 262.847C224.968 263.01 225.326 263.079 225.706 263.053C226.088 263.056 226.441 262.966 226.766 262.782C227.105 262.66 227.396 262.46 227.639 262.183L228.055 261.61C228.292 261.17 228.404 260.701 228.39 260.201C228.35 259.957 228.31 259.712 228.269 259.468Z" fill="white"/>
<path d="M296.98 222.863C296.735 222.064 296.401 221.311 296.049 220.554C295.793 220.001 295.499 219.467 295.168 218.954C294.787 218.364 294.161 217.898 293.475 217.732C293.104 217.627 292.735 217.622 292.37 217.716C292.002 217.744 291.663 217.863 291.351 218.075C290.772 218.474 290.269 219.057 290.13 219.768C289.987 220.494 290.063 221.257 290.473 221.893C290.748 222.317 290.979 222.767 291.202 223.22C291.38 223.639 291.554 224.06 291.688 224.496C291.784 224.853 291.958 225.162 292.212 225.422C292.416 225.717 292.681 225.947 293.009 226.111C293.333 226.304 293.68 226.403 294.048 226.409C294.419 226.48 294.786 226.453 295.151 226.326C295.813 226.089 296.447 225.654 296.766 225.003C297.094 224.335 297.203 223.591 296.98 222.863Z" fill="white"/>
<path d="M184.291 66.1051C184.207 65.9508 184.113 65.8031 184.006 65.6643C183.766 65.3511 183.517 65.026 183.227 64.7529C183.165 64.6942 183.1 64.6386 183.033 64.5859C182.787 64.3907 182.53 64.2059 182.27 64.03C182.124 63.9313 181.971 63.8459 181.812 63.7717C181.488 63.5787 181.142 63.48 180.773 63.4741C180.402 63.4028 180.035 63.4303 179.671 63.5572C179.313 63.6537 179.004 63.8288 178.744 64.0812C178.449 64.2853 178.22 64.5517 178.055 64.8798C177.969 65.1032 177.883 65.3266 177.796 65.5492C177.679 66.0443 177.693 66.5341 177.84 67.021C177.94 67.2385 178.04 67.4559 178.139 67.6741C178.398 68.0823 178.739 68.4037 179.162 68.6367C179.231 68.6694 179.293 68.7154 179.36 68.7525C179.397 68.7859 179.433 68.8201 179.469 68.8549C179.51 68.9195 179.559 68.9774 179.596 69.0449C179.779 69.3619 180.025 69.6142 180.332 69.7997C180.607 70.0365 180.925 70.1916 181.288 70.2666C181.659 70.3712 182.028 70.3757 182.393 70.2829C182.761 70.2547 183.1 70.1352 183.412 69.9229L183.959 69.4732C184.291 69.1177 184.516 68.7035 184.634 68.23C184.659 67.9836 184.685 67.7372 184.71 67.4915C184.694 66.9913 184.554 66.5289 184.291 66.1051Z" fill="white"/>
<path d="M178.698 50.3737C178.831 51.4751 181.229 52.0918 184.054 51.7512C186.88 51.4105 189.063 50.2423 188.931 49.1409C188.798 48.0395 186.4 47.4235 183.574 47.7634C180.749 48.1033 178.566 49.2723 178.698 50.3737Z" fill="black"/>
<path d="M182.527 52.2167C181.699 52.2167 180.928 52.1313 180.273 51.9628C179.104 51.6622 178.413 51.113 178.329 50.4183C178.245 49.7229 178.786 49.0267 179.85 48.456C180.811 47.9424 182.117 47.5654 183.529 47.3954C184.939 47.2255 186.298 47.2811 187.353 47.552C188.523 47.8526 189.214 48.4018 189.298 49.0965C189.482 50.6306 186.756 51.7988 184.098 52.1194C183.563 52.184 183.034 52.2167 182.527 52.2167ZM185.105 48.0404C184.628 48.0404 184.127 48.0708 183.618 48.1317C182.297 48.2912 181.083 48.6386 180.202 49.1099C179.448 49.5136 179.023 49.9693 179.067 50.3293C179.11 50.6892 179.63 51.0306 180.459 51.2437C181.427 51.4923 182.688 51.5405 184.01 51.3832C186.727 51.0559 188.654 49.9523 188.562 49.1856C188.519 48.8264 187.999 48.4849 187.17 48.2712C186.574 48.1183 185.868 48.0404 185.105 48.0404Z" fill="black"/>
<path d="M171.069 19.2321C169.133 17.5288 167.248 14.6313 165.35 12.7439C163.287 10.6932 161.107 8.8593 158.834 7.27695C154.37 4.16867 149.521 2.01113 144.549 1.2682C139.828 0.563125 135.881 2.33992 131.449 3.94676C119.833 8.1557 104.258 1.26969 102.296 0.775391C103.641 3.92152 104.964 6.77004 106.19 9.3818C110.193 17.908 115.361 25.6951 121.967 30.5935C127.006 34.3297 132.815 35.8319 138.239 33.0709C143.061 30.6143 164.556 18.9968 171.069 19.2321Z" fill="#00A45C"/>
<path d="M132.398 34.8503C128.927 34.8503 125.288 33.5173 121.745 30.8907C115.774 26.4636 110.428 19.2799 105.854 9.53871C104.689 7.05758 103.332 4.14152 101.954 0.92043L101.66 0.232422L102.386 0.414258C102.671 0.48625 103.173 0.665859 103.936 0.938242C108.715 2.64676 121.414 7.18598 131.322 3.59676C131.82 3.41641 132.31 3.23457 132.797 3.05273C136.665 1.6166 140.321 0.256914 144.604 0.900391C149.438 1.62254 154.297 3.66504 159.047 6.97148C161.314 8.55012 163.524 10.4034 165.612 12.48C166.48 13.3424 167.353 14.423 168.197 15.4688C169.218 16.7312 170.273 18.0368 171.314 18.9541L172.095 19.6406L171.056 19.6035C165.361 19.4232 147.293 28.7836 140.5 32.3179C139.636 32.7669 138.925 33.1373 138.407 33.4008C136.503 34.3693 134.481 34.8503 132.398 34.8503ZM102.96 1.3791C104.221 4.29219 105.456 6.9418 106.527 9.22254C111.047 18.8517 116.317 25.9411 122.188 30.2947C127.619 34.3196 133.258 35.1887 138.07 32.7395C138.588 32.4768 139.296 32.1071 140.158 31.6596C147.29 27.9494 163.54 19.4966 170.171 18.8925C169.306 18.0204 168.453 16.9636 167.621 15.9349C166.789 14.9055 165.929 13.8404 165.09 13.0062C163.032 10.9607 160.856 9.13496 158.624 7.58082C153.968 4.34043 149.215 2.34023 144.496 1.63441C140.401 1.02285 136.834 2.34617 133.057 3.74891C132.569 3.93074 132.076 4.11332 131.577 4.29367C121.417 7.97566 108.537 3.37039 103.688 1.63664C103.414 1.54016 103.171 1.45332 102.96 1.3791Z" fill="black"/>
<path d="M171.044 19.6031C170.983 19.6031 170.92 19.5875 170.863 19.5548C170.719 19.4747 156.071 11.4791 119.01 12.6658C118.807 12.6755 118.635 12.5115 118.628 12.3066C118.621 12.1025 118.783 11.9303 118.987 11.9236C138.467 11.3061 151.616 13.2306 159.217 14.954C167.482 16.828 171.079 18.8245 171.227 18.9091C171.405 19.01 171.468 19.2357 171.368 19.4145C171.3 19.5355 171.174 19.6031 171.044 19.6031Z" fill="black"/>
<path d="M170.366 2.11816L187.845 49.5246L180.671 50.439L166.069 2.95461L170.366 2.11816Z" fill="#00A45C"/>
<path d="M180.408 50.847L180.316 50.5493L165.593 2.66934L170.604 1.69336L188.354 49.8339L180.408 50.847ZM166.545 3.24082L180.934 50.032L187.335 49.2149L170.127 2.54391L166.545 3.24082Z" fill="black"/>
<path d="M184.124 151.18C184.302 156.732 188.946 161.089 194.497 160.912C200.047 160.734 204.403 156.089 204.226 150.537C204.048 144.984 199.405 140.628 193.854 140.805C188.302 140.983 183.946 145.628 184.124 151.18Z" fill="#FF7300"/>
<path d="M194.17 161.288C188.573 161.288 183.933 156.827 183.753 151.192C183.569 145.444 188.095 140.618 193.841 140.434C199.578 140.254 204.412 144.776 204.596 150.525C204.78 156.272 200.255 161.099 194.509 161.283C194.396 161.286 194.283 161.288 194.17 161.288ZM184.495 151.169C184.666 156.507 189.168 160.718 194.485 160.54C199.823 160.37 204.026 155.888 203.856 150.548C203.685 145.21 199.187 141.007 193.866 141.177C191.28 141.259 188.881 142.344 187.112 144.232C185.341 146.118 184.413 148.582 184.495 151.169Z" fill="black"/>
<path d="M266.546 90.2489C266.388 90.2489 266.241 90.1472 266.192 89.9876C266.131 89.7917 266.24 89.5839 266.436 89.523C277.352 86.1201 276.878 74.8277 276.872 74.7141C276.861 74.51 277.019 74.3349 277.224 74.3245C277.431 74.3171 277.603 74.4707 277.614 74.6755C277.62 74.795 278.117 86.6596 266.657 90.2325C266.62 90.2437 266.583 90.2489 266.546 90.2489Z" fill="black"/>
<path d="M272.201 102.238C272 102.238 271.835 102.077 271.83 101.876C271.826 101.671 271.987 101.501 272.192 101.496C285.18 101.196 288.291 89.2361 288.322 89.1143C288.371 88.9147 288.572 88.793 288.771 88.8434C288.969 88.8924 289.091 89.0936 289.041 89.2917C289.01 89.4186 285.774 101.924 272.209 102.237C272.207 102.238 272.204 102.238 272.201 102.238Z" fill="black"/>
<path d="M274.616 118.19C274.418 118.19 274.254 118.033 274.245 117.833C274.237 117.629 274.397 117.456 274.601 117.447C281.404 117.176 285.537 114.211 287.807 111.772C290.274 109.12 291.142 106.495 291.15 106.469C291.213 106.274 291.423 106.167 291.617 106.23C291.812 106.293 291.919 106.502 291.857 106.697C291.822 106.806 288.179 117.648 274.63 118.19C274.626 118.19 274.621 118.19 274.616 118.19Z" fill="black"/>
<path d="M211.853 151.615C212.898 151.243 213.967 150.909 215.082 150.594C223.481 148.091 233.697 146.846 244.643 147.314C246.512 147.374 248.36 147.494 250.144 147.697C257.723 148.392 264.765 149.862 270.882 151.961C272.201 152.398 273.497 152.875 274.728 153.374C277.578 144.744 279.195 134.817 279.286 124.279C279.313 120.208 279.096 116.245 278.658 112.409C277.521 102.15 274.862 92.8578 271.107 85.1777C264.66 72.0565 254.992 63.727 244.129 63.7158C230.251 63.721 218.199 77.1746 212.216 96.8382C212.171 96.8597 212.172 96.8797 212.173 96.9191C209.714 105.118 208.257 114.402 208.211 124.239C208.145 134.097 209.455 143.413 211.853 151.615Z" fill="white"/>
<path d="M274.957 153.867L274.59 153.718C273.364 153.22 272.077 152.748 270.766 152.313C264.556 150.183 257.606 148.753 250.11 148.067C248.431 147.875 246.591 147.748 244.632 147.685C234.054 147.232 223.873 148.361 215.189 150.95C214.01 151.283 212.962 151.614 211.979 151.964L211.609 152.096L211.498 151.719C209.041 143.316 207.776 133.813 207.841 124.237C207.885 114.708 209.219 105.496 211.806 96.8557C211.816 96.7607 211.849 96.6888 211.891 96.6338C218.164 76.1012 230.511 63.3482 244.13 63.3438C254.725 63.3549 264.68 71.2525 271.442 85.0134C275.294 92.8954 277.917 102.354 279.028 112.367C279.473 116.263 279.684 120.272 279.658 124.282C279.569 134.594 277.987 144.693 275.081 153.491L274.957 153.867ZM240.092 146.845C241.605 146.845 243.127 146.878 244.659 146.943C246.633 147.006 248.494 147.136 250.185 147.328C257.732 148.021 264.739 149.461 271.002 151.61C272.194 152.005 273.37 152.433 274.499 152.882C277.302 144.246 278.828 134.364 278.914 124.277C278.941 120.296 278.73 116.317 278.289 112.451C277.188 102.521 274.588 93.1463 270.774 85.3407C264.142 71.844 254.429 64.0971 244.128 64.0867C230.828 64.0919 218.735 76.6831 212.57 96.9455L212.501 97.1125C209.944 105.672 208.625 114.799 208.581 124.241C208.517 133.605 209.733 142.894 212.099 151.135C212.99 150.826 213.936 150.531 214.98 150.237C222.479 148.002 231.084 146.845 240.092 146.845Z" fill="black"/>
<path d="M215.082 150.594C223.481 148.091 233.697 146.846 244.643 147.314C246.512 147.374 248.36 147.494 250.144 147.697C257.723 148.392 264.765 149.863 270.882 151.962C271.97 147.996 272.621 143.766 272.773 139.352C273.479 117.143 260.908 98.9115 244.705 98.6117C228.502 98.3319 214.788 116.089 214.081 138.297C213.949 142.571 214.306 146.709 215.082 150.594Z" fill="black"/>
<path d="M271.135 152.44L270.762 152.312C264.554 150.183 257.606 148.754 250.11 148.067C248.43 147.876 246.59 147.748 244.631 147.686C234.053 147.233 223.871 148.362 215.188 150.95L214.798 151.066L214.719 150.667C213.919 146.664 213.58 142.498 213.711 138.284C214.417 116.096 228.115 98.2373 244.331 98.2373C244.458 98.2373 244.584 98.2381 244.713 98.2403C251.079 98.3575 257.062 101.174 262.016 106.384C269.394 114.146 273.555 126.474 273.145 139.363C272.996 143.727 272.356 147.999 271.242 152.059L271.135 152.44ZM240.093 146.845C241.605 146.845 243.128 146.878 244.659 146.943C246.634 147.006 248.494 147.136 250.186 147.329C257.582 148.007 264.46 149.404 270.627 151.483C271.662 147.591 272.259 143.509 272.402 139.339C272.806 126.646 268.722 114.517 261.477 106.896C256.663 101.833 250.861 99.0968 244.698 98.9832C228.702 98.7331 215.151 116.349 214.452 138.308C214.326 142.325 214.634 146.298 215.367 150.124C222.777 147.962 231.24 146.845 240.093 146.845Z" fill="black"/>
<path d="M230.221 125.98C241.094 127.396 242.398 128.832 244.448 141.628C245.47 128.714 246.656 127.185 257.383 124.943C246.51 123.527 245.206 122.092 243.156 109.296C242.134 122.209 240.947 123.739 230.221 125.98Z" fill="white"/>
<path d="M115.294 90.3222C115.255 90.3222 115.216 90.3162 115.177 90.3036C103.788 86.5073 104.517 74.6546 104.526 74.5351C104.54 74.331 104.723 74.1885 104.923 74.1915C105.127 74.207 105.28 74.3844 105.266 74.5885C105.233 75.0524 104.578 85.9878 115.411 89.5985C115.606 89.6638 115.71 89.8739 115.646 90.0683C115.595 90.2234 115.45 90.3222 115.294 90.3222Z" fill="black"/>
<path d="M111.312 101.627C111.306 101.627 111.301 101.627 111.295 101.627C97.7653 101.049 93.3819 88.1821 93.3389 88.0522C93.275 87.857 93.3812 87.6477 93.5756 87.5839C93.7686 87.5178 93.9801 87.6262 94.0439 87.8199C94.0848 87.9446 98.3189 100.329 111.327 100.884C111.532 100.894 111.691 101.066 111.682 101.271C111.673 101.471 111.509 101.627 111.312 101.627Z" fill="black"/>
<path d="M107.763 117.822C107.755 117.822 107.748 117.822 107.741 117.821C94.2305 117.016 89.7143 106.414 89.6705 106.308C89.5926 106.118 89.6832 105.902 89.8724 105.824C90.0595 105.746 90.2784 105.836 90.3571 106.025C90.3994 106.127 94.7538 116.303 107.785 117.08C107.989 117.093 108.146 117.268 108.133 117.472C108.121 117.67 107.958 117.822 107.763 117.822Z" fill="black"/>
<path d="M105.597 126.457C105.894 136.464 107.634 145.845 110.416 154.075C110.464 154.173 110.467 154.273 110.515 154.351C110.54 154.43 110.565 154.509 110.589 154.568C110.665 154.845 110.764 155.121 110.863 155.397C112.105 154.858 113.347 154.34 114.683 153.878C114.749 153.836 114.816 153.814 114.882 153.792C115.638 153.509 116.394 153.245 117.196 152.98L117.218 152.979C124.161 150.662 132.162 149.07 140.757 148.475C144.168 148.206 147.516 148.139 150.758 148.235C151.208 148.24 151.658 148.246 152.087 148.272C158.933 148.532 165.305 149.464 170.864 150.983C171.817 151.252 172.748 151.521 173.657 151.811C175.844 143.541 176.962 134.188 176.623 124.324C175.6 90.9185 158.847 64.3006 139.231 64.8885C128.355 65.1965 118.892 73.8392 112.795 87.1222C112.795 87.1222 112.795 87.1422 112.773 87.143C111.848 89.1676 111.039 91.3081 110.302 93.5465C110.219 93.7885 110.136 93.9911 110.076 94.2323C109.95 94.5359 109.849 94.858 109.724 95.1816C109.602 95.5645 109.458 95.9883 109.336 96.4106C109.109 97.0564 108.905 97.7213 108.747 98.4049C108.483 99.2911 108.242 100.177 108.023 101.081C107.806 102.026 107.588 102.951 107.416 103.894C106.888 106.385 106.478 109.012 106.182 111.715C106.097 112.595 105.991 113.497 105.908 114.397C105.887 114.458 105.889 114.517 105.913 114.556C105.795 115.797 105.701 117.057 105.652 118.356C105.612 119.215 105.596 120.113 105.58 121.011C105.579 121.69 105.555 122.349 105.555 123.027C105.537 123.207 105.565 123.346 105.548 123.526C105.534 124.484 105.543 125.481 105.597 126.457Z" fill="white"/>
<path d="M110.648 155.896L110.514 155.523C110.412 155.238 110.311 154.952 110.232 154.666C110.221 154.646 110.197 154.574 110.172 154.497C110.138 154.428 110.12 154.361 110.106 154.311C110.1 154.288 110.095 154.263 110.083 154.239C107.145 145.555 105.516 136.228 105.226 126.473C105.177 125.576 105.161 124.61 105.177 123.521C105.185 123.418 105.182 123.354 105.181 123.288C105.178 123.194 105.176 123.099 105.185 122.993C105.184 122.688 105.19 122.354 105.197 122.02C105.203 121.685 105.21 121.35 105.21 121.011C105.227 120.077 105.242 119.189 105.282 118.338C105.325 117.179 105.406 115.99 105.537 114.6C105.518 114.514 105.519 114.421 105.542 114.328C105.586 113.854 105.636 113.38 105.687 112.909C105.731 112.496 105.774 112.086 105.813 111.68C106.114 108.925 106.532 106.281 107.053 103.818C107.207 102.977 107.403 102.125 107.593 101.3L107.662 100.999C107.876 100.113 108.115 99.2318 108.392 98.3003C108.534 97.6821 108.731 97.0163 108.986 96.289C109.071 95.9906 109.174 95.6722 109.273 95.3702L109.37 95.0696C109.429 94.9137 109.478 94.7786 109.525 94.6458C109.592 94.4573 109.658 94.2717 109.732 94.0929C109.76 93.963 109.817 93.8012 109.878 93.6312L109.949 93.4301C110.744 91.018 111.558 88.9102 112.435 86.9909L112.543 86.7816C118.955 72.9301 128.67 64.8188 139.22 64.5204C139.435 64.5137 139.649 64.5107 139.864 64.5107C159.386 64.5107 175.977 91.1159 176.993 124.315C177.317 133.772 176.287 143.315 174.014 151.909L173.914 152.287L173.542 152.168C172.602 151.868 171.65 151.593 170.761 151.344C165.15 149.811 158.86 148.904 152.071 148.647C151.64 148.621 151.196 148.615 150.752 148.609C147.405 148.509 144.052 148.591 140.784 148.848C132.524 149.419 124.417 150.97 117.333 153.334L117.259 153.351C116.481 153.61 115.747 153.866 115.01 154.143C114.943 154.165 114.906 154.178 114.879 154.194L114.802 154.232C113.435 154.705 112.171 155.237 111.008 155.74L110.648 155.896ZM106.277 114.439L106.295 114.468L106.283 114.591C106.149 115.999 106.067 117.199 106.023 118.368C105.984 119.216 105.967 120.097 105.952 120.979C105.95 121.355 105.944 121.694 105.938 122.033C105.932 122.363 105.925 122.692 105.925 123.027C105.917 123.135 105.92 123.199 105.921 123.264C105.924 123.358 105.927 123.453 105.917 123.559C105.902 124.604 105.918 125.555 105.967 126.435L105.967 126.445C106.255 136.128 107.87 145.384 110.767 153.955C110.783 153.979 110.804 154.049 110.821 154.116L110.868 154.238C110.89 154.307 110.911 154.376 110.931 154.425C110.979 154.594 111.029 154.749 111.08 154.899C112.145 154.441 113.292 153.968 114.526 153.54C114.619 153.488 114.707 153.46 114.768 153.439C115.513 153.159 116.273 152.894 117.079 152.627L117.152 152.61C124.282 150.236 132.434 148.679 140.732 148.105C144.022 147.845 147.402 147.763 150.77 147.864C151.22 147.87 151.677 147.875 152.11 147.902C158.949 148.161 165.293 149.078 170.962 150.625C171.742 150.846 172.569 151.082 173.397 151.341C175.583 142.913 176.57 133.585 176.254 124.337C175.249 91.5382 158.991 65.2507 139.87 65.2507C139.661 65.2507 139.453 65.2537 139.244 65.2604C128.96 65.552 119.46 73.5454 113.17 87.1972L113.173 87.2632L113.078 87.3716C112.226 89.2464 111.432 91.3045 110.654 93.6631L110.579 93.8798C110.526 94.0261 110.475 94.1656 110.437 94.3222C110.35 94.5426 110.288 94.717 110.225 94.8944C110.176 95.0339 110.125 95.175 110.071 95.316L109.98 95.6002C109.884 95.8941 109.782 96.2044 109.693 96.5146C109.44 97.2375 109.252 97.8765 109.11 98.4896C108.83 99.4314 108.595 100.301 108.385 101.17L108.316 101.467C108.12 102.321 107.934 103.127 107.782 103.962C107.263 106.411 106.851 109.03 106.552 111.756C106.513 112.16 106.469 112.573 106.425 112.987C106.374 113.468 106.323 113.949 106.278 114.431L106.277 114.439Z" fill="black"/>
<path d="M112.573 143.452C112.937 147.092 113.657 150.6 114.683 153.879C114.749 153.837 114.816 153.815 114.883 153.793C115.639 153.509 116.395 153.246 117.196 152.981L117.219 152.98C124.162 150.663 132.163 149.07 140.758 148.476C144.168 148.207 147.517 148.14 150.759 148.235C151.209 148.24 151.659 148.246 152.087 148.272C158.933 148.532 165.306 149.465 170.865 150.984C171.411 146.976 171.5 142.723 171.046 138.369C168.787 116.255 153.877 99.4743 137.729 100.889C121.58 102.283 110.315 121.358 112.573 143.452Z" fill="black"/>
<path d="M114.474 154.451L114.329 153.99C113.28 150.642 112.566 147.108 112.204 143.488C110.891 130.653 114.184 118.063 121.013 109.812C125.59 104.28 131.359 101.066 137.698 100.519C154.024 99.0833 169.139 116.052 171.415 138.331C171.861 142.604 171.799 146.878 171.233 151.033L171.176 151.454L170.767 151.342C165.153 149.809 158.864 148.902 152.074 148.644C151.643 148.618 151.2 148.612 150.755 148.606C147.407 148.508 144.055 148.589 140.787 148.845C132.528 149.417 124.42 150.968 117.336 153.332L117.262 153.349C116.484 153.607 115.75 153.864 115.013 154.14C114.946 154.163 114.91 154.176 114.882 154.192L114.474 154.451ZM139.625 101.178C139.005 101.178 138.385 101.204 137.761 101.259C131.627 101.789 126.032 104.909 121.584 110.285C114.881 118.386 111.65 130.771 112.942 143.413C113.285 146.845 113.95 150.197 114.918 153.383C115.615 153.123 116.328 152.876 117.079 152.627L117.152 152.61C124.283 150.236 132.434 148.679 140.732 148.105C144.023 147.845 147.402 147.763 150.771 147.864C151.22 147.869 151.677 147.875 152.11 147.902C158.784 148.155 164.989 149.034 170.553 150.515C171.06 146.55 171.102 142.479 170.677 138.407C168.53 117.386 154.812 101.178 139.625 101.178Z" fill="black"/>
<path d="M127.318 129.824C138.191 131.24 139.495 132.676 141.546 145.472C142.568 132.558 143.754 131.029 154.481 128.787C143.609 127.371 142.304 125.936 140.254 113.14C139.231 126.053 138.045 127.583 127.318 129.824Z" fill="white"/>
<path d="M237.647 163.869C236.519 167.091 241.524 168.848 242.653 165.621C243.78 162.399 238.776 160.641 237.647 163.869Z" fill="white"/>
<path d="M259.685 163.12C258.558 166.342 263.562 168.099 264.691 164.872C265.818 161.65 260.813 159.892 259.685 163.12Z" fill="white"/>
<path d="M249.896 174.514C248.769 177.736 253.773 179.494 254.902 176.266C256.028 173.044 251.024 171.287 249.896 174.514Z" fill="white"/>
<path d="M121.674 163.58C120.311 166.709 125.171 168.834 126.536 165.699C127.9 162.57 123.04 160.446 121.674 163.58Z" fill="white"/>
<path d="M143.707 164.472C142.343 167.602 147.203 169.726 148.569 166.592C149.932 163.463 145.072 161.338 143.707 164.472Z" fill="white"/>
<path d="M133.097 175.107C131.734 178.236 136.594 180.361 137.959 177.226C139.323 174.098 134.463 171.973 133.097 175.107Z" fill="white"/>
<path d="M191.839 193.407C199.349 191.642 207.009 190.749 214.708 190.778C221.416 190.804 234.242 188.386 228.533 177.846C224.653 170.682 215.023 168.231 208.074 167.698C196.003 166.773 177.791 169.769 168.486 179.09C164.4 183.183 162.615 190.714 168.414 194.156C174.837 197.97 185.248 194.956 191.839 193.407Z" fill="#FC79FF"/>
<path d="M176.448 196.385C173.442 196.385 170.586 195.879 168.224 194.476C166.035 193.176 164.716 191.201 164.408 188.762C163.993 185.464 165.491 181.566 168.223 178.828C172.501 174.542 179.047 171.21 187.152 169.193C193.924 167.506 201.558 166.829 208.101 167.329C212.855 167.693 224.396 169.429 228.859 177.67C230.586 180.858 230.794 183.591 229.478 185.792C227.111 189.751 220.13 191.15 214.819 191.15C214.658 191.152 214.498 191.149 214.338 191.149C206.859 191.149 199.319 192.03 191.922 193.769C191.366 193.9 190.782 194.041 190.176 194.187C186.094 195.176 181.092 196.385 176.448 196.385ZM203.694 167.908C191.387 167.908 176.511 171.577 168.749 179.353C166.172 181.934 164.758 185.59 165.145 188.669C165.423 190.872 166.619 192.66 168.604 193.838C174.353 197.251 183.399 195.065 190.004 193.466C190.612 193.32 191.197 193.177 191.755 193.047C199.33 191.265 207.056 190.381 214.711 190.408C214.749 190.408 214.787 190.408 214.825 190.408C219.94 190.408 226.636 189.103 228.844 185.412C230.016 183.452 229.803 180.966 228.209 178.024C223.919 170.104 212.68 168.424 208.047 168.07C206.645 167.961 205.187 167.908 203.694 167.908Z" fill="black"/>
<path d="M174.297 187.644C174.179 187.644 174.063 187.588 173.991 187.483C173.875 187.313 173.918 187.083 174.087 186.967C181.86 181.648 190.76 178.442 199.825 177.695C206.885 177.11 213.939 177.981 220.792 180.277C220.986 180.342 221.091 180.552 221.025 180.747C220.961 180.942 220.75 181.051 220.556 180.98C213.799 178.718 206.845 177.859 199.886 178.435C190.95 179.171 182.173 182.333 174.506 187.58C174.442 187.624 174.369 187.644 174.297 187.644Z" fill="black"/>
<path d="M256.619 231.408C268.885 238.525 280.324 246.737 292.351 254.216C292.684 254.424 293.018 254.626 293.359 254.834C295.152 255.93 297.05 257.032 299.021 258.06C307.516 262.503 317.379 265.583 326.153 260.934C339.014 254.127 337.173 237.919 332.961 226.337C328.587 214.317 324.227 202.336 319.155 190.567C318.392 194.467 317.607 197.583 316.369 201.688C314.966 206.343 313.285 210.346 311.659 213.649C314.34 218.969 316.043 223.55 317.287 226.719C318.933 230.908 326.029 247.002 317.618 248.349C314.336 248.868 310.644 247.257 307.694 245.803C307.56 245.736 307.427 245.669 307.294 245.602C303.609 243.768 300.104 241.622 296.674 239.351C295.644 238.673 294.613 237.981 293.591 237.28C283.959 230.712 274.222 224.462 264.135 218.606C255.849 213.793 248.355 226.61 256.619 231.408Z" fill="black"/>
<path d="M223.545 227.734C225.117 229.049 226.894 230.156 228.702 231.138C231.319 232.571 234.056 233.671 236.767 234.911C237.089 235.052 237.396 235.197 237.71 235.308C244.965 238.243 249.943 235.551 251.332 234.63C251.576 234.468 251.898 234.491 252.118 234.681C253.888 236.204 255.683 237.83 258.22 237.222C259.988 236.798 261.573 235.723 262.976 234.612C267.729 230.85 276.791 216.628 265.798 214.204C265.717 214.186 265.651 214.086 265.622 213.986C265.6 213.793 265.562 213.603 265.544 213.426C262.464 193.929 247.781 197.036 245.355 197.689C245.141 197.747 244.915 197.697 244.75 197.551C242.408 195.469 225.845 180.664 219.673 185.829C211.481 192.685 229.899 202.911 234.326 205.675C231.617 203.983 228.555 204.001 226.407 206.138C223.63 208.9 223.802 213.32 226.893 215.814C227.152 216.024 227.7 216.458 227.909 216.548C226.488 216.221 224.508 216.671 223.265 217.307C221.208 218.341 219.887 220.612 220.291 222.94C220.641 224.902 222.065 226.509 223.545 227.734Z" fill="white"/>
<path d="M257.129 237.727C255.085 237.727 253.534 236.39 252.026 235.091L251.877 234.962C251.781 234.881 251.642 234.87 251.538 234.938C250.14 235.866 245.003 238.658 237.571 235.652C237.339 235.572 237.095 235.462 236.844 235.352L236.619 235.252C235.845 234.898 235.077 234.558 234.308 234.219C232.393 233.372 230.413 232.497 228.523 231.464C226.414 230.318 224.708 229.192 223.308 228.02C221.371 226.417 220.234 224.73 219.927 223.006C219.511 220.602 220.815 218.123 223.099 216.975C224.004 216.512 225.343 216.111 226.619 216.068C225.082 214.81 224.181 213.058 224.081 211.13C223.981 209.195 224.733 207.28 226.146 205.874C227.5 204.526 229.244 203.932 231.084 204.125C225.99 200.964 217.634 195.311 217.243 190.137C217.113 188.415 217.85 186.87 219.436 185.544C225.183 180.735 239.186 192.108 244.939 197.221L244.997 197.272C245.066 197.334 245.165 197.356 245.259 197.33C246.955 196.875 252.896 195.646 258.119 199.035C262.206 201.688 264.827 206.509 265.911 213.368C265.923 213.477 265.937 213.568 265.951 213.661C265.961 213.728 265.972 213.796 265.981 213.864C268.907 214.536 270.667 216.074 271.211 218.439C272.486 223.982 266.592 232.222 263.206 234.903C261.936 235.908 260.233 237.12 258.306 237.583C257.896 237.682 257.504 237.727 257.129 237.727ZM251.69 234.151C251.93 234.151 252.169 234.235 252.361 234.4L252.51 234.528C254.229 236.009 255.853 237.406 258.133 236.861C259.919 236.433 261.536 235.279 262.746 234.322C266.133 231.639 271.646 223.636 270.488 218.607C270.007 216.517 268.402 215.158 265.718 214.567C265.508 214.52 265.338 214.341 265.266 214.088C265.244 213.943 265.232 213.858 265.219 213.775C265.202 213.668 265.186 213.564 265.176 213.463C264.129 206.843 261.619 202.192 257.716 199.659C252.751 196.437 247.075 197.612 245.452 198.047C245.116 198.139 244.761 198.055 244.505 197.828L244.447 197.777C232.765 187.393 223.593 183.034 219.912 186.114C218.501 187.294 217.87 188.592 217.983 190.081C218.398 195.565 228.847 201.907 233.309 204.616C233.776 204.9 234.183 205.147 234.513 205.353C234.516 205.355 234.52 205.357 234.523 205.359L234.13 205.989C231.459 204.322 228.601 204.479 226.67 206.4C225.388 207.676 224.732 209.341 224.823 211.09C224.913 212.823 225.732 214.398 227.128 215.525C227.841 216.099 228.029 216.194 228.058 216.207L227.827 216.909C226.481 216.598 224.6 217.04 223.435 217.637C221.438 218.641 220.297 220.795 220.658 222.876C220.933 224.42 221.983 225.959 223.78 227.448L223.782 227.448C225.145 228.588 226.812 229.688 228.878 230.811C230.74 231.831 232.707 232.699 234.607 233.539C235.378 233.88 236.15 234.221 236.92 234.573L237.144 234.673C237.376 234.776 237.602 234.877 237.832 234.958C244.942 237.834 249.805 235.197 251.126 234.32C251.297 234.207 251.494 234.151 251.69 234.151Z" fill="black"/>
<path d="M251.502 234.558C251.502 234.558 253.762 233.628 257.719 229.606L251.502 234.558Z" fill="white"/>
<path d="M251.503 234.929C251.357 234.929 251.219 234.843 251.16 234.7C251.082 234.51 251.172 234.294 251.36 234.215C251.383 234.205 253.617 233.245 257.455 229.345C257.599 229.199 257.834 229.197 257.98 229.341C258.126 229.484 258.128 229.72 257.984 229.866C254.02 233.895 251.739 234.861 251.644 234.901C251.597 234.92 251.55 234.929 251.503 234.929Z" fill="black"/>
<path d="M263.182 222.347C263.182 222.347 265.458 219.533 265.615 213.986L263.182 222.347Z" fill="white"/>
<path d="M263.181 222.718C263.1 222.718 263.017 222.691 262.949 222.636C262.789 222.507 262.764 222.274 262.892 222.115C262.914 222.087 265.092 219.314 265.244 213.976C265.25 213.771 265.42 213.596 265.626 213.616C265.831 213.622 265.992 213.792 265.987 213.998C265.827 219.606 263.566 222.462 263.47 222.581C263.396 222.671 263.29 222.718 263.181 222.718Z" fill="black"/>
<path d="M238.142 208.449C238.076 208.449 238.007 208.431 237.946 208.392L233.352 205.524C233.178 205.415 233.124 205.187 233.233 205.012C233.341 204.839 233.571 204.784 233.744 204.894L238.339 207.763C238.513 207.871 238.566 208.1 238.458 208.274C238.387 208.387 238.266 208.449 238.142 208.449Z" fill="black"/>
<path d="M232.029 219.04C231.971 219.04 231.913 219.027 231.859 218.998L227.32 216.646C227.138 216.551 227.067 216.326 227.161 216.145C227.255 215.964 227.481 215.892 227.661 215.986L232.2 218.339C232.382 218.434 232.453 218.658 232.359 218.84C232.292 218.967 232.163 219.04 232.029 219.04Z" fill="black"/>
<path d="M252.168 203.207C252.095 203.207 252.02 203.186 251.955 203.14L244.773 198.093C244.605 197.975 244.565 197.743 244.682 197.576C244.8 197.408 245.032 197.368 245.2 197.486L252.382 202.532C252.55 202.65 252.59 202.881 252.472 203.048C252.4 203.152 252.285 203.207 252.168 203.207Z" fill="black"/>
<path d="M144.497 266.191C144.497 270.504 141.061 273.191 137.076 273.614C133.966 273.948 130.857 274.282 127.74 274.608C116.008 275.855 104.238 277.035 92.476 277.778C85.3072 278.231 78.0575 278.721 70.9258 277.793C67.6609 277.37 64.3953 276.954 61.1304 276.524C57.1902 276.004 53.0421 273.332 49.7616 271.09C46.6897 268.983 45.094 264.38 44.2553 260.81C43.5428 257.804 44.3221 254.204 45.376 251.368C47.6916 245.126 51.3796 239.21 54.8597 233.554C60.0765 225.062 65.9984 217.105 71.7496 209.015C73.7907 214.3 76.1723 219.429 78.8591 224.372C76.2985 227.95 73.7684 231.55 71.3563 235.247C68.1426 240.175 65.0781 245.2 62.2801 250.381C61.241 252.296 60.0016 254.308 59.3195 256.364C59.1043 257.039 58.941 257.722 58.8148 258.42C58.9484 257.848 59.0746 257.908 59.1933 258.613C59.2972 258.939 59.4011 259.259 59.5125 259.578C60.9152 260.394 62.3246 261.211 63.7273 262.028C69.2039 262.77 74.6434 263.549 80.1943 263.438C86.4576 263.312 92.7209 262.985 98.9619 262.451C102.368 262.161 105.774 261.857 109.18 261.538C118.486 260.684 127.785 259.757 137.076 258.769C141.09 258.338 144.497 262.51 144.497 266.191Z" fill="black"/>
<path d="M269.888 317.249L119.941 318.755L110.37 223.962C109.949 219.792 113.164 216.159 117.314 216.117L268.273 214.602C272.361 214.561 275.629 218.026 275.391 222.148L269.888 317.249Z" fill="#4B3BC5"/>
<path d="M119.605 319.131L110.001 224C109.788 221.895 110.472 219.786 111.877 218.216C113.263 216.668 115.243 215.768 117.311 215.746L268.27 214.23C270.348 214.241 272.265 215.027 273.698 216.531C275.13 218.034 275.882 220.089 275.762 222.17L270.239 317.618L269.892 317.622L119.605 319.131ZM268.346 214.973C268.323 214.973 268.3 214.973 268.278 214.973L117.318 216.489C115.431 216.507 113.695 217.297 112.43 218.711C111.163 220.126 110.547 222.026 110.739 223.926L120.275 318.381L269.537 316.882L275.021 222.127C275.13 220.223 274.47 218.417 273.16 217.043C271.886 215.707 270.179 214.973 268.346 214.973Z" fill="black"/>
<path d="M270.162 327.526L119.654 328.855L119.547 318.627L269.896 317.427L270.162 327.526Z" fill="#4B3BC5"/>
<path d="M119.287 329.229L119.172 318.258L270.257 317.053L270.542 327.895L270.164 327.898L119.287 329.229ZM119.921 318.994L120.021 328.481L269.78 327.16L269.535 317.801L119.921 318.994Z" fill="black"/>
<path d="M194.945 280.84C199.914 280.84 203.942 276.811 203.942 271.841C203.942 266.87 199.914 262.841 194.945 262.841C189.976 262.841 185.947 266.87 185.947 271.841C185.947 276.811 189.976 280.84 194.945 280.84Z" fill="white"/>
<path d="M194.945 281.212C189.779 281.212 185.576 277.008 185.576 271.842C185.576 266.674 189.779 262.471 194.945 262.471C200.11 262.471 204.313 266.674 204.313 271.842C204.313 277.008 200.11 281.212 194.945 281.212ZM194.945 263.212C190.188 263.212 186.318 267.083 186.318 271.841C186.318 276.598 190.188 280.469 194.945 280.469C199.701 280.469 203.571 276.598 203.571 271.841C203.571 267.083 199.701 263.212 194.945 263.212Z" fill="black"/>
<path d="M164.604 321.294C164.618 322.973 164.599 324.617 164.514 326.231C163.027 301.929 152.145 283.035 139.087 283.145C126.029 283.255 115.499 302.328 114.42 326.652C114.308 325.04 114.262 323.396 114.247 321.717C114.023 295.068 125.092 273.392 139.005 273.275C152.917 273.158 164.38 294.645 164.604 321.294Z" fill="#8ED4B5"/>
<path d="M114.049 326.677C113.946 325.203 113.891 323.628 113.875 321.721C113.767 308.772 116.294 296.575 120.993 287.377C125.732 278.102 132.127 272.962 139 272.904C139.039 272.904 139.079 272.903 139.118 272.903C145.949 272.903 152.389 277.93 157.264 287.073C162.128 296.194 164.866 308.346 164.975 321.292C164.991 323.204 164.962 324.78 164.884 326.25L164.144 326.253C162.65 301.852 151.939 283.516 139.203 283.516C139.165 283.516 139.128 283.517 139.09 283.517C126.323 283.624 115.877 302.175 114.791 326.668L114.049 326.677ZM139.118 273.646C139.081 273.646 139.044 273.646 139.007 273.646C132.424 273.701 126.262 278.698 121.654 287.715C117.255 296.328 114.78 307.615 114.623 319.686C117.229 298.314 127.172 282.874 139.084 282.774C139.122 282.774 139.162 282.773 139.201 282.773C151.081 282.773 161.238 298.014 164.194 319.272C163.834 307.206 161.165 295.962 156.61 287.422C151.87 278.534 145.661 273.646 139.118 273.646Z" fill="black"/>
<path d="M164.682 331.161C164.906 357.801 153.813 379.491 139.904 379.608C125.996 379.725 114.539 358.224 114.316 331.584C114.092 304.945 125.186 283.255 139.094 283.138C153.002 283.021 164.459 304.522 164.682 331.161Z" fill="white"/>
<path d="M139.793 379.981C125.754 379.981 114.17 358.318 113.946 331.588C113.837 318.645 116.369 306.449 121.076 297.247C125.822 287.967 132.22 282.825 139.092 282.767C139.131 282.767 139.17 282.767 139.21 282.767C146.038 282.767 152.475 287.795 157.349 296.942C162.209 306.064 164.946 318.216 165.055 331.159C165.163 344.101 162.631 356.297 157.925 365.5C153.179 374.779 146.781 379.922 139.909 379.98C139.87 379.98 139.831 379.981 139.793 379.981ZM139.208 283.51C139.171 283.51 139.135 283.51 139.098 283.51C132.516 283.565 126.35 288.564 121.736 297.585C117.083 306.684 114.58 318.758 114.688 331.583C114.909 357.903 126.16 379.238 139.792 379.238C139.829 379.238 139.865 379.238 139.902 379.238C146.483 379.183 152.649 374.184 157.263 365.163C161.916 356.064 164.419 343.99 164.311 331.165C164.204 318.34 161.498 306.31 156.693 297.291C151.955 288.399 145.749 283.51 139.208 283.51Z" fill="black"/>
<path d="M117.897 306.43C117.694 306.43 117.529 306.266 117.526 306.061C117.525 305.857 117.69 305.689 117.895 305.687L160.653 305.328H160.656C160.86 305.328 161.025 305.492 161.027 305.696C161.029 305.9 160.864 306.069 160.66 306.07L117.9 306.43H117.897Z" fill="black"/>
<path d="M114.372 327.801C114.169 327.801 114.003 327.637 114.001 327.433C113.999 327.229 114.164 327.061 114.368 327.059L164.456 326.637C164.656 326.666 164.829 326.8 164.83 327.005C164.833 327.209 164.667 327.377 164.463 327.379L114.375 327.801H114.372Z" fill="black"/>
<path d="M115.637 346.622C115.433 346.622 115.268 346.458 115.266 346.254C115.264 346.049 115.429 345.881 115.634 345.88L163.623 345.477C163.838 345.504 163.995 345.64 163.997 345.845C163.998 346.049 163.834 346.217 163.629 346.219L115.64 346.622C115.64 346.622 115.638 346.622 115.637 346.622Z" fill="black"/>
<path d="M121.949 365.915C121.746 365.915 121.58 365.751 121.578 365.547C121.577 365.343 121.741 365.175 121.946 365.173L157.634 364.874C157.832 364.89 158.007 365.037 158.008 365.242C158.01 365.446 157.845 365.615 157.641 365.616L121.953 365.915C121.951 365.915 121.949 365.915 121.949 365.915Z" fill="black"/>
<path d="M276.579 321.294C276.593 322.973 276.574 324.617 276.489 326.231C275.002 301.929 264.12 283.035 251.062 283.145C238.004 283.255 227.473 302.328 226.395 326.652C226.282 325.04 226.235 323.396 226.222 321.717C225.998 295.068 237.066 273.392 250.979 273.275C264.892 273.158 276.355 294.645 276.579 321.294Z" fill="#8ED4B5"/>
<path d="M226.024 326.677C225.921 325.202 225.866 323.627 225.85 321.721C225.741 308.772 228.269 296.575 232.968 287.377C237.707 278.102 244.102 272.962 250.975 272.904C251.014 272.904 251.053 272.903 251.093 272.903C257.924 272.903 264.364 277.93 269.239 287.073C274.102 296.194 276.841 308.345 276.949 321.292C276.965 323.201 276.936 324.778 276.858 326.25L276.118 326.253C274.624 301.852 263.912 283.516 251.176 283.516C251.138 283.516 251.101 283.517 251.064 283.517C238.297 283.624 227.85 302.175 226.764 326.668L226.024 326.677ZM251.093 273.646C251.056 273.646 251.019 273.646 250.982 273.646C244.399 273.701 238.236 278.698 233.629 287.715C229.229 296.327 226.756 307.613 226.597 319.684C229.203 298.311 239.146 282.874 251.058 282.774C251.096 282.774 251.136 282.773 251.175 282.773C263.054 282.773 273.211 298.012 276.168 319.269C275.807 307.204 273.138 295.962 268.584 287.422C263.845 278.534 257.636 273.646 251.093 273.646Z" fill="black"/>
<path d="M276.658 331.161C276.881 357.801 265.788 379.491 251.88 379.608C237.971 379.725 226.515 358.224 226.291 331.584C226.068 304.945 237.161 283.255 251.069 283.138C264.978 283.021 276.434 304.522 276.658 331.161Z" fill="white"/>
<path d="M251.768 379.981C237.729 379.981 226.144 358.318 225.92 331.588C225.812 318.645 228.344 306.449 233.051 297.247C237.797 287.967 244.195 282.825 251.066 282.767C251.106 282.767 251.145 282.767 251.184 282.767C258.013 282.767 264.45 287.795 269.323 296.942C274.184 306.064 276.92 318.216 277.03 331.159C277.138 344.101 274.606 356.297 269.899 365.5C265.153 374.779 258.755 379.922 251.884 379.98C251.845 379.98 251.806 379.981 251.768 379.981ZM251.184 283.51C251.147 283.51 251.11 283.51 251.073 283.51C244.491 283.565 238.326 288.564 233.712 297.585C229.058 306.684 226.555 318.758 226.663 331.583C226.884 357.903 238.134 379.238 251.767 379.238C251.803 379.238 251.84 379.238 251.876 379.238C258.458 379.183 264.624 374.184 269.237 365.163C273.891 356.064 276.394 343.99 276.286 331.165C276.178 318.34 273.472 306.31 268.667 297.291C263.93 288.399 257.724 283.51 251.184 283.51Z" fill="black"/>
<path d="M229.872 306.43C229.669 306.43 229.503 306.266 229.501 306.061C229.499 305.857 229.664 305.689 229.869 305.687L272.629 305.328H272.632C272.835 305.328 273.001 305.492 273.003 305.696C273.005 305.9 272.84 306.069 272.635 306.07L229.876 306.43C229.874 306.43 229.874 306.43 229.872 306.43Z" fill="black"/>
<path d="M226.113 327.801C225.91 327.801 225.744 327.637 225.742 327.433C225.741 327.229 225.905 327.061 226.11 327.059L276.432 326.637C276.642 326.666 276.805 326.8 276.806 327.005C276.808 327.209 276.643 327.377 276.438 327.379L226.116 327.801C226.115 327.801 226.113 327.801 226.113 327.801Z" fill="black"/>
<path d="M227.611 346.622C227.408 346.622 227.242 346.458 227.24 346.254C227.238 346.049 227.404 345.881 227.608 345.88L275.597 345.477C275.822 345.504 275.969 345.64 275.971 345.845C275.972 346.049 275.808 346.217 275.603 346.219L227.614 346.622H227.611Z" fill="black"/>
<path d="M233.925 365.915C233.721 365.915 233.556 365.751 233.554 365.547C233.552 365.343 233.717 365.175 233.921 365.173L269.608 364.874C269.817 364.89 269.981 365.037 269.983 365.242C269.985 365.446 269.819 365.615 269.614 365.616L233.927 365.915H233.925Z" fill="black"/>
<path d="M3.00174 24.8778C10.6856 5.11039 32.9356 -4.68351 52.6971 3.00258C72.4594 10.6887 82.251 32.9432 74.5664 52.7106C72.5017 58.0217 69.3622 62.5832 65.5251 66.3082L71.2488 81.5149L55.6332 73.2521C46.341 77.795 35.2713 78.63 24.871 74.5851C5.10955 66.899 -4.68213 44.6445 3.00174 24.8778Z" fill="white"/>
<path d="M71.9423 82.3011L55.6268 73.668C45.9457 78.3431 34.6986 78.8054 24.7377 74.9305C15.087 71.178 7.47589 63.8904 3.30553 54.4112C-0.864818 44.932 -1.09564 34.3952 2.65686 24.743C6.40862 15.0909 13.6947 7.4775 23.1709 3.30567C32.6487 -0.866169 43.1825 -1.09699 52.8324 2.657C62.4831 6.4095 70.0942 13.6978 74.2646 23.177C78.4349 32.6562 78.665 43.1931 74.9125 52.8459C72.9257 57.9574 69.9139 62.5174 65.958 66.4057L71.9423 82.3011ZM55.6409 72.836L55.8079 72.9236L70.5574 80.7284L65.0926 66.2113L65.2671 66.042C69.2311 62.1923 72.2444 57.662 74.2208 52.575C77.9013 43.1077 77.6757 32.7727 73.5848 23.4754C69.4946 14.178 62.0289 7.02996 52.5638 3.34871C43.0987 -0.332536 32.7659 -0.106169 23.4708 3.98551C14.1749 8.07645 7.02835 15.5443 3.34784 25.0124C-0.332669 34.4805 -0.106302 44.8147 3.98389 54.1129C8.07483 63.4102 15.5405 70.5583 25.0056 74.2395C34.8322 78.0603 45.936 77.5793 55.4702 72.9191L55.6409 72.836Z" fill="black"/>
<path d="M23.4795 15.2011C27.4361 14.0796 31.573 13.5186 35.8889 13.5186C46.6164 13.5186 53.1863 16.4821 55.5977 22.4077C56.1476 23.7622 56.423 25.2859 56.423 26.9789C56.423 31.36 55.2169 34.6612 52.8048 36.8834C51.8949 37.7302 50.694 38.6609 49.2022 39.677C47.7104 40.693 46.6046 41.5391 45.8854 42.2167C44.1925 43.8043 43.0079 45.7198 42.3311 47.9627H30.7477C30.1132 46.0583 29.7955 44.3179 29.7955 42.7407C29.7955 41.1643 30.0122 39.8788 30.4464 38.8836C30.8798 37.889 31.4298 37.0377 32.097 36.3282C32.7635 35.6194 33.4775 35.016 34.2397 34.5187C35.0012 34.0215 35.7152 33.5561 36.3817 33.122C37.0482 32.6885 37.5981 32.2543 38.0323 31.8202C38.4657 31.3867 38.6825 30.8731 38.6825 30.2801C38.6825 27.8042 36.9895 26.5655 33.6044 26.5655C31.2131 26.5655 28.3779 27.1266 25.0989 28.248C24.3582 28.5018 23.8187 28.7037 23.4802 28.8514L23.4795 15.2011ZM43.241 57.2861C43.241 61.0779 40.1683 64.1513 36.3772 64.1513C32.5869 64.1513 29.5142 61.0779 29.5142 57.2861C29.5142 53.495 32.5869 50.4209 36.3772 50.4209C40.1676 50.4209 43.241 53.4943 43.241 57.2861Z" fill="#FC79FF"/>
<path d="M36.3772 64.5224C32.388 64.5224 29.1431 61.2761 29.1431 57.2861C29.1431 53.2953 32.388 50.0498 36.3772 50.0498C40.3665 50.0498 43.6121 53.2953 43.6121 57.2861C43.6121 61.2761 40.3665 64.5224 36.3772 64.5224ZM36.3772 50.792C32.7977 50.792 29.8853 53.705 29.8853 57.2861C29.8853 60.8671 32.7977 63.7802 36.3772 63.7802C39.9575 63.7802 42.8699 60.8671 42.8699 57.2861C42.8699 53.705 39.9575 50.792 36.3772 50.792ZM42.6079 48.3338H30.4798L30.3952 48.08C29.751 46.1451 29.4244 44.349 29.4244 42.7407C29.4244 41.119 29.6537 39.772 30.1065 38.7351C30.5548 37.7064 31.1329 36.8114 31.8261 36.0736C32.5089 35.347 33.2526 34.7199 34.0356 34.2078L36.1783 32.811C36.8196 32.3939 37.3547 31.9723 37.7688 31.5574C38.134 31.193 38.3106 30.7744 38.3106 30.2801C38.3106 28.0305 36.7713 26.9373 33.6037 26.9373C31.2658 26.9373 28.444 27.4969 25.2177 28.5998C24.4881 28.8507 23.953 29.0503 23.6279 29.1921L23.1084 29.4192V14.9205L23.3786 14.8441C27.3493 13.7182 31.5582 13.1475 35.8896 13.1475C46.7322 13.1475 53.4787 16.2157 55.942 22.2675C56.5083 23.6605 56.7948 25.2459 56.7948 26.9789C56.7948 31.4468 55.5368 34.8713 53.0571 37.1565C52.1376 38.0115 50.9107 38.963 49.4123 39.9827C47.9427 40.9839 46.8421 41.8263 46.1407 42.4869C44.5034 44.0225 43.3419 45.9002 42.6873 48.0696L42.6079 48.3338ZM31.0164 47.5916H42.0587C42.7645 45.4066 43.9654 43.5081 45.6323 41.9458C46.3611 41.26 47.4922 40.3932 48.9944 39.3704C50.4617 38.3707 51.6589 37.443 52.5525 36.6125C54.8748 34.4727 56.0519 31.2316 56.0519 26.9796C56.0519 25.3431 55.7832 23.8513 55.254 22.548C52.9154 16.8035 46.3997 13.8904 35.8889 13.8904C31.7245 13.8904 27.6758 14.427 23.8498 15.4839V28.3022C24.1519 28.1879 24.5252 28.0536 24.9765 27.8984C28.2807 26.7681 31.1834 26.1959 33.6029 26.1959C37.2181 26.1959 39.0521 27.5704 39.0521 30.2816C39.0521 30.9733 38.7968 31.5797 38.2928 32.0836C37.8423 32.5356 37.2664 32.9898 36.5821 33.4344L34.4409 34.8312C33.7068 35.3107 33.0092 35.9 32.3657 36.5843C31.7311 37.2589 31.1997 38.0842 30.7856 39.0342C30.3737 39.9768 30.1659 41.2244 30.1659 42.7429C30.1666 44.1998 30.4523 45.8297 31.0164 47.5916Z" fill="black"/>
<path d="M376.922 25.8069C368.958 5.31738 345.895 -4.83426 325.411 3.13238C304.927 11.099 294.777 34.1677 302.742 54.6573C304.882 60.1621 308.137 64.8905 312.114 68.7521L306.181 84.5147L322.367 75.9499C331.999 80.6591 343.474 81.5245 354.254 77.3318C374.738 69.3644 384.888 46.2965 376.922 25.8069Z" fill="white"/>
<path d="M305.489 85.3007L311.681 68.8486C307.58 64.82 304.456 60.0915 302.397 54.7916C298.508 44.7891 298.747 33.8715 303.068 24.0494C307.39 14.2273 315.277 6.67557 325.277 2.7865C345.92 -5.24025 369.243 5.02494 377.269 25.6719C385.295 46.3188 375.031 69.6494 354.388 77.6769C344.065 81.6929 332.407 81.212 322.375 76.3655L305.489 85.3007ZM339.787 0.7967C335.044 0.7967 330.225 1.65838 325.545 3.47822C315.731 7.29529 307.989 14.7075 303.747 24.3485C299.506 33.9895 299.271 44.7053 303.088 54.5222C305.138 59.7969 308.262 64.4949 312.372 68.4864L312.546 68.6556L306.872 83.7287L322.359 75.535L322.528 75.6174C332.414 80.4505 343.929 80.9485 354.117 76.9867C374.378 69.1069 384.453 46.2082 376.575 25.9428C370.519 10.3561 355.58 0.7967 339.787 0.7967Z" fill="black"/>
<path d="M325.458 15.7764C329.559 14.6141 333.847 14.0322 338.321 14.0322C349.44 14.0322 356.25 17.1041 358.75 23.2457C359.32 24.65 359.605 26.2293 359.605 27.9839C359.605 32.5246 358.355 35.9468 355.855 38.2505C354.912 39.1278 353.667 40.0934 352.121 41.1466C350.575 42.1997 349.428 43.077 348.683 43.7791C346.929 45.4245 345.7 47.4099 344.999 49.7352H332.991C332.333 47.7609 332.004 45.9567 332.004 44.3224C332.004 42.6888 332.229 41.3559 332.679 40.3242C333.128 39.2933 333.699 38.4109 334.39 37.6754C335.08 36.9406 335.82 36.3157 336.61 35.7998C337.4 35.2848 338.14 34.8016 338.831 34.3518C339.522 33.9028 340.092 33.4523 340.542 33.0025C340.991 32.5535 341.216 32.0214 341.216 31.4068C341.216 28.8404 339.461 27.5571 335.953 27.5571C333.474 27.5571 330.535 28.139 327.136 29.3012C326.368 29.5647 325.809 29.7733 325.458 29.9262V15.7764ZM345.941 59.3992C345.941 63.3291 342.755 66.5153 338.826 66.5153C334.897 66.5153 331.712 63.3291 331.712 59.3992C331.712 55.4693 334.898 52.2831 338.826 52.2831C342.756 52.2831 345.941 55.4693 345.941 59.3992Z" fill="#8ED4B5"/>
<path d="M338.827 66.8864C334.699 66.8864 331.341 63.528 331.341 59.3999C331.341 55.2719 334.699 51.9127 338.827 51.9127C342.954 51.9127 346.312 55.2719 346.312 59.3999C346.312 63.528 342.954 66.8864 338.827 66.8864ZM338.827 52.6549C335.108 52.6549 332.083 55.6808 332.083 59.3999C332.083 63.1183 335.108 66.1442 338.827 66.1442C342.545 66.1442 345.57 63.1183 345.57 59.3999C345.57 55.6801 342.545 52.6549 338.827 52.6549ZM345.274 50.1063H332.724L332.639 49.8524C331.972 47.8493 331.634 45.9886 331.634 44.3216C331.634 42.6443 331.871 41.249 332.339 40.175C332.802 39.11 333.402 38.1838 334.119 37.4208C334.826 36.6682 335.596 36.018 336.407 35.4881L338.629 34.0409C339.293 33.6089 339.848 33.171 340.279 32.7405C340.66 32.3598 340.845 31.9234 340.845 31.4068C340.845 29.0652 339.245 27.9275 335.952 27.9275C333.528 27.9275 330.603 28.5071 327.255 29.6516C326.504 29.9098 325.949 30.1169 325.605 30.2661L325.086 30.4932V15.4958L325.356 15.4186C329.471 14.2527 333.833 13.6611 338.321 13.6611C349.554 13.6611 356.543 16.8392 359.094 23.1062C359.679 24.549 359.976 26.19 359.976 27.9846C359.976 32.6122 358.674 36.1583 356.106 38.5244C355.157 39.4076 353.886 40.394 352.329 41.4538C350.807 42.4907 349.666 43.3635 348.937 44.0493C347.239 45.642 346.033 47.591 345.353 49.8428L345.274 50.1063ZM333.26 49.3641H344.726C345.457 47.0974 346.702 45.1277 348.429 43.5075C349.185 42.7964 350.357 41.8984 351.912 40.84C353.437 39.8002 354.679 38.8384 355.602 37.9789C358.012 35.7575 359.234 32.3962 359.234 27.9846C359.234 26.2865 358.956 24.7398 358.406 23.386C355.979 17.4255 349.222 14.4033 338.32 14.4033C333.999 14.4033 329.797 14.96 325.827 16.0577V29.3755C326.147 29.253 326.544 29.1105 327.013 28.9495C330.439 27.779 333.445 27.1853 335.951 27.1853C339.689 27.1853 341.586 28.6051 341.586 31.4068C341.586 32.1201 341.322 32.7457 340.802 33.2653C340.335 33.7329 339.739 34.2034 339.032 34.6628L336.812 36.1101C336.05 36.6073 335.325 37.2196 334.658 37.9292C333.999 38.6298 333.447 39.4855 333.017 40.4719C332.589 41.4509 332.373 42.746 332.373 44.3209C332.376 45.8387 332.673 47.5338 333.26 49.3641Z" fill="black"/>
</g>
<defs>
<clipPath id="clip0_242_16417">
<rect width="380" height="380" fill="white"/>
</clipPath>
</defs>
</svg>
