<svg width="1440" height="152" viewBox="0 0 1440 152" fill="none" xmlns="http://www.w3.org/2000/svg">
<path opacity="0.2" d="M-37.5131 151.33V0.952072H-14.0831L-4.07207 30.9851V151.33H-37.5131ZM66.2179 151.33L-22.3901 37.8011L-14.0831 0.952072L74.5249 114.481L66.2179 151.33ZM66.2179 151.33L57.2719 121.297V0.952072H90.7129V151.33H66.2179ZM119.741 151.33V0.952072H153.182V151.33H119.741ZM145.301 151.33V122.362H227.732V151.33H145.301ZM145.301 88.4951V60.5921H220.277V88.4951H145.301ZM145.301 29.7071V0.952072H226.667V29.7071H145.301ZM288.274 151.33L239.923 0.952072H273.151L308.509 116.611H295.516L330.022 0.952072H356.221L390.727 116.611H377.947L413.092 0.952072H446.107L397.756 151.33H371.557L336.838 35.6711H349.192L314.473 151.33H288.274ZM504.763 151.33V0.952072H538.204V151.33H504.763ZM530.323 151.33V122.362H612.754V151.33H530.323ZM530.323 88.4951V60.5921H605.299V88.4951H530.323ZM530.323 29.7071V0.952072H611.689V29.7071H530.323ZM661.368 89.3471V64.6391H693.105C699.779 64.6391 704.891 62.9351 708.441 59.5271C712.133 56.1191 713.979 51.5041 713.979 45.6821C713.979 40.2861 712.204 35.8131 708.654 32.2631C705.104 28.7131 699.992 26.9381 693.318 26.9381H661.368V0.952072H697.152C707.092 0.952072 715.825 2.86907 723.351 6.70307C730.877 10.3951 736.77 15.5781 741.03 22.2521C745.29 28.9261 747.42 36.5941 747.42 45.2561C747.42 54.0601 745.29 61.7991 741.03 68.4731C736.77 75.0051 730.806 80.1171 723.138 83.8091C715.47 87.5011 706.453 89.3471 696.087 89.3471H661.368ZM635.808 151.33V0.952072H669.249V151.33H635.808ZM717.6 151.33L670.74 86.5781L701.412 78.2711L757.218 151.33H717.6ZM755.772 151.33L815.412 0.952072H845.658L904.659 151.33H869.301L824.145 26.5121H836.286L790.491 151.33H755.772ZM789.639 124.066V96.8021H871.644V124.066H789.639ZM956.764 151.33V0.952072H990.205V151.33H956.764ZM1049.85 151.33V0.952072H1083.5V151.33H1049.85ZM976.786 88.4951V59.5271H1060.92V88.4951H976.786ZM1112.35 151.33V0.952072H1145.8V151.33H1112.35ZM1137.91 151.33V122.362H1220.35V151.33H1137.91ZM1137.91 88.4951V60.5921H1212.89V88.4951H1137.91ZM1137.91 29.7071V0.952072H1219.28V29.7071H1137.91ZM1268.96 89.3471V64.6391H1300.7C1307.37 64.6391 1312.48 62.9351 1316.03 59.5271C1319.72 56.1191 1321.57 51.5041 1321.57 45.6821C1321.57 40.2861 1319.8 35.8131 1316.25 32.2631C1312.7 28.7131 1307.58 26.9381 1300.91 26.9381H1268.96V0.952072H1304.74C1314.68 0.952072 1323.42 2.86907 1330.94 6.70307C1338.47 10.3951 1344.36 15.5781 1348.62 22.2521C1352.88 28.9261 1355.01 36.5941 1355.01 45.2561C1355.01 54.0601 1352.88 61.7991 1348.62 68.4731C1344.36 75.0051 1338.4 80.1171 1330.73 83.8091C1323.06 87.5011 1314.04 89.3471 1303.68 89.3471H1268.96ZM1243.4 151.33V0.952072H1276.84V151.33H1243.4ZM1325.19 151.33L1278.33 86.5781L1309 78.2711L1364.81 151.33H1325.19ZM1379.44 151.33V0.952072H1412.88V151.33H1379.44ZM1405 151.33V122.362H1487.43V151.33H1405ZM1405 88.4951V60.5921H1479.97V88.4951H1405ZM1405 29.7071V0.952072H1486.36V29.7071H1405Z" fill="url(#paint0_linear_242_17180)"/>
<defs>
<linearGradient id="paint0_linear_242_17180" x1="650" y1="-1" x2="650" y2="176.5" gradientUnits="userSpaceOnUse">
<stop stop-color="#ACB5B7"/>
<stop offset="1" stop-color="#ACB5B7" stop-opacity="0"/>
</linearGradient>
</defs>
</svg>
