<svg width="260" height="285" viewBox="0 0 260 285" fill="none" xmlns="http://www.w3.org/2000/svg">
<g opacity="0.4" filter="url(#filter0_f_242_16965)">
<path d="M94.3066 148.008L88.7949 190.508C104.334 195.189 120.736 193.861 135.412 186.822C132.092 174.271 128.738 161.688 125.418 149.137L109.68 134.029L103.504 134.76L94.3066 148.008Z" fill="#23C1F2"/>
<path d="M109.68 134.029C111.871 133.83 115.191 133.797 118.811 135.059C126.248 137.682 127.775 143.16 143.547 155.08C145.439 145.484 147.299 135.855 149.191 126.26C151.814 126.193 154.471 126.127 157.094 126.061C157.094 126.061 164.564 169.822 149.756 173.906C134.98 177.99 121.865 158.035 121.865 158.035L109.68 134.029Z" fill="#23C1F2"/>
<path d="M87.567 207.939C83.0514 213.484 87.4674 219.693 94.2077 220.59L111.54 215.078L108.85 207.01C101.745 207.309 94.6393 207.607 87.567 207.939Z" fill="#23C1F2"/>
<path d="M103.471 134.76C103.637 134.926 104.865 136.121 106.725 135.889C108.617 135.689 109.547 134.195 109.68 133.996C108.949 131.406 108.252 128.816 107.521 126.227L103.736 126.691L103.471 134.76Z" fill="#FF83DF"/>
<path d="M103.936 128.086C103.869 127.754 103.803 127.422 103.736 127.09L107.621 126.625C107.953 127.887 108.318 129.115 108.65 130.377C108.285 130.543 107.588 130.742 106.791 130.609C104.799 130.277 103.969 128.219 103.936 128.086Z" fill="#FF59CF"/>
<path d="M105.396 127.289C107.89 127.289 109.912 125.267 109.912 122.773C109.912 120.28 107.89 118.258 105.396 118.258C102.903 118.258 100.881 120.28 100.881 122.773C100.881 125.267 102.903 127.289 105.396 127.289Z" fill="#FF83DF"/>
<path d="M109.779 121.711C109.945 122.574 110.111 123.305 110.211 123.869C110.51 125.529 110.543 125.994 110.443 126.525C110.377 126.857 110.277 127.555 109.812 128.119C108.783 129.447 106.459 129.48 104.932 128.949C103.271 128.385 102.375 127.09 102.043 126.559C102.043 126.559 101.844 126.227 100.98 123.836C106.293 122.574 104.268 123.039 109.779 121.711Z" fill="#FF83DF"/>
<path d="M108.783 126.227L106.459 126.426C106.691 126.625 107.156 126.99 107.787 127.023C108.02 127.023 108.318 127.057 108.518 126.824C108.75 126.625 108.783 126.326 108.783 126.227Z" fill="#FFF3FF"/>
<path d="M100.98 199.306C114.195 192.799 126.281 187.021 137.105 181.941C151.516 175.168 159.318 171.715 163.867 175.168C167.719 178.123 167.652 184.83 167.055 188.15C163.004 209.931 110.842 216.771 103.77 217.668C102.807 211.558 101.91 205.416 100.98 199.306Z" fill="#8F00CD"/>
<path d="M124.157 186.723C124.157 186.723 102.873 188.283 82.3206 184.764C61.7679 181.244 61.0706 199.141 69.803 205.051C78.5354 210.961 117.416 213.783 117.416 213.783L124.157 186.723Z" fill="#8F00CD"/>
<path d="M106.193 133.664C106.193 133.664 91.3183 136.32 86.1054 148.008C80.8925 159.695 69.9023 177.658 75.6796 184.299C81.457 190.939 98.6894 188.283 110.476 180.115L109.646 170.254C103.902 171.25 98.1581 172.246 92.414 173.275C94.1406 167.066 95.8671 160.891 97.6269 154.682C104.234 149.568 107.09 141.732 106.193 133.664Z" fill="#23C1F2"/>
<path d="M148.727 128.617C148.727 128.617 148.295 122.939 149.889 120.847C151.483 118.756 152.18 116.033 153.077 116.265C153.973 116.498 153.774 118.656 153.077 120.25C153.077 120.25 156.563 119.552 157.659 118.258C158.754 116.963 159.85 114.97 160.448 115.07C161.045 115.17 161.045 116.265 160.448 117.759C160.448 117.759 161.444 115.136 162.34 115.767C163.237 116.398 161.743 119.054 161.743 119.054C161.743 119.054 163.137 117.228 163.934 117.66C164.731 118.091 162.241 121.711 162.241 121.711C162.241 121.711 164.133 119.685 164.532 120.914C164.93 122.142 159.253 127.289 156.165 127.986C153.077 128.716 148.727 128.617 148.727 128.617Z" fill="#FF83DF"/>
<path d="M158.987 120.084C158.854 120.084 158.754 119.918 158.854 119.819C159.75 118.823 160.282 117.727 160.282 117.727C160.315 117.627 160.414 117.594 160.514 117.661C160.614 117.694 160.647 117.793 160.581 117.893C160.547 117.926 160.049 119.022 159.12 120.084C159.053 120.051 159.02 120.084 158.987 120.084Z" fill="#4B3BC5"/>
<path d="M160.348 120.914C160.979 120.482 161.577 119.021 161.577 118.988C161.61 118.888 161.709 118.855 161.776 118.888C161.875 118.922 161.909 119.021 161.875 119.088C161.842 119.154 161.245 120.681 160.514 121.146C160.348 121.312 160.149 121.013 160.348 120.914Z" fill="#4B3BC5"/>
<path d="M161.078 122.873C160.912 122.873 160.846 122.641 160.979 122.574C161.809 122.043 162.075 121.645 162.075 121.645C162.141 121.578 162.241 121.545 162.307 121.611C162.373 121.678 162.407 121.777 162.34 121.844C162.34 121.877 162.041 122.309 161.145 122.873C161.145 122.873 161.112 122.873 161.078 122.873Z" fill="#4B3BC5"/>
<path d="M157.326 124.566C157.326 122.408 155.766 120.582 153.342 120.416C154.006 121.744 153.641 123.271 152.611 124.201C152.545 124.268 152.445 124.268 152.379 124.201C152.313 124.135 152.313 124.035 152.379 123.969C153.408 123.039 153.641 121.545 152.91 120.35C152.844 120.25 152.91 120.084 153.043 120.084C155.666 120.084 157.658 122.01 157.625 124.566C157.658 124.799 157.326 124.799 157.326 124.566Z" fill="#4B3BC5"/>
<path d="M149.291 189.014H114.693L117.881 162.982H151.781L149.291 189.014Z" fill="#4B3BC5"/>
<path d="M98.8555 186.424H121.467V189.047H98.8555V186.424Z" fill="#4B3BC5"/>
<path d="M145.041 86.084H154.271V112.049H145.041V86.084Z" fill="#FF9100"/>
<path d="M158.721 78.2812H167.951V112.049H158.721V78.2812Z" fill="#FFC700"/>
<path d="M172.832 73.3672H182.062V112.049H172.832V73.3672Z" fill="#FF9100"/>
<path d="M186.512 64.1035H195.742V112.049H186.512V64.1035Z" fill="#FFC700"/>
<path d="M102.873 124.5C102.873 124.5 103.604 123.836 102.873 121.744C102.143 119.652 103.803 121.18 105.397 121.346C106.99 121.512 106.426 119.752 107.223 119.719C107.986 119.686 109.016 122.176 110.975 120.682C112.934 119.188 112.037 117.229 110.477 116.863C108.916 116.498 111.506 115.369 109.381 114.108C107.256 112.846 106.758 115.768 104.799 114.406C102.84 113.045 99.752 115.104 100.15 117.096C100.549 119.121 98.8887 116.83 97.3946 118.225C95.9004 119.619 95.8008 120.615 97.3946 122.043C98.9883 123.471 97.461 122.94 97.6602 124.733C97.8594 126.559 101.014 128.85 103.703 129.016C103.736 129.049 104.201 126.326 102.873 124.5Z" fill="#4B3BC5"/>
<path d="M103.419 126.901C104.138 126.394 104.182 125.218 103.516 124.274C102.851 123.331 101.728 122.976 101.009 123.483C100.29 123.99 100.246 125.167 100.912 126.11C101.577 127.054 102.7 127.408 103.419 126.901Z" fill="#FF83DF"/>
<path d="M102.043 125.396C102.076 125.131 102.242 124.998 102.508 124.965C102.309 124.732 101.844 124.234 101.678 124.5C101.611 124.633 101.645 124.898 101.711 125.031C101.744 125.131 101.711 125.197 101.611 125.23C101.512 125.263 101.445 125.23 101.412 125.131C101.047 124.101 101.943 123.47 103.006 125.031C103.072 125.164 102.973 125.33 102.84 125.297C102.707 125.263 102.508 125.263 102.441 125.33C102.275 125.429 102.607 125.828 102.873 125.861C102.973 125.861 103.006 125.861 103.072 125.728C103.105 125.629 103.172 125.595 103.271 125.595C103.371 125.629 103.404 125.695 103.404 125.795C103.139 126.658 102.01 125.994 102.043 125.396Z" fill="#4B3BC5"/>
<path d="M116.586 198.045C125.584 198.842 130.066 196.916 132.49 194.891C133.354 194.194 134.98 192.567 137.67 191.969C140.227 191.372 142.584 191.969 144.178 192.567C144.842 200.137 143.281 207.674 139.629 214.381C139.629 214.381 126.547 215.51 113.863 209.5C114.727 205.682 115.656 201.864 116.586 198.045Z" fill="#23C1F2"/>
<path d="M122.729 192.4L118.678 213.783L100.881 212.123L105.762 195.754L122.729 192.4Z" fill="#8F00CD"/>
<path d="M149.357 124.533C148.893 127.223 148.395 129.945 147.93 132.635C147.93 132.635 154.271 134.66 158.057 133.332L157.061 125.363C154.504 125.098 151.947 124.799 149.357 124.533Z" fill="#FF83DF"/>
<path d="M143.547 155.08L148.328 130.643L161.643 133.432C161.643 133.432 159.053 162.584 156.33 167.066C153.607 171.549 151.416 160.326 151.416 160.326L143.547 155.08Z" fill="#23C1F2"/>
<path d="M111.44 172.412C109.448 171.483 106.825 172.014 101.977 174.106L97.0628 174.936C97.0628 174.936 96.598 181.842 98.8226 184.332L101.877 182.705C101.877 182.705 104.633 183.27 106.227 181.41C107.821 179.551 108.983 183.901 110.244 183.303C111.407 182.772 109.448 179.949 109.182 179.584C109.448 179.949 111.573 182.738 112.336 181.942C113.2 181.045 110.311 177.393 110.311 177.393C110.311 177.393 113.133 180.879 113.93 180.115C114.727 179.352 112.17 175.998 112.17 175.998C112.17 175.998 115.026 179.318 115.723 178.156C116.42 176.994 113.432 173.309 111.44 172.412Z" fill="#FF83DF"/>
<path d="M134.316 179.385C136.187 179.385 137.703 177.868 137.703 175.998C137.703 174.128 136.187 172.611 134.316 172.611C132.446 172.611 130.93 174.128 130.93 175.998C130.93 177.868 132.446 179.385 134.316 179.385Z" fill="#FFF3FF"/>
<path d="M109.846 180.713C109.779 180.713 109.713 180.646 109.68 180.58C109.68 180.514 109.348 179.152 107.787 178.754C107.688 178.721 107.654 178.654 107.654 178.555C107.687 178.455 107.754 178.422 107.854 178.422C109.613 178.854 109.945 180.414 109.979 180.48C110.045 180.613 109.979 180.713 109.846 180.713Z" fill="#4B3BC5"/>
<path d="M111.008 178.289C110.941 178.289 110.908 178.256 110.875 178.189C110.875 178.156 109.746 176.197 107.887 176.363C107.654 176.363 107.654 176.064 107.854 176.031C109.945 175.865 111.107 177.924 111.174 178.023C111.24 178.156 111.141 178.289 111.008 178.289Z" fill="#4B3BC5"/>
<path d="M112.701 176.895C112.635 176.895 112.568 176.862 112.535 176.795C112.502 176.696 111.373 174.205 108.85 174.637C108.75 174.637 108.684 174.604 108.65 174.504C108.65 174.405 108.684 174.338 108.783 174.305C111.539 173.807 112.801 176.629 112.801 176.662C112.9 176.762 112.834 176.895 112.701 176.895Z" fill="#4B3BC5"/>
<path d="M99.2211 174.57C99.0219 179.617 98.8226 184.664 98.5902 189.678C98.5902 189.678 80.5277 191.338 75.6801 184.299C70.8324 177.26 85.6742 173.807 85.6742 173.807C90.223 174.072 94.7387 174.305 99.2211 174.57Z" fill="#23C1F2"/>
<path d="M80.2621 180.48C83.4828 175.268 88.6957 174.271 88.7621 174.271C88.8617 174.271 88.9281 174.305 88.9613 174.404C88.9613 174.504 88.9281 174.57 88.8285 174.604C88.7621 174.604 83.7152 175.566 80.5609 180.68C80.4281 180.812 80.1625 180.646 80.2621 180.48Z" fill="#4B3BC5"/>
<path d="M98.8555 186.822C98.7559 186.822 98.6895 186.756 98.6895 186.656V184.332C98.6895 184.232 98.7559 184.166 98.8555 184.166C98.9551 184.166 99.0215 184.232 99.0215 184.332V186.656C99.0215 186.723 98.9551 186.822 98.8555 186.822Z" fill="#4B3BC5"/>
<path d="M144.012 161.953C143.945 161.953 143.879 161.887 143.846 161.82C143.148 158.732 143.347 155.113 143.381 155.08C143.381 154.98 143.48 154.914 143.547 154.914C143.646 154.914 143.713 155.014 143.713 155.08C143.713 155.113 143.48 158.699 144.178 161.754C144.211 161.854 144.111 161.953 144.012 161.953Z" fill="#4B3BC5"/>
<path d="M122.264 195.389C126.58 193.729 130.863 191.637 135.047 189.08C135.113 189.047 135.213 189.047 135.279 189.147C135.312 189.213 135.312 189.313 135.213 189.379C131.295 191.77 127.012 193.928 122.396 195.688C122.197 195.787 122.064 195.489 122.264 195.389Z" fill="#4B3BC5"/>
<path d="M118.678 213.949C118.645 213.949 118.844 213.949 102.973 212.854C102.873 212.854 102.807 212.754 102.807 212.688C102.807 212.588 102.906 212.522 102.973 212.522L118.512 213.584L118.91 211.559C118.943 211.326 119.275 211.393 119.242 211.625L118.844 213.783C118.811 213.883 118.744 213.949 118.678 213.949Z" fill="#4B3BC5"/>
<path d="M140.691 191.77C140.691 191.77 136.475 193.396 137.67 198.211C138.898 203.025 141.521 202.328 139.729 207.84C137.936 213.352 128.34 213.783 128.34 213.783C128.34 213.783 135.777 215.277 139.596 214.381C139.596 214.381 146.402 205.383 144.145 192.566C144.145 192.566 143.779 191.57 140.691 191.77Z" fill="#4B3BC5"/>
<path d="M88.7955 210.43C88.7955 210.43 90.6217 210.496 90.987 214.48C91.3522 218.465 97.9264 219.395 97.9264 219.395L94.2077 220.59C94.2077 220.59 83.9479 221.088 84.612 209.699L88.7955 210.43Z" fill="#4B3BC5"/>
<path d="M120.471 204.254C120.471 204.254 125.451 206.18 129.037 204.254C132.623 202.328 130.93 195.92 130.93 195.92C130.93 195.92 126.746 197.846 121.865 196.816L120.471 204.254Z" fill="#4B3BC5"/>
<path d="M121.633 198.377C121.533 198.377 121.434 198.277 121.467 198.178L122.529 192.566C121.168 192.4 111.971 191.305 103.471 190.707C103.371 190.707 103.305 190.607 103.305 190.541C103.305 190.475 103.404 190.375 103.471 190.375C112.668 191.039 122.629 192.234 122.729 192.268C122.762 192.268 122.828 192.301 122.828 192.334C122.895 192.434 122.928 192.002 121.766 198.244C121.766 198.311 121.699 198.377 121.633 198.377Z" fill="#4B3BC5"/>
<path d="M100.35 135.457C100.35 135.457 102.939 140.803 108.65 139.84C114.361 138.877 114.162 134.029 114.162 134.029L112.104 133.93L108.783 135.955L102.342 134.727L100.35 135.457Z" fill="#00C1D7"/>
<path d="M102.342 134.727C102.342 134.727 103.869 137.649 107.588 137.483C111.307 137.317 112.104 133.93 112.104 133.93C112.104 133.93 106.592 132.403 102.342 134.727Z" fill="#FF83DF"/>
<path d="M95.3359 156.674C95.3359 156.674 117.848 156.939 125.086 150.797L126.115 157.604C126.115 157.604 108.02 166.236 93.6426 162.949L95.3359 156.674Z" fill="#00C1D7"/>
<path d="M83.6152 153.32C83.6152 153.32 90.4551 156.773 95.3359 156.674L93.6426 162.949C93.6426 162.949 86.2715 163.049 80.6934 159.297L83.6152 153.32Z" fill="#00C1D7"/>
<path d="M125.086 150.797C125.086 150.797 129.602 149.104 132.025 145.418L137.006 149.834C134.051 153.42 130.299 156.043 126.115 157.604L125.086 150.797Z" fill="#00C1D7"/>
<path d="M99.2214 174.737C98.1589 174.737 103.073 174.803 88.7624 174.571C88.6296 174.571 88.5632 174.405 88.6296 174.305C88.6628 174.272 90.987 171.018 94.1413 160.825C97.2624 150.664 94.1745 145.584 94.1745 145.518C94.1413 145.452 94.1413 145.352 94.2409 145.285C94.3073 145.252 94.4069 145.252 94.4733 145.352C94.5065 145.418 97.6608 150.598 94.5065 160.924C91.8171 169.723 89.7253 173.309 89.1276 174.272L99.2546 174.405C99.3542 174.405 99.4206 174.471 99.4206 174.571C99.3874 174.637 99.321 174.737 99.2214 174.737Z" fill="#4B3BC5"/>
<path d="M126.348 161.953C126.248 161.953 126.182 161.887 126.182 161.787C125.983 154.815 124.688 149.237 123.625 145.784C122.463 142.032 121.334 139.907 121.334 139.907C121.301 139.84 121.334 139.741 121.401 139.674C121.467 139.641 121.567 139.674 121.633 139.741C121.666 139.84 126.182 148.34 126.547 161.754C126.514 161.821 126.481 161.953 126.348 161.953Z" fill="#4B3BC5"/>
</g>
<path d="M94.3066 148.008L88.7949 190.508C104.334 195.189 120.736 193.861 135.412 186.822C132.092 174.271 128.738 161.688 125.418 149.137L109.68 134.029L103.504 134.76L94.3066 148.008Z" fill="#23C1F2"/>
<path d="M109.68 134.029C111.871 133.83 115.191 133.797 118.811 135.059C126.248 137.682 127.775 143.16 143.547 155.08C145.439 145.484 147.299 135.855 149.191 126.26C151.814 126.193 154.471 126.127 157.094 126.061C157.094 126.061 164.564 169.822 149.756 173.906C134.98 177.99 121.865 158.035 121.865 158.035L109.68 134.029Z" fill="#23C1F2"/>
<path d="M87.567 207.939C83.0514 213.484 87.4674 219.693 94.2077 220.59L111.54 215.078L108.85 207.01C101.745 207.309 94.6393 207.607 87.567 207.939Z" fill="#23C1F2"/>
<path d="M103.471 134.76C103.637 134.926 104.865 136.121 106.725 135.889C108.617 135.689 109.547 134.195 109.68 133.996C108.949 131.406 108.252 128.816 107.521 126.227L103.736 126.691L103.471 134.76Z" fill="#FF9900"/>
<path d="M103.936 128.086C103.869 127.754 103.803 127.422 103.736 127.09L107.621 126.625C107.953 127.887 108.318 129.115 108.65 130.377C108.285 130.543 107.588 130.742 106.791 130.609C104.799 130.277 103.969 128.219 103.936 128.086Z" fill="#FF59CF"/>
<path d="M105.396 127.289C107.89 127.289 109.912 125.267 109.912 122.773C109.912 120.28 107.89 118.258 105.396 118.258C102.903 118.258 100.881 120.28 100.881 122.773C100.881 125.267 102.903 127.289 105.396 127.289Z" fill="#FF9900"/>
<path d="M109.779 121.711C109.945 122.574 110.111 123.305 110.211 123.869C110.51 125.529 110.543 125.994 110.443 126.525C110.377 126.857 110.277 127.555 109.812 128.119C108.783 129.447 106.459 129.48 104.932 128.949C103.271 128.385 102.375 127.09 102.043 126.559C102.043 126.559 101.844 126.227 100.98 123.836C106.293 122.574 104.268 123.039 109.779 121.711Z" fill="#FF9900"/>
<path d="M108.783 126.227L106.459 126.426C106.691 126.625 107.156 126.99 107.787 127.023C108.02 127.023 108.318 127.057 108.518 126.824C108.75 126.625 108.783 126.326 108.783 126.227Z" fill="#FFF3FF"/>
<path d="M100.98 199.306C114.195 192.799 126.281 187.021 137.105 181.941C151.516 175.168 159.318 171.715 163.867 175.168C167.719 178.123 167.652 184.83 167.055 188.15C163.004 209.931 110.842 216.771 103.77 217.668C102.807 211.558 101.91 205.416 100.98 199.306Z" fill="#7B5DD6"/>
<path d="M124.157 186.723C124.157 186.723 102.873 188.283 82.3206 184.764C61.7679 181.244 61.0706 199.141 69.803 205.051C78.5354 210.961 117.416 213.783 117.416 213.783L124.157 186.723Z" fill="#7B5DD6"/>
<path d="M106.193 133.664C106.193 133.664 91.3183 136.32 86.1054 148.008C80.8925 159.695 69.9023 177.658 75.6796 184.299C81.457 190.939 98.6894 188.283 110.476 180.115L109.646 170.254C103.902 171.25 98.1581 172.246 92.414 173.275C94.1406 167.066 95.8671 160.891 97.6269 154.682C104.234 149.568 107.09 141.732 106.193 133.664Z" fill="#23C1F2"/>
<path d="M148.727 128.617C148.727 128.617 148.295 122.939 149.889 120.847C151.483 118.756 152.18 116.033 153.077 116.265C153.973 116.498 153.774 118.656 153.077 120.25C153.077 120.25 156.563 119.552 157.659 118.258C158.754 116.963 159.85 114.97 160.448 115.07C161.045 115.17 161.045 116.265 160.448 117.759C160.448 117.759 161.444 115.136 162.34 115.767C163.237 116.398 161.743 119.054 161.743 119.054C161.743 119.054 163.137 117.228 163.934 117.66C164.731 118.091 162.241 121.711 162.241 121.711C162.241 121.711 164.133 119.685 164.532 120.914C164.93 122.142 159.253 127.289 156.165 127.986C153.077 128.716 148.727 128.617 148.727 128.617Z" fill="#FF9900"/>
<path d="M158.987 120.084C158.854 120.084 158.754 119.918 158.854 119.819C159.75 118.823 160.282 117.727 160.282 117.727C160.315 117.627 160.414 117.594 160.514 117.661C160.614 117.694 160.647 117.793 160.581 117.893C160.547 117.926 160.049 119.022 159.12 120.084C159.053 120.051 159.02 120.084 158.987 120.084Z" fill="#4B3BC5"/>
<path d="M160.348 120.914C160.979 120.482 161.577 119.021 161.577 118.988C161.61 118.888 161.709 118.855 161.776 118.888C161.875 118.922 161.909 119.021 161.875 119.088C161.842 119.154 161.245 120.681 160.514 121.146C160.348 121.312 160.149 121.013 160.348 120.914Z" fill="#4B3BC5"/>
<path d="M161.078 122.873C160.912 122.873 160.846 122.641 160.979 122.574C161.809 122.043 162.075 121.645 162.075 121.645C162.141 121.578 162.241 121.545 162.307 121.611C162.373 121.678 162.407 121.777 162.34 121.844C162.34 121.877 162.041 122.309 161.145 122.873C161.145 122.873 161.112 122.873 161.078 122.873Z" fill="#4B3BC5"/>
<path d="M157.326 124.566C157.326 122.408 155.766 120.582 153.342 120.416C154.006 121.744 153.641 123.271 152.611 124.201C152.545 124.268 152.445 124.268 152.379 124.201C152.313 124.135 152.313 124.035 152.379 123.969C153.408 123.039 153.641 121.545 152.91 120.35C152.844 120.25 152.91 120.084 153.043 120.084C155.666 120.084 157.658 122.01 157.625 124.566C157.658 124.799 157.326 124.799 157.326 124.566Z" fill="#4B3BC5"/>
<path d="M149.291 189.014H114.693L117.881 162.982H151.781L149.291 189.014Z" fill="#4B3BC5"/>
<path d="M98.8555 186.424H121.467V189.047H98.8555V186.424Z" fill="#4B3BC5"/>
<path d="M145.041 86.084H154.271V112.049H145.041V86.084Z" fill="#FF9100"/>
<path d="M158.721 78.2812H167.951V112.049H158.721V78.2812Z" fill="#FFC700"/>
<path d="M172.832 73.3672H182.062V112.049H172.832V73.3672Z" fill="#FF9100"/>
<path d="M186.512 64.1035H195.742V112.049H186.512V64.1035Z" fill="#FFC700"/>
<path d="M102.873 124.5C102.873 124.5 103.604 123.836 102.873 121.744C102.143 119.652 103.803 121.18 105.397 121.346C106.99 121.512 106.426 119.752 107.223 119.719C107.986 119.686 109.016 122.176 110.975 120.682C112.934 119.188 112.037 117.229 110.477 116.863C108.916 116.498 111.506 115.369 109.381 114.108C107.256 112.846 106.758 115.768 104.799 114.406C102.84 113.045 99.752 115.104 100.15 117.096C100.549 119.121 98.8887 116.83 97.3946 118.225C95.9004 119.619 95.8008 120.615 97.3946 122.043C98.9883 123.471 97.461 122.94 97.6602 124.733C97.8594 126.559 101.014 128.85 103.703 129.016C103.736 129.049 104.201 126.326 102.873 124.5Z" fill="#4B3BC5"/>
<path d="M103.419 126.901C104.138 126.394 104.182 125.218 103.516 124.274C102.851 123.331 101.728 122.976 101.009 123.483C100.29 123.99 100.246 125.167 100.912 126.11C101.577 127.054 102.7 127.408 103.419 126.901Z" fill="#FF9900"/>
<path d="M102.043 125.396C102.076 125.131 102.242 124.998 102.508 124.965C102.309 124.732 101.844 124.234 101.678 124.5C101.611 124.633 101.645 124.898 101.711 125.031C101.744 125.131 101.711 125.197 101.611 125.23C101.512 125.263 101.445 125.23 101.412 125.131C101.047 124.101 101.943 123.47 103.006 125.031C103.072 125.164 102.973 125.33 102.84 125.297C102.707 125.263 102.508 125.263 102.441 125.33C102.275 125.429 102.607 125.828 102.873 125.861C102.973 125.861 103.006 125.861 103.072 125.728C103.105 125.629 103.172 125.595 103.271 125.595C103.371 125.629 103.404 125.695 103.404 125.795C103.139 126.658 102.01 125.994 102.043 125.396Z" fill="#4B3BC5"/>
<path d="M116.586 198.045C125.584 198.842 130.066 196.916 132.49 194.891C133.354 194.194 134.98 192.567 137.67 191.969C140.227 191.372 142.584 191.969 144.178 192.567C144.842 200.137 143.281 207.674 139.629 214.381C139.629 214.381 126.547 215.51 113.863 209.5C114.727 205.682 115.656 201.864 116.586 198.045Z" fill="#23C1F2"/>
<path d="M122.729 192.4L118.678 213.783L100.881 212.123L105.762 195.754L122.729 192.4Z" fill="#7B5DD6"/>
<path d="M149.357 124.533C148.893 127.223 148.395 129.945 147.93 132.635C147.93 132.635 154.271 134.66 158.057 133.332L157.061 125.363C154.504 125.098 151.947 124.799 149.357 124.533Z" fill="#FF9900"/>
<path d="M143.547 155.08L148.328 130.643L161.643 133.432C161.643 133.432 159.053 162.584 156.33 167.066C153.607 171.549 151.416 160.326 151.416 160.326L143.547 155.08Z" fill="#23C1F2"/>
<path d="M111.44 172.412C109.448 171.483 106.825 172.014 101.977 174.106L97.0628 174.936C97.0628 174.936 96.598 181.842 98.8226 184.332L101.877 182.705C101.877 182.705 104.633 183.27 106.227 181.41C107.821 179.551 108.983 183.901 110.244 183.303C111.407 182.772 109.448 179.949 109.182 179.584C109.448 179.949 111.573 182.738 112.336 181.942C113.2 181.045 110.311 177.393 110.311 177.393C110.311 177.393 113.133 180.879 113.93 180.115C114.727 179.352 112.17 175.998 112.17 175.998C112.17 175.998 115.026 179.318 115.723 178.156C116.42 176.994 113.432 173.309 111.44 172.412Z" fill="#FF9900"/>
<path d="M134.316 179.385C136.187 179.385 137.703 177.868 137.703 175.998C137.703 174.128 136.187 172.611 134.316 172.611C132.446 172.611 130.93 174.128 130.93 175.998C130.93 177.868 132.446 179.385 134.316 179.385Z" fill="#FFF3FF"/>
<path d="M109.846 180.713C109.779 180.713 109.713 180.646 109.68 180.58C109.68 180.514 109.348 179.152 107.787 178.754C107.688 178.721 107.654 178.654 107.654 178.555C107.687 178.455 107.754 178.422 107.854 178.422C109.613 178.854 109.945 180.414 109.979 180.48C110.045 180.613 109.979 180.713 109.846 180.713Z" fill="#4B3BC5"/>
<path d="M111.008 178.289C110.941 178.289 110.908 178.256 110.875 178.189C110.875 178.156 109.746 176.197 107.887 176.363C107.654 176.363 107.654 176.064 107.854 176.031C109.945 175.865 111.107 177.924 111.174 178.023C111.24 178.156 111.141 178.289 111.008 178.289Z" fill="#4B3BC5"/>
<path d="M112.701 176.895C112.635 176.895 112.568 176.862 112.535 176.795C112.502 176.696 111.373 174.205 108.85 174.637C108.75 174.637 108.684 174.604 108.65 174.504C108.65 174.405 108.684 174.338 108.783 174.305C111.539 173.807 112.801 176.629 112.801 176.662C112.9 176.762 112.834 176.895 112.701 176.895Z" fill="#4B3BC5"/>
<path d="M99.2211 174.57C99.0219 179.617 98.8226 184.664 98.5902 189.678C98.5902 189.678 80.5277 191.338 75.6801 184.299C70.8324 177.26 85.6742 173.807 85.6742 173.807C90.223 174.072 94.7387 174.305 99.2211 174.57Z" fill="#23C1F2"/>
<path d="M80.2621 180.48C83.4828 175.268 88.6957 174.271 88.7621 174.271C88.8617 174.271 88.9281 174.305 88.9613 174.404C88.9613 174.504 88.9281 174.57 88.8285 174.604C88.7621 174.604 83.7152 175.566 80.5609 180.68C80.4281 180.812 80.1625 180.646 80.2621 180.48Z" fill="#4B3BC5"/>
<path d="M98.8555 186.822C98.7559 186.822 98.6895 186.756 98.6895 186.656V184.332C98.6895 184.232 98.7559 184.166 98.8555 184.166C98.9551 184.166 99.0215 184.232 99.0215 184.332V186.656C99.0215 186.723 98.9551 186.822 98.8555 186.822Z" fill="#4B3BC5"/>
<path d="M144.012 161.953C143.945 161.953 143.879 161.887 143.846 161.82C143.148 158.732 143.347 155.113 143.381 155.08C143.381 154.98 143.48 154.914 143.547 154.914C143.646 154.914 143.713 155.014 143.713 155.08C143.713 155.113 143.48 158.699 144.178 161.754C144.211 161.854 144.111 161.953 144.012 161.953Z" fill="#4B3BC5"/>
<path d="M122.264 195.389C126.58 193.729 130.863 191.637 135.047 189.08C135.113 189.047 135.213 189.047 135.279 189.147C135.312 189.213 135.312 189.313 135.213 189.379C131.295 191.77 127.012 193.928 122.396 195.688C122.197 195.787 122.064 195.489 122.264 195.389Z" fill="#4B3BC5"/>
<path d="M118.678 213.949C118.645 213.949 118.844 213.949 102.973 212.854C102.873 212.854 102.807 212.754 102.807 212.688C102.807 212.588 102.906 212.522 102.973 212.522L118.512 213.584L118.91 211.559C118.943 211.326 119.275 211.393 119.242 211.625L118.844 213.783C118.811 213.883 118.744 213.949 118.678 213.949Z" fill="#4B3BC5"/>
<path d="M140.691 191.77C140.691 191.77 136.475 193.396 137.67 198.211C138.898 203.025 141.521 202.328 139.729 207.84C137.936 213.352 128.34 213.783 128.34 213.783C128.34 213.783 135.777 215.277 139.596 214.381C139.596 214.381 146.402 205.383 144.145 192.566C144.145 192.566 143.779 191.57 140.691 191.77Z" fill="#4B3BC5"/>
<path d="M88.7955 210.43C88.7955 210.43 90.6217 210.496 90.987 214.48C91.3522 218.465 97.9264 219.395 97.9264 219.395L94.2077 220.59C94.2077 220.59 83.9479 221.088 84.612 209.699L88.7955 210.43Z" fill="#4B3BC5"/>
<path d="M120.471 204.254C120.471 204.254 125.451 206.18 129.037 204.254C132.623 202.328 130.93 195.92 130.93 195.92C130.93 195.92 126.746 197.846 121.865 196.816L120.471 204.254Z" fill="#4B3BC5"/>
<path d="M121.633 198.377C121.533 198.377 121.434 198.277 121.467 198.178L122.529 192.566C121.168 192.4 111.971 191.305 103.471 190.707C103.371 190.707 103.305 190.607 103.305 190.541C103.305 190.475 103.404 190.375 103.471 190.375C112.668 191.039 122.629 192.234 122.729 192.268C122.762 192.268 122.828 192.301 122.828 192.334C122.895 192.434 122.928 192.002 121.766 198.244C121.766 198.311 121.699 198.377 121.633 198.377Z" fill="#4B3BC5"/>
<path d="M100.35 135.457C100.35 135.457 102.939 140.803 108.65 139.84C114.361 138.877 114.162 134.029 114.162 134.029L112.104 133.93L108.783 135.955L102.342 134.727L100.35 135.457Z" fill="#00C1D7"/>
<path d="M102.342 134.727C102.342 134.727 103.869 137.649 107.588 137.483C111.307 137.317 112.104 133.93 112.104 133.93C112.104 133.93 106.592 132.403 102.342 134.727Z" fill="#FF9900"/>
<path d="M95.3359 156.674C95.3359 156.674 117.848 156.939 125.086 150.797L126.115 157.604C126.115 157.604 108.02 166.236 93.6426 162.949L95.3359 156.674Z" fill="#00C1D7"/>
<path d="M83.6152 153.32C83.6152 153.32 90.4551 156.773 95.3359 156.674L93.6426 162.949C93.6426 162.949 86.2715 163.049 80.6934 159.297L83.6152 153.32Z" fill="#00C1D7"/>
<path d="M125.086 150.797C125.086 150.797 129.602 149.104 132.025 145.418L137.006 149.834C134.051 153.42 130.299 156.043 126.115 157.604L125.086 150.797Z" fill="#00C1D7"/>
<path d="M99.2214 174.737C98.1589 174.737 103.073 174.803 88.7624 174.571C88.6296 174.571 88.5632 174.405 88.6296 174.305C88.6628 174.272 90.987 171.018 94.1413 160.825C97.2624 150.664 94.1745 145.584 94.1745 145.518C94.1413 145.452 94.1413 145.352 94.2409 145.285C94.3073 145.252 94.4069 145.252 94.4733 145.352C94.5065 145.418 97.6608 150.598 94.5065 160.924C91.8171 169.723 89.7253 173.309 89.1276 174.272L99.2546 174.405C99.3542 174.405 99.4206 174.471 99.4206 174.571C99.3874 174.637 99.321 174.737 99.2214 174.737Z" fill="#4B3BC5"/>
<path d="M126.348 161.953C126.248 161.953 126.182 161.887 126.182 161.787C125.983 154.815 124.688 149.237 123.625 145.784C122.463 142.032 121.334 139.907 121.334 139.907C121.301 139.84 121.334 139.741 121.401 139.674C121.467 139.641 121.567 139.674 121.633 139.741C121.666 139.84 126.182 148.34 126.547 161.754C126.514 161.821 126.481 161.953 126.348 161.953Z" fill="#4B3BC5"/>
<defs>
<filter id="filter0_f_242_16965" x="-19" y="-6.66992" width="298" height="298" filterUnits="userSpaceOnUse" color-interpolation-filters="sRGB">
<feFlood flood-opacity="0" result="BackgroundImageFix"/>
<feBlend mode="normal" in="SourceGraphic" in2="BackgroundImageFix" result="shape"/>
<feGaussianBlur stdDeviation="32" result="effect1_foregroundBlur_242_16965"/>
</filter>
</defs>
</svg>
