<svg width="288" height="269" viewBox="0 0 288 269" fill="none" xmlns="http://www.w3.org/2000/svg">
<g opacity="0.4" filter="url(#filter0_f_242_16597)">
<path d="M139.07 157.493C135.813 155.198 122.894 146.682 105.92 149.204C97.1214 150.512 90.6606 154.275 87.0234 156.83C97.923 156.51 107.338 163.013 111.29 172.55L139.07 157.493Z" fill="#00C1D7"/>
<path d="M107.53 172.537C106.673 171.815 101.032 167.218 93.5371 168.552C89.2871 169.307 86.4515 171.612 85.2071 172.773C88.1744 173.467 91.52 174.487 91.5081 175.691C91.4988 176.612 89.5327 177.371 88.2705 177.665C84.7481 178.485 82.7064 176.613 79.9932 176.418C77.7653 176.258 74.4971 177.183 70.1952 182.368C70.1952 182.368 75.6208 180.565 78.3068 182.522C78.3068 182.522 73.7635 180.856 70.8268 187.597C67.89 194.337 64.9082 194.142 64.9082 194.142C64.9082 194.142 74.1401 198.402 81.0319 196.845C87.9237 195.288 89.4911 191.33 89.4911 191.33C89.4911 191.33 91.0517 194.606 87.2377 197.584C87.2377 197.584 93.9799 198.714 96.575 194.025C99.17 189.335 101.955 197.821 109.264 190.215C108.685 184.32 108.107 178.428 107.53 172.537Z" fill="#FF9100"/>
<path d="M106.152 175.21C106.152 175.21 100.542 171.355 95.6401 174.158C95.6401 174.158 98.5547 175.483 98.3932 176.981C98.3603 177.232 98.2561 177.468 98.0932 177.661C96.2861 179.931 86.1422 177.297 83.0252 181.166C82.222 182.163 81.7205 183.801 81.9738 183.971C82.137 184.082 82.5501 183.546 83.2879 183.226C84.3334 182.773 85.4333 183.011 86.1779 183.269C86.1779 183.269 84.426 190.278 78.1182 189.928C78.1182 189.928 81.2725 192.03 86.1779 190.629C91.0832 189.227 93.5363 187.124 93.5363 187.124C93.5363 187.124 95.6392 191.329 92.8359 194.483C92.8359 194.483 96.6907 192.03 97.7413 188.176C98.7919 184.321 99.8442 191.329 103.698 190.981C107.552 190.632 108.254 188.176 108.254 188.176L106.152 175.21Z" fill="#F7E00B"/>
<path d="M212.383 76.8048L215.162 73.0487C215.162 73.0487 216.732 69.9037 217.443 69.7702C218.153 69.6368 217.111 71.9471 217.111 71.9471C217.111 71.9471 221.43 70.8956 221.927 71.1583C222.423 71.4209 219.072 72.6305 219.072 72.6305C219.072 72.6305 220.383 72.5506 219.486 73.4584C219.486 73.4584 220.591 73.5 219.741 74.3186C219.741 74.3186 220.346 74.4036 220.019 74.9986C219.692 75.5936 218.489 76.2081 217.445 76.5634L216.49 79.2435L212.383 76.8048Z" fill="#FF83DF"/>
<path d="M150.137 92.3913L147.903 92.5307C147.903 92.5307 145.478 93.4189 144.868 93.1257C144.258 92.8324 144.929 92.4244 145.88 92.1448C145.88 92.1448 144.492 92.3632 143.542 92.8078C142.592 93.2523 141.587 93.4189 141.466 93.0347C141.344 92.6505 142.704 92.1499 142.704 92.1499C142.704 92.1499 141.3 92.988 140.995 92.5868C140.69 92.1856 142.407 91.3475 142.407 91.3475C142.407 91.3475 141.021 92.1414 140.715 91.8014C140.409 91.4614 141.448 90.9811 142.233 90.5978C142.233 90.5978 140.933 91.0338 140.788 90.5978C140.643 90.1617 142.917 89.3151 144.487 89.027C146.057 88.7388 148.567 88.8094 150.454 88.3818C150.451 88.3784 151.725 90.4193 150.137 92.3913Z" fill="#FF83DF"/>
<path d="M142.233 90.7645C142.195 90.7646 142.158 90.7519 142.128 90.7284C142.098 90.7048 142.076 90.6718 142.067 90.6347C142.058 90.5976 142.062 90.5585 142.078 90.5237C142.094 90.489 142.121 90.4606 142.155 90.4432C142.189 90.4253 143.005 89.9986 143.69 89.736C143.711 89.7279 143.733 89.7241 143.756 89.7247C143.778 89.7252 143.8 89.7302 143.82 89.7393C143.841 89.7483 143.859 89.7614 143.875 89.7776C143.89 89.7938 143.902 89.8129 143.91 89.8337C143.918 89.8546 143.922 89.8769 143.922 89.8992C143.921 89.9216 143.916 89.9436 143.907 89.9641C143.898 89.9845 143.885 90.003 143.869 90.0184C143.852 90.0338 143.833 90.0458 143.812 90.0539C143.149 90.3089 142.321 90.7407 142.312 90.7449C142.288 90.7576 142.261 90.7643 142.233 90.7645Z" fill="#4B3BC5"/>
<path d="M141.868 91.7864C141.83 91.7874 141.792 91.7755 141.761 91.7525C141.731 91.7296 141.709 91.6971 141.699 91.6601C141.689 91.6232 141.692 91.584 141.707 91.549C141.723 91.5139 141.749 91.4849 141.783 91.4668C141.835 91.4387 143.058 90.7698 143.857 90.4374C143.878 90.4275 143.9 90.4219 143.923 90.421C143.946 90.4201 143.969 90.4239 143.991 90.4322C144.012 90.4404 144.032 90.453 144.048 90.4691C144.065 90.4852 144.078 90.5045 144.087 90.5258C144.096 90.5471 144.1 90.57 144.1 90.593C144.1 90.6161 144.095 90.6389 144.085 90.6599C144.076 90.681 144.062 90.7 144.045 90.7157C144.028 90.7313 144.009 90.7434 143.987 90.7511C143.202 91.0766 141.959 91.7583 141.947 91.7651C141.923 91.7786 141.895 91.7859 141.868 91.7864Z" fill="#4B3BC5"/>
<path d="M141.868 92.7159C141.831 92.7152 141.796 92.7026 141.767 92.6799C141.738 92.6572 141.717 92.6257 141.707 92.5901C141.697 92.5545 141.7 92.5168 141.713 92.4826C141.727 92.4484 141.752 92.4196 141.783 92.4005C141.832 92.3708 143 91.6704 144.228 91.3023C144.249 91.2953 144.272 91.2926 144.294 91.2945C144.317 91.2964 144.339 91.3028 144.359 91.3133C144.379 91.3238 144.397 91.3382 144.411 91.3557C144.426 91.3732 144.437 91.3934 144.443 91.4151C144.45 91.4368 144.452 91.4595 144.449 91.4821C144.447 91.5046 144.44 91.5264 144.429 91.5462C144.418 91.5661 144.403 91.5835 144.385 91.5975C144.368 91.6115 144.347 91.6218 144.325 91.6279C143.137 91.9798 141.968 92.6844 141.96 92.6912C141.932 92.708 141.9 92.7165 141.868 92.7159Z" fill="#4B3BC5"/>
<path d="M145.88 92.3196C145.835 92.3225 145.79 92.3074 145.756 92.2776C145.722 92.2478 145.702 92.2057 145.699 92.1606C145.696 92.1155 145.711 92.0711 145.741 92.0372C145.77 92.0032 145.812 91.9825 145.858 91.9796L146.904 91.8385C146.949 91.8324 146.995 91.8444 147.031 91.872C147.067 91.8996 147.091 91.9404 147.097 91.9855C147.103 92.0306 147.091 92.0763 147.063 92.1124C147.036 92.1486 146.995 92.1724 146.95 92.1785C145.833 92.3247 145.898 92.3196 145.88 92.3196Z" fill="#4B3BC5"/>
<path d="M184.254 75.8731C184.313 75.9819 184.8 76.8497 185.869 77.0384C186.953 77.2314 187.719 76.559 187.808 76.4783L187.893 71.816L185.729 71.4463L184.254 75.8731Z" fill="#FF83DF"/>
<path d="M185.6 72.2395L185.651 71.6572L187.882 72.038C187.868 72.786 187.855 73.5346 187.842 74.2837C187.475 74.3235 187.104 74.2608 186.771 74.1027C185.735 73.5978 185.606 72.3279 185.6 72.2395Z" fill="#FF59CF"/>
<path d="M187.292 72.1499C188.733 72.1499 189.901 70.982 189.901 69.5413C189.901 68.1005 188.733 66.9326 187.292 66.9326C185.852 66.9326 184.684 68.1005 184.684 69.5413C184.684 70.982 185.852 72.1499 187.292 72.1499Z" fill="#FF83DF"/>
<path d="M189.894 69.6837C189.854 70.1852 189.809 70.6187 189.776 70.9536C189.671 71.9251 189.614 72.1793 189.473 72.4598C189.383 72.6425 189.208 72.9944 188.871 73.235C188.071 73.8045 186.791 73.439 186.029 72.8899C185.205 72.2949 184.924 71.4381 184.824 71.0811C184.824 71.0811 184.771 70.8601 184.689 69.4023C187.813 69.5689 186.618 69.5043 189.894 69.6837Z" fill="#FF83DF"/>
<path d="M186.126 76.0564C190.227 76.45 192.914 77.742 194.638 78.8937C196.058 79.8423 196.094 80.2078 198.99 82.2988C200.489 83.3826 202.446 84.4604 204.103 85.341L213.555 75.1104L216.582 76.246C216.582 76.246 211.286 91.5681 206.934 92.5141C202.583 93.4601 192.365 87.596 192.365 87.596C188.107 85.1752 185.975 80.7654 186.126 76.0564Z" fill="#8F00CD"/>
<path d="M176.676 79.5456C176.676 79.5456 176.865 86.3549 167.974 99.5971C167.974 99.5971 183.486 104.894 192.188 100.921C192.188 100.921 196.728 88.4366 188.023 76.3292L184.617 75.0049L176.676 79.5456Z" fill="#FFF3FF"/>
<path d="M184.62 75.0041C178.509 74.2884 175.478 75.7309 173.834 77.2745C172.831 78.218 172.363 79.1853 170.619 80.8683C168.985 82.4412 167.14 83.7779 165.136 84.8395L148.488 88.6228L149.056 91.6497C153.147 92.9497 157.448 93.463 161.73 93.1627C164.96 92.9306 167.747 92.73 170.811 91.0819C173.22 89.7865 174.512 88.2888 180.269 81.6239C186.026 74.9591 185.564 78.9745 184.62 75.0041Z" fill="#8F00CD"/>
<path d="M193.759 134.208C192.534 136.972 191.123 139.649 189.535 142.221C196.573 142.401 203.593 143.019 210.555 144.071C210.13 142.343 209.365 141.416 208.818 140.91C206.341 138.631 202.953 140.047 200.423 137.717C199.462 136.831 199.021 135.768 198.808 135.126L193.759 134.208Z" fill="#8F00CD"/>
<path d="M138.04 144.023C134.501 147.352 131.954 151.597 130.682 156.287C136.663 153.24 142.872 150.663 149.253 148.578C147.931 148.314 146.698 147.714 145.674 146.835C144.65 145.957 143.87 144.83 143.407 143.563C141.607 143.525 139.808 143.679 138.04 144.023Z" fill="#8F00CD"/>
<path d="M133.141 150.281C133.141 150.281 131.628 153.913 133.579 153.913C135.529 153.913 137.243 150.439 140.488 149.113C143.734 147.787 149.253 148.578 149.253 148.578L129.949 158.183C129.949 158.183 130.256 153.334 133.141 150.281Z" fill="#4B3BC5"/>
<path d="M188.645 143.564L191.495 138.826C192.589 138.679 194.191 138.635 195.83 139.342C196.85 139.778 196.988 140.121 197.955 140.737C197.955 140.737 201.92 143.258 207.84 142.23C208.443 142.124 210.248 141.805 209.646 141.91C209.045 142.016 211.585 142.59 210.545 145.03L188.645 143.564Z" fill="#4B3BC5"/>
<path d="M107.167 171.726C140.742 144.101 183.416 136.252 223.095 146.452C217.421 154.612 208.645 164.897 195.624 173.652C161.579 196.552 124.294 191.672 113.485 189.86C111.38 183.814 109.274 177.77 107.167 171.726Z" fill="#23C1F2"/>
<path d="M223.095 146.452C215.012 144.374 200.536 141.43 182.611 142.348C182.986 149.901 184.792 164.522 192.776 175.492C204.209 168.346 214.572 158.705 223.095 146.452Z" fill="#7DF9F3"/>
<path d="M107.167 171.726C109.273 177.77 111.379 183.813 113.485 189.857C123.71 191.564 134.107 191.997 144.438 191.146C137.141 175.863 135.723 161.28 135.53 153.916C125.351 158.613 115.819 164.599 107.167 171.726Z" fill="#7DF9F3"/>
<path d="M109.405 169.949H103.165C101.703 179.763 105.11 189.159 111.785 195.81L116.244 190.162C111.713 184.409 109.298 177.272 109.405 169.949Z" fill="#23C1F2"/>
<path d="M112.46 183.27C107.715 192.128 100.386 199.106 91.2812 203.547C94.3311 204.127 109.995 206.789 124.247 196.679C133.582 190.055 137.592 181.301 139.081 177.448L112.46 183.27Z" fill="#00C1D7"/>
<path d="M170.668 95.3291C165.172 101.697 161.024 109.054 158.365 117.14C147.5 125.129 138.615 135.507 132.396 147.473L145.415 146.596C149.223 141.923 153.336 137.506 157.726 133.375C161.976 129.373 164.833 127.197 168.922 123.779C173.52 119.932 179.91 114.321 187.329 106.881C186.463 104.705 185.598 102.529 184.734 100.354L170.668 95.3291Z" fill="#4B3BC5"/>
<path d="M169.276 172.542C177.535 170.097 182.516 162.326 180.402 155.186C178.287 148.045 169.878 144.24 161.619 146.686C153.36 149.132 148.379 156.902 150.494 164.043C152.608 171.183 161.017 174.988 169.276 172.542Z" fill="#7DF9F3"/>
<path d="M154.188 162.906C153.488 160.543 153.921 157.965 155.408 155.643C157.812 151.89 162.317 149.758 166.669 149.758C171.519 149.758 175.55 152.361 176.699 156.234C178.207 161.324 174.385 166.961 168.179 168.8C161.754 170.704 155.637 167.8 154.188 162.906Z" fill="#4B3BC5"/>
<path d="M187.798 76.042C187.798 76.042 192.003 89.7083 188.849 103.375L200.764 103.725C200.764 103.725 202.165 98.8186 198.661 93.9132C195.156 89.0079 194.456 81.6486 194.456 81.6486C194.456 81.6486 193.054 77.4445 187.798 76.042Z" fill="#8F00CD"/>
<path d="M191.809 100.921C198.79 100.103 217.01 98.4199 219.428 104.705C220.257 106.861 218.942 109.21 216.735 112.891C212.867 119.343 207.49 127.837 200.415 137.717L190.005 136.095C193.023 127.989 197.062 120.301 202.024 113.216C186.86 116.644 182.791 113.778 180.647 111.892C175.919 107.727 178.947 100.353 178.947 100.353L191.809 100.921Z" fill="#4B3BC5"/>
<path d="M175.838 97.2227C175.838 97.2227 187.879 100.402 195.373 100.662L192.354 104.426C192.354 104.426 185.696 104.426 185.696 104.075C185.696 103.725 176.278 101.617 176.261 101.62C176.244 101.622 175.838 97.2227 175.838 97.2227Z" fill="#4B3BC5"/>
<path d="M184.645 74.9912C184.645 74.9912 185.346 98.4691 175.534 108.281C175.534 108.281 163.974 111.086 155.911 105.828C155.911 105.828 157.313 100.572 163.62 96.7172C169.927 92.8625 174.483 84.1024 174.483 84.1024L184.645 74.9912Z" fill="#8F00CD"/>
<path d="M188.806 76.2943C188.8 75.9977 188.708 75.7512 188.6 75.4571C188.52 75.239 188.421 75.0281 188.305 74.8264C188.128 74.1566 187.036 74.9114 186.509 75.3585C186.16 74.9382 185.784 74.5407 185.384 74.1685C185.149 73.9509 185.002 73.8285 184.888 73.7792C184.724 73.7027 184.587 73.7647 184.476 73.905C184.342 74.0109 184.232 74.1442 184.153 74.296C183.805 74.9216 183.323 74.8425 183.454 75.497C183.679 76.6241 183.759 77.707 184.344 77.8626C184.778 77.9773 185.279 77.5421 185.865 77.0398C186.08 76.8563 186.279 76.6553 186.46 76.4388C186.743 76.5754 186.99 76.7773 187.18 77.0279C187.585 77.5761 187.479 78.0895 187.9 78.3233C188.082 78.4253 188.358 78.4712 188.502 78.3496C188.692 78.189 188.473 77.883 188.554 77.2769C188.62 76.755 188.814 76.7389 188.806 76.2943Z" fill="#FFF3FF"/>
<path d="M186.456 76.4378C186.456 76.4378 185.117 77.4578 185.175 77.8123C185.234 78.1667 186.119 79.0686 186.119 79.0686C186.119 79.0686 184.065 80.9267 185.609 85.6901C187.153 90.4535 177.202 90.4501 175.842 91.0289C174.481 91.6078 173.853 95.0069 174.166 95.845C174.48 96.6831 178.732 97.2671 180.676 97.2229C182.62 97.1787 186.781 94.3006 188.195 91.0816C189.608 87.8627 187.491 86.1729 186.887 83.8634C186.284 81.554 186.562 79.3431 186.887 78.9113C187.213 78.4795 187.747 78.386 187.578 77.9126C187.41 77.4391 186.889 76.0851 186.456 76.4378Z" fill="#4B3BC5"/>
<path d="M182.922 89.1491C182.887 89.1491 182.853 89.1383 182.824 89.1182C182.796 89.0982 182.774 89.0698 182.762 89.0369L181.216 84.7164C181.206 84.6892 181.203 84.6599 181.208 84.6313C181.212 84.6028 181.224 84.5759 181.242 84.5532L182.571 82.8744H181.376C181.351 82.8746 181.327 82.8696 181.305 82.8597C181.283 82.8497 181.263 82.8351 181.247 82.8168C181.23 82.7985 181.218 82.7769 181.211 82.7536C181.204 82.7302 181.202 82.7056 181.206 82.6814L182.265 75.0867C182.268 75.0644 182.275 75.0429 182.287 75.0234C182.298 75.004 182.313 74.987 182.331 74.9733C182.349 74.9597 182.37 74.9498 182.391 74.9441C182.413 74.9384 182.436 74.937 182.458 74.9401C182.48 74.9431 182.502 74.9506 182.521 74.962C182.541 74.9733 182.558 74.9884 182.572 75.0064C182.585 75.0244 182.595 75.0448 182.601 75.0666C182.606 75.0884 182.608 75.1111 182.605 75.1335L181.57 82.5344H182.921C182.953 82.5344 182.984 82.5434 183.011 82.5603C183.038 82.5773 183.06 82.6015 183.074 82.6303C183.088 82.659 183.093 82.6911 183.09 82.7229C183.087 82.7546 183.074 82.7847 183.054 82.8098L181.57 84.69L183.082 88.9196C183.091 88.9454 183.094 88.9731 183.091 89.0004C183.088 89.0276 183.078 89.0537 183.062 89.0762C183.046 89.0988 183.025 89.1172 183.001 89.1299C182.976 89.1426 182.949 89.1492 182.922 89.1491Z" fill="#4B3BC5"/>
<path d="M190.41 89.4551C190.382 89.455 190.355 89.4482 190.331 89.4353C190.306 89.4224 190.286 89.4038 190.27 89.381C190.255 89.3583 190.245 89.3321 190.242 89.3047C190.238 89.2773 190.242 89.2496 190.252 89.2239L191.85 85.1167L190.773 83.4447C190.758 83.4231 190.749 83.3986 190.746 83.3729C190.742 83.3471 190.745 83.321 190.753 83.2964C190.761 83.2718 190.775 83.2493 190.793 83.2309C190.811 83.2124 190.833 83.1983 190.858 83.1897L191.495 82.9628L189.965 77.0663C189.954 77.0226 189.961 76.9761 189.984 76.9373C190.007 76.8984 190.044 76.8702 190.088 76.8589C190.131 76.8476 190.178 76.8542 190.217 76.8772C190.256 76.9001 190.284 76.9376 190.295 76.9813L191.865 83.0274C191.876 83.0686 191.871 83.1123 191.851 83.15C191.831 83.1876 191.797 83.2163 191.757 83.2305L191.174 83.4379L192.181 85.0019C192.196 85.0245 192.205 85.0502 192.207 85.077C192.21 85.1037 192.206 85.1307 192.197 85.1558L190.571 89.3454C190.559 89.3781 190.537 89.4061 190.508 89.4257C190.479 89.4453 190.445 89.4556 190.41 89.4551Z" fill="#4B3BC5"/>
<path d="M196.161 89.1402C196.128 89.1402 196.097 89.131 196.069 89.1137C196.042 89.0963 196.02 89.0716 196.007 89.0424C195.991 89.0084 194.441 85.6662 194.25 82.7796C194.066 80.0112 193.258 79.134 193.249 79.1246C193.218 79.0923 193.201 79.0488 193.201 79.0036C193.202 78.9585 193.22 78.9155 193.253 78.8841C193.285 78.8526 193.329 78.8353 193.374 78.836C193.419 78.8366 193.462 78.8551 193.493 78.8875C193.53 78.9249 194.396 79.8386 194.589 82.7558C194.777 85.5795 196.299 88.8639 196.314 88.8971C196.327 88.923 196.332 88.9517 196.331 88.9803C196.329 89.009 196.32 89.0368 196.305 89.0611C196.289 89.0854 196.268 89.1054 196.243 89.1192C196.218 89.133 196.189 89.1402 196.161 89.1402Z" fill="#4B3BC5"/>
<path d="M169.126 92.0327C169.09 92.0327 169.055 92.0213 169.026 92C168.997 91.9788 168.975 91.9488 168.964 91.9144C168.953 91.8801 168.953 91.8431 168.965 91.8089C168.976 91.7747 168.998 91.745 169.028 91.7241C169.046 91.7114 170.869 90.4092 172.853 88.0479C174.683 85.8736 177.03 82.3291 177.821 77.7918C177.825 77.7697 177.833 77.7486 177.845 77.7297C177.857 77.7108 177.872 77.6944 177.89 77.6815C177.909 77.6686 177.929 77.6594 177.951 77.6545C177.973 77.6496 177.996 77.6491 178.018 77.6529C178.04 77.6568 178.061 77.665 178.08 77.677C178.099 77.689 178.115 77.7047 178.128 77.723C178.141 77.7414 178.15 77.7621 178.154 77.7839C178.159 77.8058 178.16 77.8284 178.156 77.8504C177.352 82.4659 174.966 86.0674 173.106 88.2748C171.092 90.6667 169.239 91.9885 169.22 92.0012C169.193 92.0209 169.16 92.0318 169.126 92.0327Z" fill="#4B3BC5"/>
<path d="M185.376 70.1664C185.376 70.1664 186.032 70.2089 186.255 68.7699C186.477 67.3308 187.6 67.6572 187.882 68.9271C188.164 70.197 189.264 69.4023 189.264 69.4023C189.264 69.4023 190.573 70.4444 191.344 68.4953C192.116 66.5463 189.704 63.6792 187.292 64.5428C184.881 65.4064 186.527 65.6682 186.527 65.6682C186.165 65.6606 184.283 65.6512 183.544 66.8727C182.568 68.4817 184.152 71.2927 185.263 72.8278C185.983 72.0619 185.965 70.9892 185.376 70.1664Z" fill="#4B3BC5"/>
<path d="M185.477 71.5119C185.963 71.3477 186.184 70.7024 185.97 70.0707C185.757 69.439 185.19 69.06 184.704 69.2242C184.218 69.3884 183.997 70.0336 184.211 70.6653C184.424 71.297 184.991 71.676 185.477 71.5119Z" fill="#FF83DF"/>
<path d="M185.407 71.1286C185.101 71.1286 184.822 70.6917 184.926 70.4205C184.947 70.3618 184.986 70.3106 185.036 70.2733C185.086 70.2359 185.146 70.2141 185.208 70.2106C185.055 69.9088 184.994 69.9607 185.003 69.9556C184.975 69.97 184.945 70.0907 184.95 70.1995C184.952 70.2446 184.937 70.2889 184.907 70.3225C184.877 70.3561 184.834 70.3764 184.789 70.3789C184.744 70.3814 184.7 70.3658 184.666 70.3357C184.633 70.3056 184.612 70.2633 184.61 70.2182C184.593 69.9122 184.722 69.6003 185.029 69.6147C185.386 69.6326 185.593 70.2182 185.649 70.3976C185.658 70.4299 185.658 70.4644 185.649 70.4967C185.639 70.529 185.62 70.5576 185.593 70.579C185.567 70.6003 185.535 70.6134 185.502 70.6165C185.468 70.6196 185.434 70.6126 185.405 70.5965C185.355 70.5694 185.3 70.5527 185.243 70.5472C185.243 70.6322 185.354 70.7818 185.407 70.7877C185.407 70.7877 185.413 70.7792 185.424 70.7614C185.435 70.7411 185.45 70.7232 185.468 70.7088C185.486 70.6945 185.507 70.684 185.529 70.678C185.552 70.6719 185.575 70.6705 185.598 70.6738C185.621 70.677 185.643 70.6849 185.662 70.6969C185.682 70.7089 185.699 70.7249 185.712 70.7437C185.726 70.7625 185.735 70.7839 185.74 70.8064C185.745 70.829 185.745 70.8523 185.741 70.875C185.736 70.8976 185.727 70.9191 185.714 70.9382C185.684 70.9941 185.64 71.0411 185.586 71.0745C185.532 71.1079 185.471 71.1266 185.407 71.1286Z" fill="#4B3BC5"/>
<path d="M188.464 72.8287C188.653 72.8287 188.806 72.5227 188.806 72.1453C188.806 71.7679 188.653 71.4619 188.464 71.4619C188.274 71.4619 188.121 71.7679 188.121 72.1453C188.121 72.5227 188.274 72.8287 188.464 72.8287Z" fill="#4B3BC5"/>
<path d="M181.002 112.748C180.967 112.748 180.933 112.737 180.905 112.717C180.876 112.697 180.854 112.669 180.842 112.636C180.83 112.603 180.829 112.568 180.838 112.534C180.847 112.5 180.866 112.47 180.893 112.448C180.932 112.414 184.932 108.988 187.649 103.982C187.672 103.944 187.708 103.917 187.75 103.905C187.793 103.894 187.838 103.899 187.876 103.92C187.914 103.941 187.943 103.976 187.957 104.018C187.97 104.059 187.967 104.105 187.948 104.144C185.199 109.208 181.153 112.673 181.112 112.707C181.081 112.733 181.042 112.747 181.002 112.748Z" fill="#FFF3FF"/>
<path d="M202.024 113.387C201.992 113.387 201.96 113.377 201.932 113.36C201.905 113.342 201.883 113.317 201.87 113.287C201.856 113.257 201.852 113.224 201.856 113.192C201.861 113.159 201.875 113.129 201.897 113.105C202.063 112.917 205.986 108.479 209.05 106.912C209.07 106.901 209.092 106.894 209.115 106.892C209.138 106.889 209.16 106.891 209.182 106.898C209.204 106.905 209.224 106.916 209.241 106.93C209.259 106.945 209.273 106.963 209.284 106.983C209.294 107.003 209.3 107.026 209.302 107.048C209.303 107.071 209.3 107.094 209.293 107.115C209.286 107.137 209.274 107.157 209.259 107.174C209.244 107.191 209.226 107.204 209.205 107.214C206.199 108.752 202.192 113.284 202.15 113.329C202.134 113.347 202.115 113.361 202.093 113.371C202.072 113.381 202.048 113.387 202.024 113.387Z" fill="#FFF3FF"/>
<path d="M210.8 78.0926L213.967 74.5039L217.764 77.0735C217.764 77.0735 211.485 91.4385 207.375 92.3735C203.265 93.3085 207.61 85.8285 207.61 85.8285L210.8 78.0926Z" fill="#8F00CD"/>
<path d="M216.874 74.1618C216.84 74.1618 216.807 74.1517 216.779 74.1328C216.751 74.1138 216.729 74.0869 216.716 74.0555C216.704 74.0241 216.701 73.9895 216.708 73.9564C216.715 73.9232 216.732 73.8929 216.756 73.8694C217.446 73.2021 216.959 72.0257 216.954 72.0147C216.945 71.9942 216.941 71.9721 216.94 71.9497C216.94 71.9274 216.944 71.9052 216.952 71.8844C216.961 71.8637 216.973 71.8448 216.989 71.8288C217.004 71.8127 217.023 71.8 217.043 71.7911C217.064 71.7823 217.086 71.7776 217.108 71.7774C217.131 71.7771 217.153 71.7812 217.174 71.7895C217.194 71.7978 217.213 71.8101 217.229 71.8257C217.245 71.8413 217.258 71.8599 217.267 71.8804C217.291 71.9373 217.853 73.2829 216.992 74.1133C216.961 74.1442 216.918 74.1616 216.874 74.1618Z" fill="#4B3BC5"/>
<path d="M217.77 75.449C217.741 75.4081 217.722 75.3609 217.715 75.3112C217.707 75.2616 217.712 75.2109 217.728 75.1634C217.774 75.0232 217.931 74.8821 218.134 74.752C218.002 74.7514 217.873 74.7153 217.761 74.6475C217.709 74.6132 217.666 74.5667 217.637 74.5122C217.607 74.4577 217.591 74.3967 217.591 74.3347C217.591 74.1468 217.69 73.9785 217.905 73.8247C217.613 73.8247 217.204 73.7924 217.129 73.5085C217.118 73.4636 217.116 73.4169 217.124 73.3713C217.131 73.3257 217.148 73.2821 217.173 73.2433C217.428 72.8234 218.767 72.5191 219.032 72.4621C219.076 72.4536 219.121 72.4626 219.158 72.4871C219.195 72.5117 219.221 72.5498 219.231 72.5933C219.24 72.6368 219.232 72.6822 219.208 72.7198C219.184 72.7575 219.147 72.7842 219.104 72.7945C218.301 72.9645 217.534 73.2611 217.462 73.4209C217.596 73.5348 218.376 73.4949 219.218 73.3359C219.355 73.3062 219.445 73.29 219.454 73.2892C219.497 73.2839 219.54 73.2951 219.575 73.3205C219.609 73.3459 219.633 73.3836 219.641 73.4259C219.65 73.4683 219.641 73.5121 219.618 73.5486C219.595 73.5851 219.559 73.6114 219.517 73.6224C219.508 73.6224 219.414 73.6445 219.268 73.6717C218.58 73.8213 217.925 74.0967 217.931 74.3253C217.93 74.3335 217.931 74.3417 217.935 74.3491C217.938 74.3565 217.944 74.3627 217.951 74.367C218.129 74.4919 218.856 74.361 219.428 74.1681C219.471 74.1536 219.518 74.1568 219.558 74.1768C219.598 74.1968 219.629 74.232 219.644 74.2747C219.658 74.3174 219.655 74.3641 219.635 74.4046C219.615 74.445 219.58 74.4758 219.537 74.4902C218.803 74.7393 218.106 75.1014 218.05 75.2595C218.193 75.438 218.858 75.3343 219.29 75.1889C219.311 75.1818 219.333 75.1789 219.355 75.1803C219.378 75.1818 219.4 75.1877 219.42 75.1976C219.44 75.2075 219.457 75.2213 219.472 75.2381C219.487 75.2549 219.498 75.2744 219.505 75.2956C219.512 75.3167 219.515 75.3391 219.514 75.3614C219.512 75.3836 219.506 75.4054 219.496 75.4254C219.487 75.4454 219.473 75.4633 219.456 75.478C219.439 75.4927 219.42 75.5039 219.398 75.5111C218.928 75.6734 218.055 75.8579 217.77 75.449Z" fill="#4B3BC5"/>
<path d="M152.978 87.6055L147.524 88.7419L148.096 93.6991L159.664 93.2495L159.524 90.1045L152.978 87.6055Z" fill="#8F00CD"/>
<path d="M165.63 88.0582C165.59 88.0587 165.55 88.0446 165.519 88.0184C165.488 87.9921 165.467 87.9556 165.46 87.9154L164.967 84.869C164.962 84.826 164.975 84.783 165.001 84.7488C165.028 84.7146 165.066 84.6917 165.109 84.6848C165.151 84.6779 165.195 84.6875 165.231 84.7116C165.267 84.7357 165.292 84.7725 165.302 84.8146L165.796 87.861C165.8 87.8851 165.799 87.9098 165.792 87.9334C165.786 87.957 165.774 87.9789 165.759 87.9976C165.743 88.0163 165.723 88.0314 165.701 88.0419C165.679 88.0523 165.655 88.0579 165.63 88.0582Z" fill="#4B3BC5"/>
<path d="M204.994 90.4141C204.961 90.4142 204.929 90.405 204.902 90.3875C204.874 90.37 204.853 90.3451 204.839 90.3156C203.994 88.4872 203.935 85.4705 203.934 85.3439C203.933 85.3216 203.937 85.2994 203.945 85.2786C203.954 85.2578 203.966 85.2389 203.981 85.2228C203.997 85.2068 204.015 85.1939 204.036 85.185C204.056 85.1761 204.078 85.1713 204.101 85.1709C204.123 85.1705 204.145 85.1745 204.166 85.1827C204.187 85.1909 204.206 85.2031 204.222 85.2186C204.238 85.2341 204.251 85.2526 204.26 85.2731C204.268 85.2936 204.273 85.3156 204.274 85.3379C204.274 85.3685 204.333 88.4107 205.147 90.1727C205.159 90.1986 205.165 90.2271 205.163 90.2555C205.161 90.284 205.152 90.3115 205.137 90.3355C205.121 90.3596 205.1 90.3794 205.075 90.3931C205.05 90.4068 205.022 90.4141 204.994 90.4141Z" fill="#4B3BC5"/>
</g>
<path d="M139.07 157.493C135.813 155.198 122.894 146.682 105.92 149.204C97.1214 150.512 90.6606 154.275 87.0234 156.83C97.923 156.51 107.338 163.013 111.29 172.55L139.07 157.493Z" fill="#00C1D7"/>
<path d="M107.53 172.537C106.673 171.815 101.032 167.218 93.5371 168.552C89.2871 169.307 86.4515 171.612 85.2071 172.773C88.1744 173.467 91.52 174.487 91.5081 175.691C91.4988 176.612 89.5327 177.371 88.2705 177.665C84.7481 178.485 82.7064 176.613 79.9932 176.418C77.7653 176.258 74.4971 177.183 70.1952 182.368C70.1952 182.368 75.6208 180.565 78.3068 182.522C78.3068 182.522 73.7635 180.856 70.8268 187.597C67.89 194.337 64.9082 194.142 64.9082 194.142C64.9082 194.142 74.1401 198.402 81.0319 196.845C87.9237 195.288 89.4911 191.33 89.4911 191.33C89.4911 191.33 91.0517 194.606 87.2377 197.584C87.2377 197.584 93.9799 198.714 96.575 194.025C99.17 189.335 101.955 197.821 109.264 190.215C108.685 184.32 108.107 178.428 107.53 172.537Z" fill="#FF9100"/>
<path d="M106.152 175.21C106.152 175.21 100.542 171.355 95.6401 174.158C95.6401 174.158 98.5547 175.483 98.3932 176.981C98.3603 177.232 98.2561 177.468 98.0932 177.661C96.2861 179.931 86.1422 177.297 83.0252 181.166C82.222 182.163 81.7205 183.801 81.9738 183.971C82.137 184.082 82.5501 183.546 83.2879 183.226C84.3334 182.773 85.4333 183.011 86.1779 183.269C86.1779 183.269 84.426 190.278 78.1182 189.928C78.1182 189.928 81.2725 192.03 86.1779 190.629C91.0832 189.227 93.5363 187.124 93.5363 187.124C93.5363 187.124 95.6392 191.329 92.8359 194.483C92.8359 194.483 96.6907 192.03 97.7413 188.176C98.7919 184.321 99.8442 191.329 103.698 190.981C107.552 190.632 108.254 188.176 108.254 188.176L106.152 175.21Z" fill="#F7E00B"/>
<path d="M212.383 76.8048L215.162 73.0487C215.162 73.0487 216.732 69.9037 217.443 69.7702C218.153 69.6368 217.111 71.9471 217.111 71.9471C217.111 71.9471 221.43 70.8956 221.927 71.1583C222.423 71.4209 219.072 72.6305 219.072 72.6305C219.072 72.6305 220.383 72.5506 219.486 73.4584C219.486 73.4584 220.591 73.5 219.741 74.3186C219.741 74.3186 220.346 74.4036 220.019 74.9986C219.692 75.5936 218.489 76.2081 217.445 76.5634L216.49 79.2435L212.383 76.8048Z" fill="#FF9900"/>
<path d="M150.137 92.3913L147.903 92.5307C147.903 92.5307 145.478 93.4189 144.868 93.1257C144.258 92.8324 144.929 92.4244 145.88 92.1448C145.88 92.1448 144.492 92.3632 143.542 92.8078C142.592 93.2523 141.587 93.4189 141.466 93.0347C141.344 92.6505 142.704 92.1499 142.704 92.1499C142.704 92.1499 141.3 92.988 140.995 92.5868C140.69 92.1856 142.407 91.3475 142.407 91.3475C142.407 91.3475 141.021 92.1414 140.715 91.8014C140.409 91.4614 141.448 90.9811 142.233 90.5978C142.233 90.5978 140.933 91.0338 140.788 90.5978C140.643 90.1617 142.917 89.3151 144.487 89.027C146.057 88.7388 148.567 88.8094 150.454 88.3818C150.451 88.3784 151.725 90.4193 150.137 92.3913Z" fill="#FF9900"/>
<path d="M142.233 90.7645C142.195 90.7646 142.158 90.7519 142.128 90.7284C142.098 90.7048 142.076 90.6718 142.067 90.6347C142.058 90.5976 142.062 90.5585 142.078 90.5237C142.094 90.489 142.121 90.4606 142.155 90.4432C142.189 90.4253 143.005 89.9986 143.69 89.736C143.711 89.7279 143.733 89.7241 143.756 89.7247C143.778 89.7252 143.8 89.7302 143.82 89.7393C143.841 89.7483 143.859 89.7614 143.875 89.7776C143.89 89.7938 143.902 89.8129 143.91 89.8337C143.918 89.8546 143.922 89.8769 143.922 89.8992C143.921 89.9216 143.916 89.9436 143.907 89.9641C143.898 89.9845 143.885 90.003 143.869 90.0184C143.852 90.0338 143.833 90.0458 143.812 90.0539C143.149 90.3089 142.321 90.7407 142.312 90.7449C142.288 90.7576 142.261 90.7643 142.233 90.7645Z" fill="#4B3BC5"/>
<path d="M141.868 91.7864C141.83 91.7874 141.792 91.7755 141.761 91.7525C141.731 91.7296 141.709 91.6971 141.699 91.6601C141.689 91.6232 141.692 91.584 141.707 91.549C141.723 91.5139 141.749 91.4849 141.783 91.4668C141.835 91.4387 143.058 90.7698 143.857 90.4374C143.878 90.4275 143.9 90.4219 143.923 90.421C143.946 90.4201 143.969 90.4239 143.991 90.4322C144.012 90.4404 144.032 90.453 144.048 90.4691C144.065 90.4852 144.078 90.5045 144.087 90.5258C144.096 90.5471 144.1 90.57 144.1 90.593C144.1 90.6161 144.095 90.6389 144.085 90.6599C144.076 90.681 144.062 90.7 144.045 90.7157C144.028 90.7313 144.009 90.7434 143.987 90.7511C143.202 91.0766 141.959 91.7583 141.947 91.7651C141.923 91.7786 141.895 91.7859 141.868 91.7864Z" fill="#4B3BC5"/>
<path d="M141.868 92.7159C141.831 92.7152 141.796 92.7026 141.767 92.6799C141.738 92.6572 141.717 92.6257 141.707 92.5901C141.697 92.5545 141.7 92.5168 141.713 92.4826C141.727 92.4484 141.752 92.4196 141.783 92.4005C141.832 92.3708 143 91.6704 144.228 91.3023C144.249 91.2953 144.272 91.2926 144.294 91.2945C144.317 91.2964 144.339 91.3028 144.359 91.3133C144.379 91.3238 144.397 91.3382 144.411 91.3557C144.426 91.3732 144.437 91.3934 144.443 91.4151C144.45 91.4368 144.452 91.4595 144.449 91.4821C144.447 91.5046 144.44 91.5264 144.429 91.5462C144.418 91.5661 144.403 91.5835 144.385 91.5975C144.368 91.6115 144.347 91.6218 144.325 91.6279C143.137 91.9798 141.968 92.6844 141.96 92.6912C141.932 92.708 141.9 92.7165 141.868 92.7159Z" fill="#4B3BC5"/>
<path d="M145.88 92.3196C145.835 92.3225 145.79 92.3074 145.756 92.2776C145.722 92.2478 145.702 92.2057 145.699 92.1606C145.696 92.1155 145.711 92.0711 145.741 92.0372C145.77 92.0032 145.812 91.9825 145.858 91.9796L146.904 91.8385C146.949 91.8324 146.995 91.8444 147.031 91.872C147.067 91.8996 147.091 91.9404 147.097 91.9855C147.103 92.0306 147.091 92.0763 147.063 92.1124C147.036 92.1486 146.995 92.1724 146.95 92.1785C145.833 92.3247 145.898 92.3196 145.88 92.3196Z" fill="#4B3BC5"/>
<path d="M184.254 75.8731C184.313 75.9819 184.8 76.8497 185.869 77.0384C186.953 77.2314 187.719 76.559 187.808 76.4783L187.893 71.816L185.729 71.4463L184.254 75.8731Z" fill="#FF9900"/>
<path d="M185.6 72.2395L185.651 71.6572L187.882 72.038C187.868 72.786 187.855 73.5346 187.842 74.2837C187.475 74.3235 187.104 74.2608 186.771 74.1027C185.735 73.5978 185.606 72.3279 185.6 72.2395Z" fill="#FF59CF"/>
<path d="M187.292 72.1499C188.733 72.1499 189.901 70.982 189.901 69.5413C189.901 68.1005 188.733 66.9326 187.292 66.9326C185.852 66.9326 184.684 68.1005 184.684 69.5413C184.684 70.982 185.852 72.1499 187.292 72.1499Z" fill="#FF9900"/>
<path d="M189.894 69.6837C189.854 70.1852 189.809 70.6187 189.776 70.9536C189.671 71.9251 189.614 72.1793 189.473 72.4598C189.383 72.6425 189.208 72.9944 188.871 73.235C188.071 73.8045 186.791 73.439 186.029 72.8899C185.205 72.2949 184.924 71.4381 184.824 71.0811C184.824 71.0811 184.771 70.8601 184.689 69.4023C187.813 69.5689 186.618 69.5043 189.894 69.6837Z" fill="#FF9900"/>
<path d="M186.126 76.0564C190.227 76.45 192.914 77.742 194.638 78.8937C196.058 79.8423 196.094 80.2078 198.99 82.2988C200.489 83.3826 202.446 84.4604 204.103 85.341L213.555 75.1104L216.582 76.246C216.582 76.246 211.286 91.5681 206.934 92.5141C202.583 93.4601 192.365 87.596 192.365 87.596C188.107 85.1752 185.975 80.7654 186.126 76.0564Z" fill="#7B5DD6"/>
<path d="M176.676 79.5456C176.676 79.5456 176.865 86.3549 167.974 99.5971C167.974 99.5971 183.486 104.894 192.188 100.921C192.188 100.921 196.728 88.4366 188.023 76.3292L184.617 75.0049L176.676 79.5456Z" fill="#FFF3FF"/>
<path d="M184.62 75.0041C178.509 74.2884 175.478 75.7309 173.834 77.2745C172.831 78.218 172.363 79.1853 170.619 80.8683C168.985 82.4412 167.14 83.7779 165.136 84.8395L148.488 88.6228L149.056 91.6497C153.147 92.9497 157.448 93.463 161.73 93.1627C164.96 92.9306 167.747 92.73 170.811 91.0819C173.22 89.7865 174.512 88.2888 180.269 81.6239C186.026 74.9591 185.564 78.9745 184.62 75.0041Z" fill="#7B5DD6"/>
<path d="M193.759 134.208C192.534 136.972 191.123 139.649 189.535 142.221C196.573 142.401 203.593 143.019 210.555 144.071C210.13 142.343 209.365 141.416 208.818 140.91C206.341 138.631 202.953 140.047 200.423 137.717C199.462 136.831 199.021 135.768 198.808 135.126L193.759 134.208Z" fill="#7B5DD6"/>
<path d="M138.04 144.023C134.501 147.352 131.954 151.597 130.682 156.287C136.663 153.24 142.872 150.663 149.253 148.578C147.931 148.314 146.698 147.714 145.674 146.835C144.65 145.957 143.87 144.83 143.407 143.563C141.607 143.525 139.808 143.679 138.04 144.023Z" fill="#7B5DD6"/>
<path d="M133.141 150.281C133.141 150.281 131.628 153.913 133.579 153.913C135.529 153.913 137.243 150.439 140.488 149.113C143.734 147.787 149.253 148.578 149.253 148.578L129.949 158.183C129.949 158.183 130.256 153.334 133.141 150.281Z" fill="#4B3BC5"/>
<path d="M188.645 143.564L191.495 138.826C192.589 138.679 194.191 138.635 195.83 139.342C196.85 139.778 196.988 140.121 197.955 140.737C197.955 140.737 201.92 143.258 207.84 142.23C208.443 142.124 210.248 141.805 209.646 141.91C209.045 142.016 211.585 142.59 210.545 145.03L188.645 143.564Z" fill="#4B3BC5"/>
<path d="M107.167 171.726C140.742 144.101 183.416 136.252 223.095 146.452C217.421 154.612 208.645 164.897 195.624 173.652C161.579 196.552 124.294 191.672 113.485 189.86C111.38 183.814 109.274 177.77 107.167 171.726Z" fill="#23C1F2"/>
<path d="M223.095 146.452C215.012 144.374 200.536 141.43 182.611 142.348C182.986 149.901 184.792 164.522 192.776 175.492C204.209 168.346 214.572 158.705 223.095 146.452Z" fill="#7DF9F3"/>
<path d="M107.167 171.726C109.273 177.77 111.379 183.813 113.485 189.857C123.71 191.564 134.107 191.997 144.438 191.146C137.141 175.863 135.723 161.28 135.53 153.916C125.351 158.613 115.819 164.599 107.167 171.726Z" fill="#7DF9F3"/>
<path d="M109.405 169.949H103.165C101.703 179.763 105.11 189.159 111.785 195.81L116.244 190.162C111.713 184.409 109.298 177.272 109.405 169.949Z" fill="#23C1F2"/>
<path d="M112.46 183.27C107.715 192.128 100.386 199.106 91.2812 203.547C94.3311 204.127 109.995 206.789 124.247 196.679C133.582 190.055 137.592 181.301 139.081 177.448L112.46 183.27Z" fill="#00C1D7"/>
<path d="M170.668 95.3291C165.172 101.697 161.024 109.054 158.365 117.14C147.5 125.129 138.615 135.507 132.396 147.473L145.415 146.596C149.223 141.923 153.336 137.506 157.726 133.375C161.976 129.373 164.833 127.197 168.922 123.779C173.52 119.932 179.91 114.321 187.329 106.881C186.463 104.705 185.598 102.529 184.734 100.354L170.668 95.3291Z" fill="#4B3BC5"/>
<path d="M169.276 172.542C177.535 170.097 182.516 162.326 180.402 155.186C178.287 148.045 169.878 144.24 161.619 146.686C153.36 149.132 148.379 156.902 150.494 164.043C152.608 171.183 161.017 174.988 169.276 172.542Z" fill="#7DF9F3"/>
<path d="M154.188 162.906C153.488 160.543 153.921 157.965 155.408 155.643C157.812 151.89 162.317 149.758 166.669 149.758C171.519 149.758 175.55 152.361 176.699 156.234C178.207 161.324 174.385 166.961 168.179 168.8C161.754 170.704 155.637 167.8 154.188 162.906Z" fill="#4B3BC5"/>
<path d="M187.798 76.042C187.798 76.042 192.003 89.7083 188.849 103.375L200.764 103.725C200.764 103.725 202.165 98.8186 198.661 93.9132C195.156 89.0079 194.456 81.6486 194.456 81.6486C194.456 81.6486 193.054 77.4445 187.798 76.042Z" fill="#7B5DD6"/>
<path d="M191.809 100.921C198.79 100.103 217.01 98.4199 219.428 104.705C220.257 106.861 218.942 109.21 216.735 112.891C212.867 119.343 207.49 127.837 200.415 137.717L190.005 136.095C193.023 127.989 197.062 120.301 202.024 113.216C186.86 116.644 182.791 113.778 180.647 111.892C175.919 107.727 178.947 100.353 178.947 100.353L191.809 100.921Z" fill="#4B3BC5"/>
<path d="M175.838 97.2227C175.838 97.2227 187.879 100.402 195.373 100.662L192.354 104.426C192.354 104.426 185.696 104.426 185.696 104.075C185.696 103.725 176.278 101.617 176.261 101.62C176.244 101.622 175.838 97.2227 175.838 97.2227Z" fill="#4B3BC5"/>
<path d="M184.645 74.9912C184.645 74.9912 185.346 98.4691 175.534 108.281C175.534 108.281 163.974 111.086 155.911 105.828C155.911 105.828 157.313 100.572 163.62 96.7172C169.927 92.8625 174.483 84.1024 174.483 84.1024L184.645 74.9912Z" fill="#7B5DD6"/>
<path d="M188.806 76.2943C188.8 75.9977 188.708 75.7512 188.6 75.4571C188.52 75.239 188.421 75.0281 188.305 74.8264C188.128 74.1566 187.036 74.9114 186.509 75.3585C186.16 74.9382 185.784 74.5407 185.384 74.1685C185.149 73.9509 185.002 73.8285 184.888 73.7792C184.724 73.7027 184.587 73.7647 184.476 73.905C184.342 74.0109 184.232 74.1442 184.153 74.296C183.805 74.9216 183.323 74.8425 183.454 75.497C183.679 76.6241 183.759 77.707 184.344 77.8626C184.778 77.9773 185.279 77.5421 185.865 77.0398C186.08 76.8563 186.279 76.6553 186.46 76.4388C186.743 76.5754 186.99 76.7773 187.18 77.0279C187.585 77.5761 187.479 78.0895 187.9 78.3233C188.082 78.4253 188.358 78.4712 188.502 78.3496C188.692 78.189 188.473 77.883 188.554 77.2769C188.62 76.755 188.814 76.7389 188.806 76.2943Z" fill="#FFF3FF"/>
<path d="M186.456 76.4378C186.456 76.4378 185.117 77.4578 185.175 77.8123C185.234 78.1667 186.119 79.0686 186.119 79.0686C186.119 79.0686 184.065 80.9267 185.609 85.6901C187.153 90.4535 177.202 90.4501 175.842 91.0289C174.481 91.6078 173.853 95.0069 174.166 95.845C174.48 96.6831 178.732 97.2671 180.676 97.2229C182.62 97.1787 186.781 94.3006 188.195 91.0816C189.608 87.8627 187.491 86.1729 186.887 83.8634C186.284 81.554 186.562 79.3431 186.887 78.9113C187.213 78.4795 187.747 78.386 187.578 77.9126C187.41 77.4391 186.889 76.0851 186.456 76.4378Z" fill="#4B3BC5"/>
<path d="M182.922 89.1491C182.887 89.1491 182.853 89.1383 182.824 89.1182C182.796 89.0982 182.774 89.0698 182.762 89.0369L181.216 84.7164C181.206 84.6892 181.203 84.6599 181.208 84.6313C181.212 84.6028 181.224 84.5759 181.242 84.5532L182.571 82.8744H181.376C181.351 82.8746 181.327 82.8696 181.305 82.8597C181.283 82.8497 181.263 82.8351 181.247 82.8168C181.23 82.7985 181.218 82.7769 181.211 82.7536C181.204 82.7302 181.202 82.7056 181.206 82.6814L182.265 75.0867C182.268 75.0644 182.275 75.0429 182.287 75.0234C182.298 75.004 182.313 74.987 182.331 74.9733C182.349 74.9597 182.37 74.9498 182.391 74.9441C182.413 74.9384 182.436 74.937 182.458 74.9401C182.48 74.9431 182.502 74.9506 182.521 74.962C182.541 74.9733 182.558 74.9884 182.572 75.0064C182.585 75.0244 182.595 75.0448 182.601 75.0666C182.606 75.0884 182.608 75.1111 182.605 75.1335L181.57 82.5344H182.921C182.953 82.5344 182.984 82.5434 183.011 82.5603C183.038 82.5773 183.06 82.6015 183.074 82.6303C183.088 82.659 183.093 82.6911 183.09 82.7229C183.087 82.7546 183.074 82.7847 183.054 82.8098L181.57 84.69L183.082 88.9196C183.091 88.9454 183.094 88.9731 183.091 89.0004C183.088 89.0276 183.078 89.0537 183.062 89.0762C183.046 89.0988 183.025 89.1172 183.001 89.1299C182.976 89.1426 182.949 89.1492 182.922 89.1491Z" fill="#4B3BC5"/>
<path d="M190.41 89.4551C190.382 89.455 190.355 89.4482 190.331 89.4353C190.306 89.4224 190.286 89.4038 190.27 89.381C190.255 89.3583 190.245 89.3321 190.242 89.3047C190.238 89.2773 190.242 89.2496 190.252 89.2239L191.85 85.1167L190.773 83.4447C190.758 83.4231 190.749 83.3986 190.746 83.3729C190.742 83.3471 190.745 83.321 190.753 83.2964C190.761 83.2718 190.775 83.2493 190.793 83.2309C190.811 83.2124 190.833 83.1983 190.858 83.1897L191.495 82.9628L189.965 77.0663C189.954 77.0226 189.961 76.9761 189.984 76.9373C190.007 76.8984 190.044 76.8702 190.088 76.8589C190.131 76.8476 190.178 76.8542 190.217 76.8772C190.256 76.9001 190.284 76.9376 190.295 76.9813L191.865 83.0274C191.876 83.0686 191.871 83.1123 191.851 83.15C191.831 83.1876 191.797 83.2163 191.757 83.2305L191.174 83.4379L192.181 85.0019C192.196 85.0245 192.205 85.0502 192.207 85.077C192.21 85.1037 192.206 85.1307 192.197 85.1558L190.571 89.3454C190.559 89.3781 190.537 89.4061 190.508 89.4257C190.479 89.4453 190.445 89.4556 190.41 89.4551Z" fill="#4B3BC5"/>
<path d="M196.161 89.1402C196.128 89.1402 196.097 89.131 196.069 89.1137C196.042 89.0963 196.02 89.0716 196.007 89.0424C195.991 89.0084 194.441 85.6662 194.25 82.7796C194.066 80.0112 193.258 79.134 193.249 79.1246C193.218 79.0923 193.201 79.0488 193.201 79.0036C193.202 78.9585 193.22 78.9155 193.253 78.8841C193.285 78.8526 193.329 78.8353 193.374 78.836C193.419 78.8366 193.462 78.8551 193.493 78.8875C193.53 78.9249 194.396 79.8386 194.589 82.7558C194.777 85.5795 196.299 88.8639 196.314 88.8971C196.327 88.923 196.332 88.9517 196.331 88.9803C196.329 89.009 196.32 89.0368 196.305 89.0611C196.289 89.0854 196.268 89.1054 196.243 89.1192C196.218 89.133 196.189 89.1402 196.161 89.1402Z" fill="#4B3BC5"/>
<path d="M169.126 92.0327C169.09 92.0327 169.055 92.0213 169.026 92C168.997 91.9788 168.975 91.9488 168.964 91.9144C168.953 91.8801 168.953 91.8431 168.965 91.8089C168.976 91.7747 168.998 91.745 169.028 91.7241C169.046 91.7114 170.869 90.4092 172.853 88.0479C174.683 85.8736 177.03 82.3291 177.821 77.7918C177.825 77.7697 177.833 77.7486 177.845 77.7297C177.857 77.7108 177.872 77.6944 177.89 77.6815C177.909 77.6686 177.929 77.6594 177.951 77.6545C177.973 77.6496 177.996 77.6491 178.018 77.6529C178.04 77.6568 178.061 77.665 178.08 77.677C178.099 77.689 178.115 77.7047 178.128 77.723C178.141 77.7414 178.15 77.7621 178.154 77.7839C178.159 77.8058 178.16 77.8284 178.156 77.8504C177.352 82.4659 174.966 86.0674 173.106 88.2748C171.092 90.6667 169.239 91.9885 169.22 92.0012C169.193 92.0209 169.16 92.0318 169.126 92.0327Z" fill="#4B3BC5"/>
<path d="M185.376 70.1664C185.376 70.1664 186.032 70.2089 186.255 68.7699C186.477 67.3308 187.6 67.6572 187.882 68.9271C188.164 70.197 189.264 69.4023 189.264 69.4023C189.264 69.4023 190.573 70.4444 191.344 68.4953C192.116 66.5463 189.704 63.6792 187.292 64.5428C184.881 65.4064 186.527 65.6682 186.527 65.6682C186.165 65.6606 184.283 65.6512 183.544 66.8727C182.568 68.4817 184.152 71.2927 185.263 72.8278C185.983 72.0619 185.965 70.9892 185.376 70.1664Z" fill="#4B3BC5"/>
<path d="M185.477 71.5119C185.963 71.3477 186.184 70.7024 185.97 70.0707C185.757 69.439 185.19 69.06 184.704 69.2242C184.218 69.3884 183.997 70.0336 184.211 70.6653C184.424 71.297 184.991 71.676 185.477 71.5119Z" fill="#FF9900"/>
<path d="M185.407 71.1286C185.101 71.1286 184.822 70.6917 184.926 70.4205C184.947 70.3618 184.986 70.3106 185.036 70.2733C185.086 70.2359 185.146 70.2141 185.208 70.2106C185.055 69.9088 184.994 69.9607 185.003 69.9556C184.975 69.97 184.945 70.0907 184.95 70.1995C184.952 70.2446 184.937 70.2889 184.907 70.3225C184.877 70.3561 184.834 70.3764 184.789 70.3789C184.744 70.3814 184.7 70.3658 184.666 70.3357C184.633 70.3056 184.612 70.2633 184.61 70.2182C184.593 69.9122 184.722 69.6003 185.029 69.6147C185.386 69.6326 185.593 70.2182 185.649 70.3976C185.658 70.4299 185.658 70.4644 185.649 70.4967C185.639 70.529 185.62 70.5576 185.593 70.579C185.567 70.6003 185.535 70.6134 185.502 70.6165C185.468 70.6196 185.434 70.6126 185.405 70.5965C185.355 70.5694 185.3 70.5527 185.243 70.5472C185.243 70.6322 185.354 70.7818 185.407 70.7877C185.407 70.7877 185.413 70.7792 185.424 70.7614C185.435 70.7411 185.45 70.7232 185.468 70.7088C185.486 70.6945 185.507 70.684 185.529 70.678C185.552 70.6719 185.575 70.6705 185.598 70.6738C185.621 70.677 185.643 70.6849 185.662 70.6969C185.682 70.7089 185.699 70.7249 185.712 70.7437C185.726 70.7625 185.735 70.7839 185.74 70.8064C185.745 70.829 185.745 70.8523 185.741 70.875C185.736 70.8976 185.727 70.9191 185.714 70.9382C185.684 70.9941 185.64 71.0411 185.586 71.0745C185.532 71.1079 185.471 71.1266 185.407 71.1286Z" fill="#4B3BC5"/>
<path d="M188.464 72.8287C188.653 72.8287 188.806 72.5227 188.806 72.1453C188.806 71.7679 188.653 71.4619 188.464 71.4619C188.274 71.4619 188.121 71.7679 188.121 72.1453C188.121 72.5227 188.274 72.8287 188.464 72.8287Z" fill="#4B3BC5"/>
<path d="M181.002 112.748C180.967 112.748 180.933 112.737 180.905 112.717C180.876 112.697 180.854 112.669 180.842 112.636C180.83 112.603 180.829 112.568 180.838 112.534C180.847 112.5 180.866 112.47 180.893 112.448C180.932 112.414 184.932 108.988 187.649 103.982C187.672 103.944 187.708 103.917 187.75 103.905C187.793 103.894 187.838 103.899 187.876 103.92C187.914 103.941 187.943 103.976 187.957 104.018C187.97 104.059 187.967 104.105 187.948 104.144C185.199 109.208 181.153 112.673 181.112 112.707C181.081 112.733 181.042 112.747 181.002 112.748Z" fill="#FFF3FF"/>
<path d="M202.024 113.387C201.992 113.387 201.96 113.377 201.932 113.36C201.905 113.342 201.883 113.317 201.87 113.287C201.856 113.257 201.852 113.224 201.856 113.192C201.861 113.159 201.875 113.129 201.897 113.105C202.063 112.917 205.986 108.479 209.05 106.912C209.07 106.901 209.092 106.894 209.115 106.892C209.138 106.889 209.16 106.891 209.182 106.898C209.204 106.905 209.224 106.916 209.241 106.93C209.259 106.945 209.273 106.963 209.284 106.983C209.294 107.003 209.3 107.026 209.302 107.048C209.303 107.071 209.3 107.094 209.293 107.115C209.286 107.137 209.274 107.157 209.259 107.174C209.244 107.191 209.226 107.204 209.205 107.214C206.199 108.752 202.192 113.284 202.15 113.329C202.134 113.347 202.115 113.361 202.093 113.371C202.072 113.381 202.048 113.387 202.024 113.387Z" fill="#FFF3FF"/>
<path d="M210.8 78.0926L213.967 74.5039L217.764 77.0735C217.764 77.0735 211.485 91.4385 207.375 92.3735C203.265 93.3085 207.61 85.8285 207.61 85.8285L210.8 78.0926Z" fill="#7B5DD6"/>
<path d="M216.874 74.1618C216.84 74.1618 216.807 74.1517 216.779 74.1328C216.751 74.1138 216.729 74.0869 216.716 74.0555C216.704 74.0241 216.701 73.9895 216.708 73.9564C216.715 73.9232 216.732 73.8929 216.756 73.8694C217.446 73.2021 216.959 72.0257 216.954 72.0147C216.945 71.9942 216.941 71.9721 216.94 71.9497C216.94 71.9274 216.944 71.9052 216.952 71.8844C216.961 71.8637 216.973 71.8448 216.989 71.8288C217.004 71.8127 217.023 71.8 217.043 71.7911C217.064 71.7823 217.086 71.7776 217.108 71.7774C217.131 71.7771 217.153 71.7812 217.174 71.7895C217.194 71.7978 217.213 71.8101 217.229 71.8257C217.245 71.8413 217.258 71.8599 217.267 71.8804C217.291 71.9373 217.853 73.2829 216.992 74.1133C216.961 74.1442 216.918 74.1616 216.874 74.1618Z" fill="#4B3BC5"/>
<path d="M217.77 75.449C217.741 75.4081 217.722 75.3609 217.715 75.3112C217.707 75.2616 217.712 75.2109 217.728 75.1634C217.774 75.0232 217.931 74.8821 218.134 74.752C218.002 74.7514 217.873 74.7153 217.761 74.6475C217.709 74.6132 217.666 74.5667 217.637 74.5122C217.607 74.4577 217.591 74.3967 217.591 74.3347C217.591 74.1468 217.69 73.9785 217.905 73.8247C217.613 73.8247 217.204 73.7924 217.129 73.5085C217.118 73.4636 217.116 73.4169 217.124 73.3713C217.131 73.3257 217.148 73.2821 217.173 73.2433C217.428 72.8234 218.767 72.5191 219.032 72.4621C219.076 72.4536 219.121 72.4626 219.158 72.4871C219.195 72.5117 219.221 72.5498 219.231 72.5933C219.24 72.6368 219.232 72.6822 219.208 72.7198C219.184 72.7575 219.147 72.7842 219.104 72.7945C218.301 72.9645 217.534 73.2611 217.462 73.4209C217.596 73.5348 218.376 73.4949 219.218 73.3359C219.355 73.3062 219.445 73.29 219.454 73.2892C219.497 73.2839 219.54 73.2951 219.575 73.3205C219.609 73.3459 219.633 73.3836 219.641 73.4259C219.65 73.4683 219.641 73.5121 219.618 73.5486C219.595 73.5851 219.559 73.6114 219.517 73.6224C219.508 73.6224 219.414 73.6445 219.268 73.6717C218.58 73.8213 217.925 74.0967 217.931 74.3253C217.93 74.3335 217.931 74.3417 217.935 74.3491C217.938 74.3565 217.944 74.3627 217.951 74.367C218.129 74.4919 218.856 74.361 219.428 74.1681C219.471 74.1536 219.518 74.1568 219.558 74.1768C219.598 74.1968 219.629 74.232 219.644 74.2747C219.658 74.3174 219.655 74.3641 219.635 74.4046C219.615 74.445 219.58 74.4758 219.537 74.4902C218.803 74.7393 218.106 75.1014 218.05 75.2595C218.193 75.438 218.858 75.3343 219.29 75.1889C219.311 75.1818 219.333 75.1789 219.355 75.1803C219.378 75.1818 219.4 75.1877 219.42 75.1976C219.44 75.2075 219.457 75.2213 219.472 75.2381C219.487 75.2549 219.498 75.2744 219.505 75.2956C219.512 75.3167 219.515 75.3391 219.514 75.3614C219.512 75.3836 219.506 75.4054 219.496 75.4254C219.487 75.4454 219.473 75.4633 219.456 75.478C219.439 75.4927 219.42 75.5039 219.398 75.5111C218.928 75.6734 218.055 75.8579 217.77 75.449Z" fill="#4B3BC5"/>
<path d="M152.978 87.6055L147.524 88.7419L148.096 93.6991L159.664 93.2495L159.524 90.1045L152.978 87.6055Z" fill="#7B5DD6"/>
<path d="M165.63 88.0582C165.59 88.0587 165.55 88.0446 165.519 88.0184C165.488 87.9921 165.467 87.9556 165.46 87.9154L164.967 84.869C164.962 84.826 164.975 84.783 165.001 84.7488C165.028 84.7146 165.066 84.6917 165.109 84.6848C165.151 84.6779 165.195 84.6875 165.231 84.7116C165.267 84.7357 165.292 84.7725 165.302 84.8146L165.796 87.861C165.8 87.8851 165.799 87.9098 165.792 87.9334C165.786 87.957 165.774 87.9789 165.759 87.9976C165.743 88.0163 165.723 88.0314 165.701 88.0419C165.679 88.0523 165.655 88.0579 165.63 88.0582Z" fill="#4B3BC5"/>
<path d="M204.994 90.4141C204.961 90.4142 204.929 90.405 204.902 90.3875C204.874 90.37 204.853 90.3451 204.839 90.3156C203.994 88.4872 203.935 85.4705 203.934 85.3439C203.933 85.3216 203.937 85.2994 203.945 85.2786C203.954 85.2578 203.966 85.2389 203.981 85.2228C203.997 85.2068 204.015 85.1939 204.036 85.185C204.056 85.1761 204.078 85.1713 204.101 85.1709C204.123 85.1705 204.145 85.1745 204.166 85.1827C204.187 85.1909 204.206 85.2031 204.222 85.2186C204.238 85.2341 204.251 85.2526 204.26 85.2731C204.268 85.2936 204.273 85.3156 204.274 85.3379C204.274 85.3685 204.333 88.4107 205.147 90.1727C205.159 90.1986 205.165 90.2271 205.163 90.2555C205.161 90.284 205.152 90.3115 205.137 90.3355C205.121 90.3596 205.1 90.3794 205.075 90.3931C205.05 90.4068 205.022 90.4141 204.994 90.4141Z" fill="#4B3BC5"/>
<defs>
<filter id="filter0_f_242_16597" x="-5" y="-13.6699" width="298" height="298" filterUnits="userSpaceOnUse" color-interpolation-filters="sRGB">
<feFlood flood-opacity="0" result="BackgroundImageFix"/>
<feBlend mode="normal" in="SourceGraphic" in2="BackgroundImageFix" result="shape"/>
<feGaussianBlur stdDeviation="32" result="effect1_foregroundBlur_242_16597"/>
</filter>
</defs>
</svg>
