<svg width="500" height="500" viewBox="0 0 500 500" fill="none" xmlns="http://www.w3.org/2000/svg">
<rect width="500" height="500" rx="100" fill="black"/>
<path d="M220 354C220 395.421 186.421 429 145 429C103.579 429 70 395.421 70 354C70 312.579 103.579 279 145 279C186.421 279 220 312.579 220 354Z" fill="black" stroke="white" stroke-width="20"/>
<path d="M440 145C440 191.944 401.944 230 355 230C308.056 230 270 191.944 270 145C270 98.0558 308.056 60 355 60C401.944 60 440 98.0558 440 145Z" fill="white"/>
<path d="M440 145C440 191.944 401.944 230 355 230C308.056 230 270 191.944 270 145C270 98.0558 308.056 60 355 60C401.944 60 440 98.0558 440 145Z" stroke="black"/>
<path d="M197 301L311 192" stroke="white" stroke-width="14"/>
</svg>
