<svg width="248" height="92" viewBox="0 0 248 92" fill="none" xmlns="http://www.w3.org/2000/svg">
<g clip-path="url(#clip0_191_48724)">
<path d="M237.094 92H10.9063C4.88572 91.9942 0.00676234 87.8242 0 82.6784V9.32158C0.00684386 4.17584 4.88576 0.00584942 10.9063 0H237.094C243.114 0.00584942 247.993 4.17584 248 9.32158V82.6784C247.993 87.8242 243.114 91.9942 237.094 92Z" fill="#F9F9F9"/>
<path d="M131.337 59.3825C151.317 58.3691 169.622 57.9099 172.573 59.5645C174.093 60.4192 176.458 71.6529 177.545 79.166C183.682 78.4334 191.394 77.7594 199.099 77.2343C197.955 71.4539 197.249 67.8322 194.653 62.2471C194.26 61.4009 195.337 61.059 195.775 61.832C198.376 66.5938 200.123 71.7745 200.937 77.1391C211.368 76.4541 221.66 76.0401 228.111 76.0401C227.379 69.7273 223.321 55.1797 216.047 47.7203C210.44 41.9703 199.563 36.8529 189.936 35.6416C189.786 36.9758 189.272 38.2428 188.449 39.3037C187.626 40.3645 186.527 41.1782 185.272 41.6553C180.129 43.6761 170.741 44.2073 162.367 39.6076C153.533 42.1278 137.343 51.7424 131.337 59.3825Z" fill="#ADAEB5"/>
<path d="M109.322 0.2286C114.73 0.329947 141.086 -0.160915 143.889 -0.2818C144.734 -0.318431 144.712 -1.77637 143.889 -1.77637C140.127 -1.77637 115.376 -1.29893 109.322 -0.981461C109.176 -0.96168 109.041 -0.889466 108.944 -0.778206C108.847 -0.666947 108.793 -0.524196 108.793 -0.376431C108.793 -0.228665 108.847 -0.085914 108.944 0.0253453C109.041 0.136605 109.176 0.20882 109.322 0.2286Z" fill="#506CF0"/>
<path d="M87.7351 -6.52363C87.3419 -6.31849 80.5418 1.85524 83.6751 0.883284C84.1195 0.745305 88.5593 -4.88008 88.7779 -5.88867C88.8041 -6.01939 88.7894 -6.15501 88.7359 -6.27712C88.6824 -6.39923 88.5926 -6.50192 88.4788 -6.57126C88.3649 -6.64059 88.2325 -6.67321 88.0994 -6.66469C87.9664 -6.65617 87.8392 -6.60692 87.7351 -6.52363Z" fill="#506CF0"/>
<path d="M135.251 21.9005C132.385 21.9005 110.596 21.6563 109.052 22.0971C108.527 22.2485 108.32 23.0983 108.95 23.2778C110.596 23.7504 132.272 23.511 135.265 23.511C138.257 23.511 141.162 23.6185 144.093 23.511C144.989 23.4781 144.923 21.9762 144.034 21.9371C141.118 21.8077 138.173 21.9005 135.251 21.9005Z" fill="#506CF0"/>
<path d="M108.709 33.3082C108.524 33.3631 108.368 33.4889 108.275 33.658C108.183 33.8272 108.16 34.0262 108.213 34.2117C108.465 35.0665 107.335 34.7734 144.471 35.3925C144.676 35.3717 144.866 35.2755 145.004 35.1227C145.142 34.9698 145.219 34.7712 145.219 34.5652C145.219 34.3593 145.142 34.1607 145.004 34.0078C144.866 33.855 144.676 33.7588 144.471 33.738C108.846 33.1629 111.057 33.1262 108.709 33.3082Z" fill="#506CF0"/>
<path d="M143.678 12.1392C143.877 12.1258 144.063 12.0391 144.201 11.8958C144.34 11.7525 144.42 11.5629 144.426 11.3639C144.432 11.1649 144.364 10.9706 144.235 10.819C144.106 10.6673 143.925 10.569 143.728 10.5433C138.429 10.3967 113.768 10.1916 109.294 11.083C108.562 11.2283 108.725 12.2955 109.425 12.3577C113.209 12.6984 118.994 11.4273 143.678 12.1392Z" fill="#506CF0"/>
<path d="M84.1002 39.1762C85.6133 40.8338 87.2222 42.4014 88.9184 43.8711C89.6511 44.561 90.7793 43.4608 90.0418 42.7722C88.4607 41.1816 86.7987 39.6737 85.0624 38.2543C84.5336 37.916 83.6923 38.6084 84.1002 39.1762Z" fill="#506CF0"/>
<path d="M16.4253 -43.3994C16.4253 -44.3176 14.9796 -44.4849 14.9673 -43.5447C14.4863 -4.6468 15.1285 40.5969 16.987 79.2933C17.0383 80.3653 18.6964 80.1028 18.6415 79.0381C16.678 38.1047 16.3691 -2.43181 16.4253 -43.3994Z" fill="#506CF0"/>
<path d="M34.7936 43.3966C34.3833 44.0071 35.3345 44.7837 35.8144 44.2135C36.4334 43.4809 40.0233 39.3207 39.8438 38.4257C39.3493 36.0544 35.4944 42.3599 34.7936 43.3966Z" fill="#506CF0"/>
<path d="M61.6557 23.6637C61.0293 23.5477 57.056 27.0741 56.2537 27.8397C48.7528 22.9347 49.4989 24.1423 49.5917 27.107C49.6199 29.1349 49.761 31.1597 50.0142 33.172C50.1057 33.8082 51.0728 33.697 51.1131 33.078C51.2657 30.8105 50.9739 28.5503 50.9373 26.284C57.542 30.3135 55.5004 30.1914 61.6679 25.1387C62.4005 25.9482 65.8891 29.3428 66.9453 29.2146C67.8 29.1083 70.678 25.2413 71.3631 24.417C71.3631 26.1668 71.4192 31.1609 71.9382 32.5749C72.2068 33.3075 72.915 33.0487 72.9516 32.3197C73.042 30.7665 72.854 27.085 72.8576 25.2925C72.8576 23.2509 72.8515 22.7283 71.9968 21.5073C70.1408 18.8551 65.4397 12.3579 62.5715 8.83153C60.0451 5.72395 59.934 5.65678 58.161 8.40171C55.4295 12.6375 50.8445 20.8565 50.1436 22.4194C49.8469 23.0775 50.8616 23.3877 51.2145 22.9005C52.3891 21.2777 55.0486 16.5071 56.2733 14.4081C59.0268 14.518 61.7843 14.4715 64.5325 14.2689C66.8 16.9552 68.9429 19.7294 71.0041 22.572L66.7988 27.6748C66.2261 27.2206 62.2894 23.7809 61.6557 23.6637Z" fill="#506CF0"/>
<path d="M82.6933 78.3316C76.1326 77.9652 22.7079 78.2522 20.6235 78.5758C20.4694 78.6255 20.3361 78.725 20.2445 78.8585C20.1528 78.9921 20.108 79.1523 20.1171 79.314C20.1262 79.4757 20.1886 79.6299 20.2946 79.7524C20.4006 79.8748 20.5442 79.9588 20.7029 79.991C40.9028 80.0484 62.3408 79.8884 82.5761 79.9104C83.5603 79.9104 83.7288 78.3926 82.6933 78.3316Z" fill="#506CF0"/>
<path d="M37.3679 2.72768C38.0907 3.5348 39.1994 2.52376 38.5987 1.83875C37.1407 0.18422 34.0173 -3.57295 32.5777 -4.83796C32.0074 -5.33982 31.2345 -4.55468 31.6375 -3.95636C32.6729 -2.41173 35.9404 1.13543 37.3679 2.72768Z" fill="#506CF0"/>
<path d="M61.9403 42.8196C61.9403 43.833 61.6704 50.561 62.0343 51.4439C62.0986 51.5552 62.1911 51.6476 62.3024 51.7118C62.4138 51.7761 62.5401 51.8099 62.6686 51.8099C62.7972 51.8099 62.9235 51.7761 63.0348 51.7118C63.1462 51.6476 63.2386 51.5552 63.303 51.4439C63.6827 50.4743 63.2517 44.1542 63.2016 42.8196C63.1357 42.1053 61.9403 42.0906 61.9403 42.8196Z" fill="#506CF0"/>
<path d="M31.3894 20.7485C46.2191 -7.14156 80.0227 -4.21103 92.4543 18.4883C77.7674 40.9032 48.9945 44.2965 31.3222 22.7449C30.7703 22.0734 30.0878 22.9318 30.5896 23.6351C46.1263 45.2477 79.323 42.4271 93.0306 20.5825C93.4772 20.0272 93.7378 19.3457 93.7757 18.6341C93.8137 17.9226 93.6269 17.2172 93.2418 16.6177C78.1679 -9.1978 40.4154 -4.55415 30.3686 20.0879C30.0694 20.8206 31.0316 21.4225 31.3894 20.7485Z" fill="#506CF0"/>
<path fillRule="evenodd" clipRule="evenodd" d="M166.559 -7.57952C162.739 -6.84689 159.37 1.49657 163.584 5.40272C166.164 7.79476 178.046 7.8961 185.249 7.58962C185.301 8.47114 185.49 9.33918 185.81 10.1624C186.097 10.895 186.956 11.127 186.743 9.80583C186.626 9.05336 186.573 8.29242 186.583 7.53101C188.041 7.45897 189.192 7.37106 189.936 7.28681C189.742 8.91381 189.462 10.5295 189.098 12.1271C188.897 13.0026 189.88 13.1662 190.213 12.331C191.235 9.68935 191.649 6.85129 191.423 4.02781C190.988 -2.1959 173.536 -8.92023 166.559 -7.57952ZM167.762 -4.29244C166.004 -3.89072 165.589 -1.2215 165.429 0.205915C165.155 2.64802 163.598 0.938551 163.971 -1.20928C164.257 -2.8284 165.641 -5.46588 167.659 -5.20335C167.776 -5.20963 167.891 -5.17098 167.98 -5.0953C168.07 -5.01963 168.127 -4.91265 168.14 -4.79626C168.153 -4.67988 168.121 -4.56289 168.051 -4.46923C167.98 -4.37557 167.877 -4.31233 167.762 -4.29244Z" fill="#191919"/>
<path fillRule="evenodd" clipRule="evenodd" d="M180.839 17.5479C181.813 15.8995 182.482 14.0896 182.815 12.2045C184.455 12.5016 186.019 13.1244 187.415 14.0361C188.245 14.3939 188.56 13.3035 188.147 12.9653C186.649 11.744 184.817 11.0023 182.891 10.837C182.002 9.15313 175.245 8.76117 174.202 10.5378C173.947 10.3946 173.664 10.307 173.373 10.2807C173.081 10.2544 172.787 10.29 172.511 10.3852C171.98 8.92724 165.987 8.56214 164.493 10.246C162.773 10.0567 162.058 11.6453 164.332 11.6307C164.416 13.2088 164.708 14.7689 165.2 16.2706C165.789 17.4746 170.021 17.4563 170.863 16.847C171.866 16.1229 172.321 12.9616 172.606 11.7442C173.019 11.6145 173.465 11.6406 173.86 11.8175C173.851 13.4496 174.037 15.0769 174.413 16.6651C175.06 17.952 179.9 18.6566 180.839 17.5479ZM170.401 15.4477C170.202 15.9275 170.022 16.0423 168.418 15.9788C165.707 15.8726 166.275 16.4599 165.444 11.0006C167.354 10.3522 169.424 10.3522 171.334 11.0006C171.307 12.5287 170.991 14.0379 170.401 15.4477ZM175.503 16.0008C175.201 14.4999 175.093 12.9662 175.182 11.4377C177.276 10.6902 179.575 10.7604 181.62 11.6343C181.505 12.8351 181.197 14.0095 180.708 15.1119C180.014 16.6296 179.899 16.8287 177.712 16.6504C176.662 16.5649 175.651 16.3317 175.503 16.002V16.0008Z" fill="#191919"/>
<path fillRule="evenodd" clipRule="evenodd" d="M176.539 15.024C176.767 15.847 178.37 15.9435 177.997 13.5661C177.783 12.2132 175.876 12.6381 176.539 15.024Z" fill="#191919"/>
<path fillRule="evenodd" clipRule="evenodd" d="M190.388 14.042C186.205 14.3924 184.14 22.0557 181.918 22.7896C180.364 23.3037 176.881 21.0691 173.36 20.8286C169.84 20.588 167.835 22.0753 167.178 21.7615C166.521 21.4476 166.974 18.7003 166.974 18.0592C166.974 17.4182 166.625 17.0677 166.005 18.4817C165.384 19.8957 159.335 33.4689 161.967 37.1211C165.728 42.3399 181.075 43.4449 185.84 39.855C191.813 35.3542 186.73 20.8994 188.201 17.1337C188.478 16.5954 188.919 16.1595 189.461 15.8893C190.002 15.6192 190.616 15.529 191.212 15.6318C193.225 16.5036 192.671 22.4697 189.455 21.5356C188.647 21.3023 188.464 22.3183 189.211 22.7102C191.395 23.8592 193.54 22.0679 193.825 19.0654C194.039 16.7918 193.267 13.8014 190.388 14.042ZM173.732 27.5956C170.7 27.5956 170.087 26.3929 169.832 24.4209C172.456 24.985 175.175 24.9378 177.778 24.2829C177.501 26.0852 177.116 27.6005 173.732 27.6005V27.5956Z" fill="#191919"/>
<path fillRule="evenodd" clipRule="evenodd" d="M172.281 14.7836C171.719 16.0778 171.299 17.4288 171.027 18.813C170.725 20.4553 172.91 20.4602 174.14 20.271C174.873 20.1586 175.007 19.3234 174.205 19.2648C173.615 19.2209 172.457 19.1916 172.347 18.9876C172.448 17.6253 172.71 16.2797 173.127 14.9789C173.297 14.4417 172.513 14.2316 172.281 14.7836Z" fill="#191919"/>
<path fillRule="evenodd" clipRule="evenodd" d="M168.813 15.0807C169.492 14.8219 169.546 12.994 168.966 12.6533C167.502 11.7839 167.298 15.6522 168.813 15.0807Z" fill="#191919"/>
<path fillRule="evenodd" clipRule="evenodd" d="M116.421 80.755C106.775 80.1811 91.8328 78.2933 82.8312 74.4287C81.6736 73.9305 75.9554 74.8646 69.4631 71.8645C68.7842 71.5519 68.5143 72.508 69.1493 72.8999C72.4669 74.944 76.6575 75.4886 80.4843 75.6119C81.5128 75.5854 82.532 75.8131 83.4514 76.2749C94.0576 80.0787 105.227 82.0744 116.494 82.1787C117.42 82.1922 117.391 80.8136 116.421 80.755Z" fill="#191919"/>
<path fillRule="evenodd" clipRule="evenodd" d="M226.093 77.9858C225.905 76.9577 224.519 77.3203 224.692 78.3423C225.289 82.011 225.052 85.767 224 89.3318C221.508 98.0172 214.174 96.6239 206.833 96.2857C199.128 95.9316 188.517 95.1929 181.86 94.8864C181.713 94.8669 181.564 94.9056 181.445 94.9941C181.326 95.0827 181.247 95.2142 181.223 95.3607C181.2 95.5071 181.235 95.6569 181.32 95.7781C181.406 95.8993 181.535 95.9825 181.681 96.0097C188.085 97.0269 201.766 97.6289 207.096 97.8816C214.385 98.2284 222.518 99.2004 225.232 90.7604C226.567 86.6383 226.863 82.2499 226.093 77.9858Z" fill="#191919"/>
<path fillRule="evenodd" clipRule="evenodd" d="M178.309 82.3374C187.742 80.8372 197.246 79.8131 206.782 79.2689C206.937 79.255 207.079 79.1821 207.181 79.0653C207.282 78.9485 207.335 78.797 207.327 78.6425C207.32 78.4879 207.253 78.3423 207.14 78.236C207.028 78.1297 206.879 78.0711 206.724 78.0723C197.122 78.4664 187.553 79.4401 178.068 80.9882C177.889 81.0205 177.73 81.1227 177.627 81.2721C177.523 81.4215 177.483 81.606 177.516 81.7849C177.548 81.9638 177.65 82.1225 177.8 82.2262C177.949 82.3298 178.133 82.3698 178.312 82.3374H178.309Z" fill="#191919"/>
<path fillRule="evenodd" clipRule="evenodd" d="M77.875 71.7744C77.9766 71.7737 78.077 71.7525 78.1702 71.7121C78.2634 71.6717 78.3475 71.6129 78.4174 71.5393C78.4874 71.4657 78.5418 71.3787 78.5774 71.2836C78.613 71.1884 78.6291 71.0871 78.6247 70.9856C78.6202 70.8842 78.5954 70.7846 78.5516 70.693C78.5079 70.6013 78.4461 70.5194 78.3699 70.4522C78.2938 70.3849 78.2049 70.3337 78.1086 70.3016C78.0122 70.2695 77.9104 70.2571 77.8091 70.2652C73.2766 70.4105 70.9895 69.1235 67.9979 66.9989C67.5242 66.6631 67.0211 67.2553 67.3874 67.7315C69.5169 70.546 74.4854 71.9063 77.875 71.7744Z" fill="#191919"/>
<path fillRule="evenodd" clipRule="evenodd" d="M85.4151 64.0465C85.967 65.0038 87.1245 65.1332 88.1551 65.3664C94.2421 66.7499 108.171 66.2883 114.631 66.2126C115.549 66.2016 115.364 65.0148 114.42 65.0233C109.703 65.0709 95.4668 65.2053 88.403 63.9012C87.0989 63.657 87.1661 63.8499 86.5006 62.8022C85.2429 60.8168 83.3674 58.3881 81.0925 58.3478C80.4136 58.3356 80.3599 58.9901 80.9387 59.2807C82.9483 60.2888 84.5347 61.9777 85.4151 64.0465Z" fill="#191919"/>
<path fillRule="evenodd" clipRule="evenodd" d="M81.3855 64.3162C78.2328 63.3907 73.7771 61.9059 71.3265 58.7397C70.5939 57.7897 69.9711 58.5284 70.335 59.294C71.8613 62.5079 77.4488 65.3993 80.6565 65.5214C82.4307 65.5959 81.9374 64.4774 81.3855 64.3162Z" fill="#191919"/>
<path fillRule="evenodd" clipRule="evenodd" d="M68.6171 61.8241C68.5164 61.7016 68.3726 61.6223 68.2152 61.6025C68.0578 61.5827 67.8989 61.624 67.771 61.7178C67.6431 61.8116 67.556 61.9508 67.5276 62.1068C67.4992 62.2629 67.5316 62.4239 67.6183 62.5567C68.7822 64.2265 70.2937 65.6247 72.049 66.6552C73.8043 67.6856 75.7618 68.324 77.7872 68.5264C77.9467 68.532 78.1037 68.4853 78.2343 68.3934C78.3648 68.3016 78.4618 68.1696 78.5105 68.0176C78.5591 67.8655 78.5568 67.7017 78.5038 67.5511C78.4508 67.4006 78.3501 67.2714 78.217 67.1833C77.1461 66.7217 72.594 66.425 68.6171 61.8241Z" fill="#191919"/>
<path fillRule="evenodd" clipRule="evenodd" d="M209.188 99.184C207.002 98.8995 181.634 99.4612 180.46 98.9801C179.285 98.499 173.209 63.8956 171.622 61.622C170.034 59.3484 120.033 60.7905 117.76 62.1031C115.486 63.4157 122.994 102.941 124.939 103.741C126.675 104.453 206.582 103.464 209.192 103.326C211.803 103.188 211.375 99.4685 209.188 99.184ZM146.192 87.8123C139.37 88.3801 137.232 77.1892 144.049 76.0768C147.285 75.5481 150.136 78.4176 150.74 81.9513C150.866 82.64 150.845 83.3475 150.679 84.0275C150.513 84.7076 150.205 85.345 149.776 85.8981C149.346 86.4511 148.805 86.9075 148.188 87.2373C147.57 87.5672 146.89 87.7631 146.192 87.8123Z" fill="#191919"/>
</g>
<defs>
<clipPath id="clip0_191_48724">
<rect width="248" height="92" fill="white"/>
</clipPath>
</defs>
</svg>
