<svg width="52" height="52" viewBox="0 0 52 52" fill="none" xmlns="http://www.w3.org/2000/svg">
<g filter="url(#filter0_d_191_47697)">
<rect x="8" y="4" width="36" height="36" rx="18" fill="white"/>
<path d="M32.9419 15.2966C31.6302 14.6829 30.2427 14.2469 28.8158 14C28.638 14.3213 28.4304 14.7535 28.2872 15.0973C26.7487 14.866 25.2244 14.866 23.7143 15.0973C23.5712 14.7536 23.3588 14.3213 23.1794 14C21.7512 14.247 20.3624 14.6842 19.0501 15.2998C16.4389 19.2459 15.731 23.0937 16.0849 26.8872C17.8169 28.1805 19.4953 28.9662 21.1455 29.4804C21.5556 28.9164 21.9181 28.3193 22.2293 27.6953C21.6368 27.4697 21.0656 27.1918 20.5226 26.8647C20.6655 26.7588 20.805 26.6484 20.941 26.5337C24.2318 28.0729 27.8074 28.0729 31.059 26.5337C31.1955 26.6476 31.335 26.758 31.4773 26.8647C30.9334 27.1926 30.3612 27.4712 29.7675 27.6969C30.0805 28.3235 30.4423 28.9212 30.8513 29.4819C32.503 28.9679 34.183 28.1822 35.915 26.8872C36.3303 22.4897 35.2056 18.6771 32.9419 15.2966ZM22.6776 24.5543C21.6898 24.5543 20.8796 23.632 20.8796 22.509C20.8796 21.3859 21.6725 20.4621 22.6776 20.4621C23.6829 20.4621 24.493 21.3843 24.4757 22.509C24.4773 23.632 23.6829 24.5543 22.6776 24.5543ZM29.3223 24.5543C28.3344 24.5543 27.5243 23.632 27.5243 22.509C27.5243 21.3859 28.3171 20.4621 29.3223 20.4621C30.3275 20.4621 31.1376 21.3843 31.1203 22.509C31.1203 23.632 30.3275 24.5543 29.3223 24.5543Z" fill="#5865F2"/>
</g>
<defs>
<filter id="filter0_d_191_47697" x="0" y="0" width="52" height="52" filterUnits="userSpaceOnUse" colorInterpolationFilters="sRGB">
<feFlood floodOpacity="0" result="BackgroundImageFix"/>
<feColorMatrix in="SourceAlpha" type="matrix" values="0 0 0 0 0 0 0 0 0 0 0 0 0 0 0 0 0 0 127 0" result="hardAlpha"/>
<feOffset dy="4"/>
<feGaussianBlur stdDeviation="4"/>
<feColorMatrix type="matrix" values="0 0 0 0 0 0 0 0 0 0 0 0 0 0 0 0 0 0 0.1 0"/>
<feBlend mode="normal" in2="BackgroundImageFix" result="effect1_dropShadow_191_47697"/>
<feBlend mode="normal" in="SourceGraphic" in2="effect1_dropShadow_191_47697" result="shape"/>
</filter>
</defs>
</svg>
