<svg width="52" height="52" viewBox="0 0 52 52" fill="none" xmlns="http://www.w3.org/2000/svg">
<g filter="url(#filter0_d_191_47691)">
<rect x="8" y="4" width="36" height="36" rx="18" fill="white"/>
<path d="M30.7812 13H21.2188C18.8888 13 17 14.8888 17 17.2188V26.7812C17 29.1112 18.8888 31 21.2188 31H30.7812C33.1112 31 35 29.1112 35 26.7812V17.2188C35 14.8888 33.1112 13 30.7812 13Z" fill="white"/>
<path d="M30.7812 13H21.2188C18.8888 13 17 14.8888 17 17.2188V26.7812C17 29.1112 18.8888 31 21.2188 31H30.7812C33.1112 31 35 29.1112 35 26.7812V17.2188C35 14.8888 33.1112 13 30.7812 13Z" fill="#0A66C2"/>
<path d="M29.9878 28.306H32.0458C32.1204 28.306 32.1919 28.2764 32.2447 28.2236C32.2974 28.1709 32.3271 28.0994 32.3271 28.0248L32.3281 23.6765C32.3281 21.4038 31.8384 19.6569 29.1825 19.6569C28.1729 19.6194 27.2208 20.1398 26.707 21.0089C26.7045 21.0131 26.7007 21.0164 26.6961 21.0182C26.6916 21.0201 26.6865 21.0204 26.6818 21.0191C26.677 21.0178 26.6728 21.015 26.6698 21.0111C26.6668 21.0072 26.6652 21.0025 26.6652 20.9976V20.148C26.6652 20.0734 26.6355 20.0018 26.5828 19.9491C26.53 19.8963 26.4585 19.8667 26.3839 19.8667H24.4308C24.3562 19.8667 24.2847 19.8963 24.232 19.9491C24.1792 20.0018 24.1496 20.0734 24.1496 20.148V28.0244C24.1496 28.099 24.1792 28.1705 24.232 28.2232C24.2847 28.276 24.3562 28.3056 24.4308 28.3056H26.4887C26.5633 28.3056 26.6349 28.276 26.6876 28.2232C26.7404 28.1705 26.77 28.099 26.77 28.0244V24.131C26.77 23.0301 26.9788 21.9639 28.3437 21.9639C29.6891 21.9639 29.7065 23.2236 29.7065 24.2023V28.0247C29.7065 28.0993 29.7362 28.1709 29.7889 28.2236C29.8416 28.2763 29.9132 28.306 29.9878 28.306ZM19.6719 17.1926C19.6719 18.0268 20.3586 18.7132 21.1929 18.7132C22.0269 18.7131 22.7132 18.0263 22.7132 17.1922C22.7131 16.3582 22.0267 15.6719 21.1926 15.6719C20.3583 15.6719 19.6719 16.3584 19.6719 17.1926ZM20.1612 28.306H22.2218C22.2964 28.306 22.368 28.2763 22.4207 28.2236C22.4734 28.1709 22.5031 28.0993 22.5031 28.0247V20.148C22.5031 20.0734 22.4734 20.0018 22.4207 19.9491C22.368 19.8963 22.2964 19.8667 22.2218 19.8667H20.1612C20.0866 19.8667 20.0151 19.8963 19.9623 19.9491C19.9096 20.0018 19.8799 20.0734 19.8799 20.148V28.0247C19.8799 28.0993 19.9096 28.1709 19.9623 28.2236C20.0151 28.2763 20.0866 28.306 20.1612 28.306Z" fill="white"/>
</g>
<defs>
<filter id="filter0_d_191_47691" x="0" y="0" width="52" height="52" filterUnits="userSpaceOnUse" colorInterpolationFilters="sRGB">
<feFlood floodOpacity="0" result="BackgroundImageFix"/>
<feColorMatrix in="SourceAlpha" type="matrix" values="0 0 0 0 0 0 0 0 0 0 0 0 0 0 0 0 0 0 127 0" result="hardAlpha"/>
<feOffset dy="4"/>
<feGaussianBlur stdDeviation="4"/>
<feColorMatrix type="matrix" values="0 0 0 0 0 0 0 0 0 0 0 0 0 0 0 0 0 0 0.1 0"/>
<feBlend mode="normal" in2="BackgroundImageFix" result="effect1_dropShadow_191_47691"/>
<feBlend mode="normal" in="SourceGraphic" in2="effect1_dropShadow_191_47691" result="shape"/>
</filter>
</defs>
</svg>
